<svg height="512" viewBox="0 0 38 58" width="512" xmlns="http://www.w3.org/2000/svg"><g id="Page-1" fill="none" fill-rule="evenodd"><g id="027---Watch-Calendar-Notification" fill-rule="nonzero"><path id="Shape" d="m32 12s-3.456-3.456-4.746-10.367c-.1762955-.94444923-.999242-1.63009796-1.96-1.633h-8.588c-.960758.00290204-1.7837045.68855077-1.96 1.633-1.29 6.911-4.746 10.367-4.746 10.367l11 2z" fill="#4482c3"/><path id="Shape" d="m32 46s-3.456 3.456-4.746 10.367c-.1762955.9444492-.999242 1.630098-1.96 1.633h-8.588c-.960758-.002902-1.7837045-.6885508-1.96-1.633-1.29-6.911-4.746-10.367-4.746-10.367l11-2z" fill="#4482c3"/><path id="Shape" d="m2 19h4v6h-4c-1.1045695 0-2-.8954305-2-2v-2c0-1.1045695.8954305-2 2-2z" fill="#285680"/><path id="Shape" d="m1 30h5v9h-5c-.55228475 0-1-.4477153-1-1v-7c0-.5522847.44771525-1 1-1z" fill="#285680"/><path id="Shape" d="m38 18v22c0 3.3137085-2.6862915 6-6 6h-22c-3.31028736-.0082448-5.99175516-2.6897126-6-6v-22c0-3.3137085 2.6862915-6 6-6h22c3.3137085 0 6 2.6862915 6 6z" fill="#2fa8cc"/><path id="Shape" d="m5.93 44.4c-1.23343791-1.1300163-1.93401681-2.727191-1.93-4.4v-22c0-3.3137085 2.6862915-6 6-6h19.43c.77 7.83.48 28.55-23.5 32.4z" fill="#67b9cc"/><path id="Shape" d="m22 5h-2c-.5522847 0-1-.44771525-1-1s.4477153-1 1-1h2c.5522847 0 1 .44771525 1 1s-.4477153 1-1 1z" fill="#285680"/><path id="Shape" d="m22 55h-2c-.5522847 0-1-.4477153-1-1s.4477153-1 1-1h2c.5522847 0 1 .4477153 1 1s-.4477153 1-1 1z" fill="#285680"/><path id="Shape" d="m29 20v3h-20v-3c.0032948-1.1032019.89679813-1.9967052 2-2h16c1.1032019.0032948 1.9967052.8967981 2 2z" fill="#e64c3c"/><path id="Shape" d="m29 23v13h-18c-1.10320187-.0032948-1.9967052-.8967981-2-2v-11z" fill="#ecf0f1"/><path id="Shape" d="m13 20c-.5522847 0-1-.4477153-1-1v-3c0-.5522847.4477153-1 1-1s1 .4477153 1 1v3c0 .5522847-.4477153 1-1 1z" fill="#bdc3c7"/><path id="Shape" d="m25 20c-.5522847 0-1-.4477153-1-1v-3c0-.5522847.4477153-1 1-1s1 .4477153 1 1v3c0 .5522847-.4477153 1-1 1z" fill="#bdc3c7"/><path id="Shape" d="m34 36c-.0032948 1.1032019-.8967981 1.9967052-2 2h-8c-1.1045695 0-2-.8954305-2-2s.8954305-2 2-2h8c1.1032019.0032948 1.9967052.8967981 2 2z" fill="#f3d55b"/><path id="Shape" d="m32 31v3h-8v-3c0-2.209139 1.790861-4 4-4s4 1.790861 4 4z" fill="#f0c419"/><path id="Shape" d="m26 38h4v2c0 1.1045695-.8954305 2-2 2s-2-.8954305-2-2z" fill="#f29c1f"/><g fill="#95a5a5"><path id="Shape" d="m15 28h-2c-.5522847 0-1-.4477153-1-1s.4477153-1 1-1h2c.5522847 0 1 .4477153 1 1s-.4477153 1-1 1z"/><path id="Shape" d="m15 32h-2c-.5522847 0-1-.4477153-1-1s.4477153-1 1-1h2c.5522847 0 1 .4477153 1 1s-.4477153 1-1 1z"/><path id="Shape" d="m21 28h-2c-.5522847 0-1-.4477153-1-1s.4477153-1 1-1h2c.5522847 0 1 .4477153 1 1s-.4477153 1-1 1z"/><path id="Shape" d="m20 32h-1c-.5522847 0-1-.4477153-1-1s.4477153-1 1-1h1c.5522847 0 1 .4477153 1 1s-.4477153 1-1 1z"/></g></g></g></svg>