<svg width="512" height="512" viewBox="0 0 512 512" fill="none" xmlns="http://www.w3.org/2000/svg">
<g clip-path="url(#clip0_1_2)">
<path d="M78.7061 89.0405L189.343 24.5022L198.09 39.4977L87.4535 104.036L78.7061 89.0405Z" fill="#B7791D"/>
<path d="M209.848 39.4433L218.595 24.4478L322.754 85.2071L314.007 100.203L209.848 39.4433Z" fill="#B7791D"/>
<path d="M181.543 442.576H21.6949C12.1214 442.548 4.36758 434.794 4.33899 425.22V104.136C4.36758 94.562 12.1214 86.8083 21.6949 86.7797H386.169C395.743 86.8083 403.497 94.562 403.525 104.136V292.1L181.543 442.576Z" fill="#F1F1FE"/>
<path d="M91.1187 130.169H56.4068C51.6141 130.169 47.7288 134.055 47.7288 138.847V164.881C47.7288 169.674 51.6141 173.559 56.4068 173.559H91.1187C95.9114 173.559 99.7966 169.674 99.7966 164.881V138.847C99.7966 134.055 95.9114 130.169 91.1187 130.169Z" fill="#FF4032"/>
<path d="M177.898 130.169H143.186C138.394 130.169 134.508 134.055 134.508 138.847V164.881C134.508 169.674 138.394 173.559 143.186 173.559H177.898C182.691 173.559 186.576 169.674 186.576 164.881V138.847C186.576 134.055 182.691 130.169 177.898 130.169Z" fill="#FF4032"/>
<path d="M264.678 130.169H229.966C225.173 130.169 221.288 134.055 221.288 138.847V164.881C221.288 169.674 225.173 173.559 229.966 173.559H264.678C269.471 173.559 273.356 169.674 273.356 164.881V138.847C273.356 134.055 269.471 130.169 264.678 130.169Z" fill="#FF4032"/>
<path d="M351.458 130.169H316.746C311.953 130.169 308.068 134.055 308.068 138.847V164.881C308.068 169.674 311.953 173.559 316.746 173.559H351.458C356.25 173.559 360.136 169.674 360.136 164.881V138.847C360.136 134.055 356.25 130.169 351.458 130.169Z" fill="#FF4032"/>
<path d="M351.458 208.271H316.746C311.953 208.271 308.068 212.156 308.068 216.949V242.983C308.068 247.776 311.953 251.661 316.746 251.661H351.458C356.25 251.661 360.136 247.776 360.136 242.983V216.949C360.136 212.156 356.25 208.271 351.458 208.271Z" fill="#FF4032"/>
<path d="M264.678 208.271H229.966C225.173 208.271 221.288 212.156 221.288 216.949V242.983C221.288 247.776 225.173 251.661 229.966 251.661H264.678C269.471 251.661 273.356 247.776 273.356 242.983V216.949C273.356 212.156 269.471 208.271 264.678 208.271Z" fill="#FF4032"/>
<path d="M91.1187 208.271H56.4068C51.6141 208.271 47.7288 212.156 47.7288 216.949V242.983C47.7288 247.776 51.6141 251.661 56.4068 251.661H91.1187C95.9114 251.661 99.7966 247.776 99.7966 242.983V216.949C99.7966 212.156 95.9114 208.271 91.1187 208.271Z" fill="#FF4032"/>
<path d="M177.898 208.271H143.186C138.394 208.271 134.508 212.156 134.508 216.949V242.983C134.508 247.776 138.394 251.661 143.186 251.661H177.898C182.691 251.661 186.576 247.776 186.576 242.983V216.949C186.576 212.156 182.691 208.271 177.898 208.271Z" fill="#FF4032"/>
<path d="M203.932 52.0678C218.31 52.0678 229.966 40.412 229.966 26.0339C229.966 11.6558 218.31 0 203.932 0C189.554 0 177.898 11.6558 177.898 26.0339C177.898 40.412 189.554 52.0678 203.932 52.0678Z" fill="#95A5A5"/>
<path d="M507.661 381.831C507.661 424.965 472.694 459.932 429.559 459.932H225.627C190.506 460.031 161.654 432.223 160.458 397.122C159.262 362.022 186.155 332.315 221.201 330.023C222.67 329.85 224.148 329.763 225.627 329.763C229.999 329.753 234.361 330.189 238.644 331.064V329.763C238.709 286.421 270.742 249.773 313.685 243.911C356.628 238.048 397.312 264.768 408.993 306.506C415.704 304.717 422.614 303.784 429.559 303.729C472.694 303.729 507.661 338.696 507.661 381.831Z" fill="#6480FD"/>
<path d="M408.993 306.506C402.604 308.513 396.529 311.405 390.942 315.097C389.545 316.076 387.876 316.592 386.169 316.572C382.364 316.543 379.021 314.037 377.926 310.392C376.83 306.747 378.238 302.814 381.397 300.692C387.965 296.27 395.122 292.794 402.658 290.365C405.304 295.52 407.426 300.927 408.993 306.506V306.506Z" fill="#233ED9"/>
<path d="M236.388 362.739C235.546 363.01 234.669 363.156 233.784 363.173C230.006 363.183 226.648 360.769 225.454 357.185C222.672 348.398 221.238 339.24 221.201 330.023C222.67 329.85 224.148 329.763 225.627 329.763C229.999 329.753 234.361 330.189 238.644 331.064C238.739 338.107 239.879 345.097 242.028 351.805C242.737 354.003 242.539 356.392 241.481 358.444C240.422 360.496 238.589 362.042 236.388 362.739V362.739Z" fill="#233ED9"/>
<path d="M177.898 286.373H143.186C138.394 286.373 134.508 290.258 134.508 295.051V321.085C134.508 325.877 138.394 329.763 143.186 329.763H177.898C182.691 329.763 186.576 325.877 186.576 321.085V295.051C186.576 290.258 182.691 286.373 177.898 286.373Z" fill="#FF4032"/>
<path d="M91.1187 286.373H56.4068C51.6141 286.373 47.7288 290.258 47.7288 295.051V321.085C47.7288 325.877 51.6141 329.763 56.4068 329.763H91.1187C95.9114 329.763 99.7966 325.877 99.7966 321.085V295.051C99.7966 290.258 95.9114 286.373 91.1187 286.373Z" fill="#FF4032"/>
<path d="M91.1187 364.475H56.4068C51.6141 364.475 47.7288 368.36 47.7288 373.153V399.186C47.7288 403.979 51.6141 407.864 56.4068 407.864H91.1187C95.9114 407.864 99.7966 403.979 99.7966 399.186V373.153C99.7966 368.36 95.9114 364.475 91.1187 364.475Z" fill="#FF4032"/>
<path d="M374.949 384.373L340.237 349.661C336.848 346.274 331.355 346.274 327.966 349.661L293.254 384.373C289.966 387.778 290.013 393.191 293.36 396.538C296.708 399.885 302.12 399.933 305.525 396.644L325.424 376.745V503.322C325.424 508.115 329.309 512 334.102 512C338.894 512 342.78 508.115 342.78 503.322V376.745L362.678 396.644C366.083 399.933 371.496 399.885 374.843 396.538C378.191 393.191 378.238 387.778 374.949 384.373Z" fill="#FFBD3A"/>
</g>
<defs>
<clipPath id="clip0_1_2">
<rect width="512" height="512" fill="white"/>
</clipPath>
</defs>
</svg>
