<svg width="1008" height="794" viewBox="0 0 1008 794" fill="none" xmlns="http://www.w3.org/2000/svg">
<path d="M369.8 752C573.593 752 738.8 586.793 738.8 383C738.8 179.207 573.593 14 369.8 14C166.007 14 0.800003 179.207 0.800003 383C0.800003 586.793 166.007 752 369.8 752Z" fill="#C1A585"/>
<path d="M373.6 794C577.393 794 742.6 628.793 742.6 425C742.6 221.207 577.393 56 373.6 56C169.807 56 4.60001 221.207 4.60001 425C4.60001 628.793 169.807 794 373.6 794Z" fill="#7895A4"/>
<path d="M372.8 748C576.593 748 741.8 582.793 741.8 379C741.8 175.207 576.593 10 372.8 10C169.007 10 3.8 175.207 3.8 379C3.8 582.793 169.007 748 372.8 748Z" fill="#EE9621"/>
<path d="M372.8 738C576.593 738 741.8 572.793 741.8 369C741.8 165.207 576.593 0 372.8 0C169.007 0 3.8 165.207 3.8 369C3.8 572.793 169.007 738 372.8 738Z" fill="#F3ECC9"/>
<path d="M372.8 661C537.933 661 671.8 527.133 671.8 362C671.8 196.867 537.933 63 372.8 63C207.667 63 73.8 196.867 73.8 362C73.8 527.133 207.667 661 372.8 661Z" fill="#C1A585"/>
<path d="M372.8 668C537.933 668 671.8 534.133 671.8 369C671.8 203.867 537.933 70 372.8 70C207.667 70 73.8 203.867 73.8 369C73.8 534.133 207.667 668 372.8 668Z" fill="#E1D3A2"/>
<path d="M365.6 574.8C481.69 574.8 575.8 480.69 575.8 364.6C575.8 248.51 481.69 154.4 365.6 154.4C249.51 154.4 155.4 248.51 155.4 364.6C155.4 480.69 249.51 574.8 365.6 574.8Z" fill="#F6B554"/>
<path d="M531 216.1C488.7 173.8 432.6 150.6 372.8 150.6C313 150.6 256.9 173.9 214.6 216.1C172.3 258.4 149.1 314.5 149.1 374.3C149.1 434.1 172.4 490.2 214.6 532.5C256.9 574.8 313 598 372.8 598C432.6 598 488.7 574.7 531 532.5C573.3 490.2 596.5 434.1 596.5 374.3C596.5 314.5 573.3 258.4 531 216.1ZM569.6 374.3C569.6 375.9 569.6 377.6 569.5 379.2L563 372.7V339.3L567.1 343.4C568.8 353.5 569.6 363.8 569.6 374.3ZM361 456.5V423L384.6 446.6V480L361 456.5ZM384.6 518.1V551.5L361 527.9V494.5L384.6 518.1ZM361 385V351.6L384.6 375.2V408.6L361 385ZM361 313.6V280.2L384.6 303.8V337.2L361 313.6ZM361 242.1V208.7L384.6 232.3V265.7L361 242.1ZM334.1 181.8V215.2L310.5 191.6V187.6C318.1 185.1 325.8 183 333.7 181.4L334.1 181.8ZM310.5 405.9V372.5L334.1 396.1V429.5L310.5 405.9ZM334.1 467.6V501L310.5 477.4V444L334.1 467.6ZM310.5 334.5V301.1L334.1 324.7V358.1L310.5 334.5ZM310.5 263V229.6L334.1 253.2V286.6L310.5 263ZM283.6 202.7V236.1L260.4 212.9C267 208.3 274 204 281.1 200.2L283.6 202.7ZM260 464.9L283.6 488.5V522L260 498.3V464.9ZM260 426.9V393.5L283.6 417.1V450.5L260 426.9ZM260 355.4V322L283.6 345.6V379L260 355.4ZM260 284V250.6L283.6 274.2V307.6L260 284ZM209.4 304.9V271.5L233 295.1V328.5L209.4 304.9ZM233.1 366.6V400L209.5 376.4V343L233.1 366.6ZM222.9 246.9C226.1 243.1 229.5 239.4 233 235.9V257.1L222.9 246.9ZM182.5 387.5V420.9L181.3 419.7C178.4 407.3 176.6 394.3 176.1 381.1L182.5 387.5ZM178.2 345.1C179.3 337.9 180.7 330.9 182.6 324V349.4L178.2 345.1ZM209.4 414.4L233 438V471.4L209.4 447.8V414.4ZM327.4 565.8L310.4 548.8V515.4L334 539V567.2C331.9 566.8 329.7 566.3 327.4 565.8ZM361 566L366 571C364.3 570.9 362.6 570.9 361 570.8V566ZM536.2 417.3L512.6 393.7V360.3L536.2 383.9V417.3ZM536.2 345.9L512.6 322.3V288.9L536.2 312.5V345.9ZM485.7 333.4V366.8L462.1 343.2V309.8L485.7 333.4ZM462.1 271.7V238.3L485.7 261.9V295.3L462.1 271.7ZM485.7 404.8V438.2L462.1 414.6V381.2L485.7 404.8ZM485.7 476.3V509.7L462.1 486.1V452.7L485.7 476.3ZM462.1 200.2V198.9C470.3 203.1 478.2 207.9 485.7 213.2V223.9L462.1 200.2ZM435.2 354.3V387.7L411.6 364.1V330.7L435.2 354.3ZM411.5 292.6V259.2L435.1 282.8V316.2L411.5 292.6ZM435.2 425.7V459.1L411.6 435.5V402.1L435.2 425.7ZM435.2 497.2V530.6L411.5 507V473.6L435.2 497.2ZM435.2 244.8L411.6 221.2V187.8L435.2 211.4V244.8ZM429.3 562.8C423.5 564.5 417.5 566 411.5 567.2V545L429.3 562.8ZM462.1 524.1L478.4 540.4C473.1 543.8 467.7 546.9 462.1 549.7V524.1ZM512.6 503.2L517.3 507.9C515.8 509.6 514.2 511.2 512.6 512.8V503.2ZM512.6 465.1V431.7L536.2 455.3V483.8C535.5 484.8 534.9 485.7 534.2 486.7L512.6 465.1ZM565.7 413.4C564.9 417.2 564.1 420.9 563.1 424.6V410.8L565.7 413.4ZM536.2 264.7V274.4L512.6 250.8V235.9C521.3 244.7 529.3 254.4 536.2 264.7ZM384.6 177.9V194.3L367.9 177.6C369.5 177.6 371.2 177.5 372.8 177.5C376.8 177.5 380.7 177.6 384.6 177.9ZM214.1 490.5L233.1 509.5V512.8C226.2 505.8 219.8 498.3 214.1 490.5Z" fill="#EE9621"/>
<path d="M530.2 206.3C487.9 164 431.8 140.8 372 140.8C312.2 140.8 256.1 164.1 213.8 206.3C171.5 248.6 148.3 304.7 148.3 364.5C148.3 424.3 171.6 480.4 213.8 522.7C256.1 565 312.2 588.2 372 588.2C431.8 588.2 487.9 564.9 530.2 522.7C572.5 480.4 595.7 424.3 595.7 364.5C595.7 304.7 572.4 248.6 530.2 206.3ZM568.8 364.5C568.8 366.1 568.8 367.8 568.7 369.4L562.2 362.9V329.5L566.3 333.6C568 343.7 568.8 354 568.8 364.5ZM360.2 446.7V413.3L383.8 436.9V470.3L360.2 446.7ZM383.8 508.4V541.8L360.2 518.2V484.8L383.8 508.4ZM360.2 375.2V341.8L383.8 365.4V398.8L360.2 375.2ZM360.2 303.8V270.4L383.8 294V327.4L360.2 303.8ZM360.2 232.3V198.9L383.8 222.5V256L360.2 232.3ZM333.3 172V205.4L309.7 181.8V177.8C317.3 175.3 325 173.2 332.9 171.6L333.3 172ZM309.7 396.2V362.8L333.3 386.4V419.8L309.7 396.2ZM333.3 457.8V491.2L309.7 467.6V434.2L333.3 457.8ZM309.7 324.7V291.3L333.3 314.9V348.3L309.7 324.7ZM309.7 253.3V219.9L333.3 243.5V276.9L309.7 253.3ZM282.8 192.9V226.3L259.6 203.1C266.2 198.5 273.2 194.2 280.3 190.4L282.8 192.9ZM259.1 455.1L282.7 478.7V512.1L259.1 488.5V455.1ZM259.1 417.1V383.7L282.7 407.3V440.7L259.1 417.1ZM259.1 345.6V312.2L282.7 335.8V369.2L259.1 345.6ZM259.1 274.2V240.8L282.7 264.4V297.8L259.1 274.2ZM208.6 295.1V261.7L232.2 285.3V318.7L208.6 295.1ZM232.2 356.8V390.2L208.6 366.6V333.2L232.2 356.8ZM222.1 237.1C225.3 233.3 228.7 229.6 232.2 226.1V247.3L222.1 237.1ZM181.7 377.7V411.1L180.5 409.9C177.6 397.5 175.8 384.5 175.3 371.3L181.7 377.7ZM177.4 335.3C178.5 328.1 179.9 321.1 181.8 314.2V339.6L177.4 335.3ZM208.6 404.6L232.2 428.2V461.6L208.6 438V404.6ZM326.6 556L309.6 539V505.6L333.2 529.2V557.4C331.1 557 328.8 556.6 326.6 556ZM360.2 556.2L365.2 561.2C363.5 561.1 361.8 561.1 360.2 561V556.2ZM535.4 407.5L511.8 383.9V350.5L535.4 374.1V407.5ZM535.4 336.1L511.8 312.5V279L535.4 302.6V336.1ZM484.9 323.6V357L461.3 333.4V300L484.9 323.6ZM461.2 261.9V228.5L484.8 252.1V285.5L461.2 261.9ZM484.9 395V428.4L461.3 404.8V371.4L484.9 395ZM484.9 466.5V499.9L461.3 476.3V442.9L484.9 466.5ZM461.2 190.5V189.2C469.4 193.4 477.3 198.2 484.8 203.5V214.2L461.2 190.5ZM434.3 344.5V377.9L410.7 354.3V320.9L434.3 344.5ZM410.7 282.8V249.4L434.3 273V306.4L410.7 282.8ZM434.3 416V449.4L410.7 425.8V392.4L434.3 416ZM434.3 487.4V520.8L410.7 497.2V463.8L434.3 487.4ZM434.3 235L410.7 211.4V178L434.3 201.6V235ZM428.5 553C422.7 554.7 416.7 556.2 410.7 557.4V535.2L428.5 553ZM461.2 514.3L477.5 530.6C472.2 534 466.8 537.1 461.2 539.9V514.3ZM511.8 493.4L516.5 498.1C515 499.8 513.4 501.4 511.8 503V493.4ZM511.8 455.4V422L535.4 445.6V474.1C534.7 475.1 534.1 476 533.4 477L511.8 455.4ZM564.9 403.6C564.1 407.4 563.3 411.1 562.3 414.8V401L564.9 403.6ZM535.4 254.9V264.6L511.8 241V226.1C520.5 234.9 528.4 244.6 535.4 254.9ZM383.8 168.1V184.5L367.1 167.8C368.7 167.8 370.4 167.7 372 167.7C376 167.7 379.9 167.8 383.8 168.1ZM213.2 480.7L232.2 499.7V503C225.4 496 219 488.6 213.2 480.7Z" fill="#F7F8DB"/>
<path d="M531.8 205.5C489.5 163.2 433.4 140 373.6 140C313.8 140 257.7 163.3 215.4 205.5C173.1 247.8 149.9 303.9 149.9 363.7C149.9 423.5 173.2 479.6 215.4 521.9C257.7 564.2 313.8 587.4 373.6 587.4C433.4 587.4 489.5 564.1 531.8 521.9C574.1 479.6 597.3 423.5 597.3 363.7C597.3 303.9 574.1 247.8 531.8 205.5ZM570.4 363.7C570.4 365.3 570.4 367 570.3 368.6L563.8 362.1V328.7L567.9 332.8C569.6 342.9 570.4 353.2 570.4 363.7ZM361.8 445.9V412.5L385.4 436.1V469.5L361.8 445.9ZM385.5 507.5V541L361.9 517.4V484L385.5 507.5ZM361.8 374.4V341L385.4 364.6V398L361.8 374.4ZM361.8 303V269.6L385.4 293.2V326.6L361.8 303ZM361.8 231.5V198.1L385.4 221.7V255.1L361.8 231.5ZM334.9 171.2V204.6L311.3 181V177C318.9 174.5 326.6 172.4 334.5 170.8L334.9 171.2ZM311.3 395.3V361.9L334.9 385.5V419L311.3 395.3ZM334.9 457V490.4L311.3 466.8V433.4L334.9 457ZM311.3 323.9V290.5L334.9 314.1V347.5L311.3 323.9ZM311.3 252.4V219L334.9 242.6V276L311.3 252.4ZM284.4 192.1V225.5L261.2 202.3C267.8 197.7 274.8 193.4 281.9 189.6L284.4 192.1ZM260.8 454.3L284.4 477.9V511.3L260.8 487.7V454.3ZM260.8 416.3V382.9L284.4 406.5V439.9L260.8 416.3ZM260.8 344.8V311.4L284.4 335V368.4L260.8 344.8ZM260.8 273.4V240L284.4 263.6V297L260.8 273.4ZM210.2 294.3V260.9L233.8 284.5V317.9L210.2 294.3ZM233.9 356V389.4L210.3 365.8V332.4L233.9 356ZM223.7 236.3C226.9 232.5 230.3 228.8 233.8 225.3V246.5L223.7 236.3ZM183.3 376.9V410.3L182.1 409.1C179.2 396.7 177.4 383.7 176.9 370.5L183.3 376.9ZM179 334.5C180.1 327.3 181.5 320.3 183.4 313.4V338.8L179 334.5ZM210.2 403.8L233.8 427.4V460.8L210.2 437.2V403.8ZM328.3 555.2L311.3 538.2V504.8L334.9 528.4V556.6C332.7 556.2 330.5 555.7 328.3 555.2ZM361.8 555.4L366.8 560.4C365.1 560.3 363.4 560.3 361.8 560.2V555.4ZM537 406.7L513.4 383.1V349.7L537 373.3V406.7ZM537 335.3L513.4 311.7V278.3L537 301.9V335.3ZM486.5 322.8V356.2L462.9 332.6V299.2L486.5 322.8ZM462.9 261.1V227.7L486.5 251.3V284.7L462.9 261.1ZM486.5 394.2V427.6L462.9 404V370.6L486.5 394.2ZM486.5 465.7V499.1L462.9 475.5V442L486.5 465.7ZM462.9 189.6V188.3C471.1 192.5 479 197.3 486.5 202.6V213.3L462.9 189.6ZM436 343.7V377.1L412.4 353.5V320.1L436 343.7ZM412.3 282V248.6L435.9 272.2V305.6L412.3 282ZM436 415.2V448.6L412.4 425V391.6L436 415.2ZM436 486.6V520L412.4 496.4V463L436 486.6ZM436 234.2L412.4 210.6V177.2L436 200.8V234.2ZM430.1 552.2C424.3 553.9 418.3 555.4 412.3 556.6V534.4L430.1 552.2ZM462.9 513.5L479.2 529.8C473.9 533.2 468.5 536.3 462.9 539.1V513.5ZM513.4 492.6L518.1 497.3C516.6 499 515 500.6 513.4 502.2V492.6ZM513.4 454.5V421.1L537 444.7V473.2C536.3 474.2 535.7 475.1 535 476.1L513.4 454.5ZM566.5 402.8C565.7 406.6 564.9 410.3 563.9 414V400.2L566.5 402.8ZM537 254.1V263.8L513.4 240.2V225.3C522.1 234.1 530.1 243.8 537 254.1ZM385.5 167.3V183.7L368.7 167C370.3 167 372 166.9 373.6 166.9C377.6 166.9 381.5 167 385.5 167.3ZM214.9 479.9L233.9 498.9V502.2C227 495.2 220.7 487.8 214.9 479.9Z" fill="#FCDD7C"/>
<path d="M471.8 569.1C460.5 549.8 426.2 509.8 442 484.8C457.8 459.8 469.3 377.2 451.3 358.2C433.3 339.2 539.1 265.4 524.1 241C509.2 216.7 464.6 347.3 431 332.7C397.4 318.1 412.3 246.8 397.6 238.1C382.9 229.5 381.7 270.9 354.3 269.3C326.9 267.7 309 228.2 254.9 225.5C200.8 222.8 274.4 296.7 240 315.3C205.5 334 153.6 343.3 169.3 373.2C185 403.1 251.7 373.8 259.5 420.2C267.3 466.6 274.7 509.6 317 506.8C359.4 504.1 398 473.2 409.7 507.8C421.4 542.4 384.4 620.8 416.2 638C448.1 655.2 418.7 607.8 431.5 580.9C444.3 554.1 445.6 649.6 468.6 632.3C491.8 615.1 479.9 582.8 471.8 569.1Z" fill="#F6967D"/>
<path d="M515.9 239.4C519.1 242.8 522.2 246.4 525.2 250C525.9 246.6 525.7 243.6 524.2 241.1C522 237.5 519.2 237.3 515.9 239.4Z" fill="#E7685D"/>
<path d="M471.8 569.1C460.5 549.8 426.2 509.8 442 484.8C457.8 459.7 469.3 377.2 451.3 358.2C445.9 352.5 451.7 341.8 462 329.1V316.2C451.4 329 440.8 337 431.1 332.8C397.4 318.3 412.4 246.9 397.7 238.2C392.1 234.9 388.5 238.9 384.6 245V265.7L376.5 257.6C371.5 264.3 364.8 270 354.4 269.4C347.2 269 340.7 266 334.1 261.7V286.6L310.5 263V245C302.8 239.8 294 234.8 283.6 231.1V236.1L276.4 228.9C270 227.2 262.9 226 255.1 225.6C201 222.8 274.6 296.8 240.2 315.4C237.9 316.6 235.6 317.8 233.2 319V328.5L226.7 322C211.2 329 194.5 334.9 182.6 342.1V349.4L178.2 345V344.9C167.9 352.3 163 361 169.4 373.2C171.1 376.4 173.4 379 176.1 381L176.2 381.1C187.8 389.5 207.3 388.8 224.7 391.5L209.4 376.2V342.8L233 366.4V393.1C246.1 396.4 256.7 403.3 259.6 420.2C259.7 420.8 259.8 421.5 259.9 422.1V393.3L283.5 416.9V450.3L260.8 427.6C264 446.6 267.6 464.6 273.8 478.6L283.5 488.3V494.2C291.3 502.9 302 507.8 317.1 506.8C332.6 505.8 347.6 501.1 360.9 497.1V494.3L363.1 496.5C385.2 490 402.6 486.6 409.8 507.8C416.9 528.8 406.1 565.9 403.6 595.7C412.1 594.5 420.5 592.9 428.8 590.8C429.3 587.3 430.2 584 431.7 580.9C436.1 571.7 439.1 576.9 442.1 586.9C453.2 583.3 463.9 578.9 474.3 573.6C473.5 572.1 472.6 570.5 471.8 569.1ZM283.6 379L260 355.4V322L283.6 345.6V379ZM283.6 307.6L259.9 284V250.6L283.5 274.2V307.6H283.6ZM334.1 501L310.5 477.4V444L334.1 467.6V501ZM334.1 429.6L310.5 406V372.6L334.1 396.2V429.6ZM334.1 358.1L310.5 334.5V301.1L334.1 324.7V358.1ZM384.6 480.1L361 456.5V423L384.6 446.6V480.1ZM384.6 408.6L361 385V351.6L384.6 375.2V408.6ZM384.6 337.2L361 313.6V280.2L384.6 303.8V337.2ZM411.5 567.3V545L429.3 562.8C423.5 564.6 417.6 566.1 411.5 567.3ZM435.2 530.6L411.5 507V473.6L435.1 497.2V530.6H435.2ZM435.2 459.2L411.6 435.6V402.2L435.2 425.8V459.2ZM435.2 387.7L411.6 364.1V330.7L435.2 354.3V387.7Z" fill="#E7685D"/>
<path d="M512.6 242.1C505.2 249.3 495.9 265.1 485.7 281.6V295.3L480.4 290C475.4 298 470.2 305.8 464.9 312.6L470.9 318.6C488.4 298.9 511.8 276.5 521.3 259.5L512.5 250.7V242.1H512.6Z" fill="#E7685D"/>
<path d="M484.9 282.9V285.5L483.9 284.5C479 292.4 473.9 300.3 468.8 307.4L475.3 313.9C494.5 292.9 518.3 269.6 524.3 253.4L512.7 242C505.1 249.3 495.4 265.8 484.9 282.9Z" fill="#F7F8DB"/>
<path d="M442 484.8C457.8 459.7 469.3 377.2 451.3 358.2C446.1 352.6 451.4 342.4 461.2 330.1V317.2C450.9 329.4 440.6 336.9 431.1 332.8C397.4 318.3 412.4 246.9 397.7 238.2C391.7 234.7 388 239.5 383.8 246.3V255.9L380.2 252.3C374.7 261.1 367.6 270.2 354.5 269.5C347.1 269.1 340.3 265.8 333.4 261.3V276.9L309.8 253.3V244.5C296.1 235.3 279.2 226.9 255.2 225.6C201.1 222.8 274.7 296.8 240.3 315.4C205.8 334.1 153.9 343.4 169.6 373.3C171.2 376.4 173.4 378.9 176.1 380.9C175.8 377.7 175.6 374.5 175.5 371.3L181.9 377.7V384.3C206.8 395.3 253.4 382.1 259.8 420.4C262.4 436.2 265 451.5 269 464.8L282.9 478.7V493.4C289.5 501.2 298.1 506.1 309.8 507V505.6L311.2 507C313.1 507.1 315.2 507.1 317.3 506.9C332.5 505.9 347.2 501.3 360.3 497.4V484.6L370.3 494.6C389.1 489.6 403.6 488.9 410 507.9C412.6 515.6 412.8 525.4 411.9 536.3L428.6 553C422.8 554.7 416.8 556.2 410.8 557.4V546.4C409.1 559.2 406.5 572.9 404.9 585.8C414.2 584.4 423.4 582.5 432.4 580C434.8 575.4 436.9 575.4 438.7 578.1C449.4 574.8 459.9 570.6 469.9 565.7C456.9 545.6 427.1 508.5 442 484.8ZM232.2 390.2L208.6 366.6V333.2L232.2 356.8V390.2ZM282.8 440.7L259.2 417.1V383.7L282.8 407.3V440.7ZM282.8 369.3L259.2 345.7V312.3L282.8 335.9V369.3ZM282.8 297.8L259.2 274.2V240.8L282.8 264.4V297.8ZM333.3 491.3L309.7 467.7V434.3L333.3 457.9V491.3ZM333.3 419.8L309.7 396.2V362.8L333.3 386.4V419.8ZM333.3 348.3L309.7 324.7V291.3L333.3 314.9V348.3ZM383.8 470.3L360.2 446.7V413.3L383.8 436.9V470.3ZM383.8 398.9L360.2 375.3V341.9L383.8 365.5V398.9ZM383.8 327.4L360.2 303.8V270.4L383.8 294V327.4ZM434.3 520.8L410.7 497.2V463.8L434.3 487.4V520.8ZM434.3 449.4L410.7 425.8V392.4L434.3 416V449.4ZM434.3 377.9L410.7 354.3V320.9L434.3 344.5V377.9Z" fill="#F7F8DB"/>
<path d="M486.5 280.3V284.8L484.8 283.1C479.9 290.9 474.9 298.9 469.8 306.1L476.4 312.7C496.1 291.3 520.1 267.5 524.8 251.6L514 240.8C506.6 247.1 497 263.2 486.5 280.3Z" fill="#F15F5B"/>
<path d="M442 484.8C457.8 459.7 469.3 377.2 451.3 358.2C445.8 352.3 452 341.3 462.8 328.1V315.3C452 328.7 441 337.2 431 332.8C397.3 318.3 412.3 246.9 397.6 238.2C392.4 235.2 388.9 238.4 385.3 243.7V255.1L381 250.8C375.4 260 368.3 270.3 354.3 269.5C347.4 269.1 341.2 266.3 334.8 262.4V276.2L311.2 252.6V245.7C297.2 236.1 279.9 227 254.9 225.7C200.8 222.9 274.4 296.9 240 315.5C205.5 334.2 153.6 343.5 169.3 373.4C171.3 377.2 174.2 380.1 177.6 382.3C177.2 378.4 177 374.5 176.8 370.6L183.2 377V385.1C208.4 394.9 253.2 383 259.5 420.5C261.9 434.9 264.3 449 267.7 461.5L284.2 478V495.3C290.9 502.3 299.5 506.6 311.1 507.1V504.8L313.4 507.1C314.6 507.1 315.8 507.1 317 507C332.8 506 348.1 501.1 361.6 497.1V483.9L371.9 494.2C389.7 489.7 403.5 489.7 409.7 508C416 526.5 408.3 557.7 404.7 585.3C414.1 584 423.3 582.1 432.3 579.7C434.6 575.7 436.4 575.6 438.2 578C449 574.8 459.5 570.7 469.6 565.9C456.9 545.6 427.1 508.5 442 484.8ZM233.9 389.4L210.3 365.8V332.4L233.9 356V389.4ZM284.4 439.9L260.8 416.3V382.9L284.4 406.5V439.9ZM284.4 368.5L260.8 344.9V311.5L284.4 335.1V368.5ZM284.4 297L260.8 273.4V240L284.4 263.6V297ZM334.9 490.4L311.3 466.8V433.4L334.9 457V490.4ZM334.9 419L311.3 395.4V362L334.9 385.6V419ZM334.9 347.5L311.3 323.9V290.5L334.9 314.1V347.5ZM385.5 469.5L361.9 445.9V412.5L385.5 436.1V469.5ZM385.5 398.1L361.9 374.5V341L385.5 364.6V398.1ZM385.5 326.6L361.8 303V269.6L385.4 293.2V326.6H385.5ZM412.3 556.7V534.5L430.1 552.3C424.3 554 418.4 555.5 412.3 556.7ZM436 520L412.4 496.4V463L436 486.6V520ZM436 448.6L412.4 425V391.6L436 415.2V448.6ZM436 377.1L412.4 353.5V320.1L436 343.7V377.1Z" fill="#F15F5B"/>
<path d="M119.8 329C125.1 328.4 128.6 333.8 131.3 337.6C134.7 342.5 138.1 347.3 141.8 352C147.4 359 152.9 366.2 158.3 373.4C163 379.7 166.4 386.8 171.4 393C182.1 406.3 192.3 420.1 203.7 432.7C214.9 445.1 224.7 458.7 236.4 470.6C248.2 482.5 260.6 493.8 271.3 506.8C276.3 513 281.9 518.8 286 525.7C290.4 533 294.2 540.4 299.2 547.3C304.1 554 309 560.3 312.7 567.8C316.3 575.1 321.1 581.7 325.9 588.2C335.2 600.9 342.1 615.9 354.3 626.1C360.8 631.5 375.9 645.6 383.5 634.5C388.5 627.1 387 614.5 386.6 606C386.2 598.1 385.3 590.2 383.1 582.6C380.9 575 377 568.5 373 561.7C371.1 558.4 369.3 555.1 368.9 551.3C368.5 547.2 368.8 543.5 367.3 539.5C364.5 531.9 360.2 524.7 356.7 517.4C352.9 509.4 349.1 501.3 345.6 493.1C342.2 485.2 339.8 477 336.1 469.3C329.1 454.6 320.2 441.1 313.7 426.1C306.8 410.3 301.3 394 295.5 377.8C289.5 361.1 282.6 344.6 275.9 328.2C270.1 314.1 265.8 299.5 259.6 285.6C256.6 278.8 252.7 273.1 248.3 267.1C243.8 261 241.6 253.5 238.2 246.8C234.6 239.5 230.7 232.6 228.5 224.7C226.4 217 222.4 210.4 219.8 202.9C216.6 193.8 212 185.3 208.9 176.1C208.2 174 207.4 171.8 207.1 169.6C207.1 169.2 207.2 168.2 207 167.9C206.9 167.7 206.8 167.3 207.1 167.5C207.4 167.7 204.8 169.5 206.3 168.8C204.6 168.8 202.9 168.8 201.3 168.8C204.7 170.5 206.4 174 208.8 176.8C212.3 180.9 216.3 184.5 219.6 188.8C225.9 197 231.8 205.3 236.6 214.4C241.5 223.6 248.3 232 254.2 240.6C260 248.9 266.2 257 271.7 265.4C277 273.5 280.8 282.4 285.9 290.7C291.2 299.4 296.5 307.9 300.8 317.2C309.7 336.6 320 355.1 330.5 373.7C340.9 392.2 350.7 411 362.3 428.7C373.9 446.3 383.5 464.8 393.8 483.2C402.9 499.6 411.8 515.9 419.3 533C421.1 537.1 423.3 541.1 425.3 545.2C427.6 549.9 428.4 554.6 430.2 559.4C431.9 563.9 435.1 567.8 437.5 572C439.7 575.6 440.9 579.7 443.1 583.2C447.1 589.6 456 594.9 463.3 596.5C468.7 597.7 477.3 598.9 481.8 594.8C486.7 590.3 485.3 582.5 485 576.7C484.8 572.2 484.7 567.6 486 563.2C487.2 558.9 488.6 554.9 488.9 550.4C489.6 539.3 488.9 528 488.9 516.9C489 506.8 490.2 496.2 489.2 486.1C488.3 476.7 484 467.7 481.4 458.6C478.6 449 474.4 439.6 470.4 430.5C466.2 420.8 461.5 411.2 458 401.2C454.5 391 451.8 380.6 448.8 370.3C446 360.6 442.7 351.1 438.4 341.9C434.1 332.7 428.8 324 424.5 314.8C415.7 295.5 407 276.6 395.8 258.6C393.2 254.4 390.5 250.2 387.8 246.2C385.1 242.2 381.9 238.7 380.6 234C378 225.3 372.4 218.2 368.4 210C363.8 200.9 358.6 192.4 355.5 182.6C352.7 173.8 347.8 165.5 346.9 156.3C346.6 152.7 345.7 149.6 344.4 146.3C343.4 143.8 342.7 142.5 345.6 142.2C350.5 141.5 356.7 144.7 360.7 147.2C366.9 151.1 370.6 159.1 375.3 164.7C381.6 172.2 384.5 181.2 389.6 189.4C400.1 206.5 411.1 223.3 420.9 240.8C423 244.6 424.7 248.7 426.6 252.6C428.8 257 431.6 260.7 434.6 264.5C440.9 272.6 444.5 282.3 449.3 291.3C454.2 300.6 460.2 309.2 465.4 318.3C470.5 327.2 475.3 336.3 480.5 345.1C490.7 362.4 499.3 380.6 509.3 398.1C511.7 402.3 514 406.5 515.7 411C517.4 415.3 518.4 419.9 520.6 424C521.6 425.8 522.8 427.3 523.7 429.1C525 431.5 525.3 434.1 525.9 436.8C527 441.6 529.7 445.7 532.1 449.9C537.1 458.7 540 468.4 544 477.7C545.9 482.1 548.7 486.5 548.9 491.4C549.1 496.5 548 501.5 549.5 506.5C551.8 514.4 559.7 518.1 565.4 523.2C568.3 525.8 571.3 528.5 575 529.9C579.2 531.5 583.6 531.3 588 531.2C594.5 531 601 530.5 603.9 523.7C606.5 517.7 606.4 508.2 605.2 501.9C603.7 493.8 596.3 488.5 591.8 482.1C588.9 477.9 587 473.2 585.2 468.5C583.4 463.9 580.9 459.1 580.1 454.3C579.4 450.1 579.8 445.8 579.3 441.6C578.7 436 577.8 430.5 576.9 424.9C575.1 414 572.8 403.3 570.4 392.5C569.3 387.5 569 382.9 568.8 377.8C568.5 372.4 567.2 367.5 565.2 362.5C561.7 353.5 557.8 344.7 552.6 336.5C549.9 332.2 548.3 327.5 546.2 322.9C544.1 318.3 541.4 314.1 538.7 309.9C533.4 301.7 529 293.4 524.7 284.7C522.8 280.7 520.7 276.9 518 273.3C515.2 269.5 511.2 266.8 508.4 263C505.6 259.2 504.2 254.6 501.6 250.8C499.1 247.3 496 244.5 494.2 240.5C490 231.4 483.9 223.3 479.8 214.1C478 210.2 477.1 205.9 475.3 202C473 197.1 470.5 192.5 468.3 187.5C465.1 180 460.9 172.7 458.1 165C457.6 163.5 456.9 161.9 456.8 160.3C456.6 158.8 456.2 159.5 457 159.1C459.5 157.7 464.2 158.7 466.9 158.9C470.6 159.2 474.3 158.9 477.9 159.1C482.8 159.4 486.8 161.6 491.3 163.5C500.5 167.5 509.2 171.1 517.4 177C525.2 182.6 532.6 187.9 539.5 194.7C542.6 197.8 545.7 200.8 549.2 203.4C553.3 206.5 555.7 209.5 558.7 213.5C561.2 216.8 564.5 219.3 567.6 222.1C571.7 225.8 575 230.3 578.5 234.5C584.8 242.4 590 251.1 596.3 258.9C599.1 262.3 601.8 265.4 603.4 269.6C605.1 273.9 606 278.5 608 282.7C610 286.9 612.8 290.6 614.4 295C616.2 299.9 616.8 305.1 616.9 310.3C617.2 320.3 617.6 330.4 617.8 340.5C618 350.4 616 359.8 615.1 369.6C613.5 386.6 618.4 404.7 635.8 411.4C642.1 413.9 649.3 413.1 653.1 407C655.1 403.9 656.4 400.4 658.2 397.2C660.3 393.6 661.4 390.2 661 386C660.3 379.7 650.3 379.6 651 386C651.4 389.4 650.1 391.2 648.5 394C647.2 396.2 646.5 398.9 645.1 401C642.1 405.5 635.2 400.1 632.4 397.5C622.1 388 624.5 372.4 626.5 360C628.6 346.6 627.4 333.5 627.2 320C627.1 313 627.2 306.1 626 299.2C624.8 292.3 621.6 286.7 618.3 280.6C615.5 275.4 614.4 269.8 612.1 264.4C609.3 257.9 604.2 253.1 600.2 247.3C592.5 236.2 584.9 224 574.8 215C572.4 212.9 569.7 211 567.6 208.6C565.7 206.4 564.4 203.8 562.5 201.5C558.4 196.6 552.4 193.2 547.9 188.8C538.4 179.4 527.8 171.3 516.5 164.1C511.2 160.7 505.2 158.5 499.4 156C493.3 153.5 487.5 150 480.9 149.2C475.7 148.6 470.5 148.9 465.3 148.6C460.7 148.3 455.4 148.1 451.4 150.6C442.6 155.9 448.6 168.3 451.9 175.2C454.4 180.4 456.8 185.5 459.1 190.8C462 197.4 465.7 203.8 468.1 210.6C470.3 217 473.1 222.7 476.6 228.5C480.2 234.5 483.2 240.8 486.5 247C489.2 252 493.5 255.7 496.1 260.8C497.6 263.8 499 266.8 501.1 269.4C503.4 272.4 506.4 274.6 508.9 277.4C512.9 282.1 515.5 287.9 518.1 293.4C521 299.6 524.2 305.5 527.9 311.2C531.8 317.3 535.9 323.3 538.7 330C541.4 336.4 545 341.9 548.2 348C551.3 354 554 360.4 556.4 366.8C559.3 374.4 558.4 381.7 559.7 389.6C562.2 404.2 566.1 418.6 568.4 433.3C569.5 440.3 569.5 447.1 570.3 454.1C571.1 460.9 574.3 467.4 576.8 473.7C579.1 479.4 581.5 484.8 585.3 489.7C588.9 494.4 595.3 499.2 595.9 505.3C596.1 507.6 596 509.9 595.8 512.2C595.7 514.3 596.1 517.6 595.1 519.5C593.5 522.3 585.6 521.5 582.7 521.3C576 520.8 572 515 567 511.3C565.2 509.9 563.1 508.8 561.5 507.1C558.7 504.1 558.9 500.5 559 496.7C559.3 490.1 558.4 484.9 555.7 478.9C552.5 471.8 549.8 464.5 546.8 457.3C544.3 451.3 541.3 445.9 538.2 440.2C534.9 434.2 534.6 427.5 530.9 421.5C527.4 415.8 526 409.2 523.3 403.2C520.4 396.8 516.6 390.9 513.3 384.8C510.1 378.9 506.8 373 503.6 367.1C500 360.6 497.5 353.7 493.7 347.4C486.2 335.2 479.5 322.5 472.4 310.1C468.7 303.7 464.6 297.5 460.8 291.1C457.1 284.9 454.3 278.3 451 271.9C448.1 266.2 444.8 261.3 440.9 256.3C436.6 250.8 434.2 244.4 431 238.3C424.4 225.7 416.3 213.7 409.2 201.4C405.7 195.4 401.6 189.8 398 183.8C394.6 178 392.3 171.6 388.8 165.9C385.6 160.8 381.3 156.6 377.9 151.7C374.8 147.3 372 142.8 367.5 139.7C361.3 135.4 352.7 131.8 345.1 132.4C341.3 132.7 337.7 134.3 335.6 137.6C332.4 142.5 334.3 146.6 336.1 151.5C337.9 156.6 337.4 162.1 339.2 167.3C341.4 173.5 344.2 179.3 346.2 185.5C348.3 192 350.9 198.3 354.2 204.2C357.7 210.4 360.6 216.9 364.2 223.1C365.9 226 368.2 228.6 369.6 231.6C370.7 233.9 371.1 236.6 371.9 239C374.2 245.5 379.3 251.1 383 256.8C390.8 268.8 397.9 281.1 404.2 293.9C410.8 307.2 416.1 321.1 423.1 334.2C430.2 347.5 435.8 360.5 440 375C444 388.7 447.6 402.4 453.1 415.6C458.8 429.2 465.4 442.5 470.4 456.4C472.6 462.6 474 469 476.4 475.1C479.3 482.7 479.9 489.5 479.5 497.6C478.8 512.4 479 527.2 479.1 542C479.1 545.7 479.5 549.4 478.8 553C478.2 556.2 476.8 559.2 476.1 562.4C474.8 568.1 475.1 574.1 475.5 579.9C475.6 582 476.1 584.7 475.5 586.8C475.1 588 476.6 587 474.8 587.5C474.2 587.7 473.2 587.6 472.7 587.6C466.7 587.7 461.7 585.9 456.7 582.5C451.6 579 450.6 574.7 447.7 569.5C446 566.4 444 563.5 442.1 560.4C440.1 557.1 439.4 554 438.3 550.4C436.5 544 432.8 538.1 429.9 532.1C427.2 526.7 425.6 520.8 422.3 515.6C419.2 510.7 417.4 505.1 414.6 500C410.6 492.8 406.5 485.7 402.5 478.5C395.5 465.9 389.3 452.9 381.8 440.6C374.3 428.2 365.8 416.4 358.6 403.8C351.1 390.6 343.9 377.2 336.4 363.9C329.2 351.2 322.1 338.4 315.7 325.3C312.4 318.6 309.5 311.6 306 305C302.7 298.7 298.8 292.7 295.1 286.6C291.7 281 288.8 275.3 285.8 269.5C282.3 262.9 278 256.7 273.6 250.6C265.2 239 256.9 227.3 248.9 215.4C245.1 209.7 242.6 203.2 238.5 197.6C234.2 191.7 230 185.6 225.3 179.9C221.5 175.3 217.1 171.2 213.4 166.4C210.6 162.7 205.6 157.3 200.6 160.6C194.5 164.7 197.9 174.2 199.8 179.7C202.3 186.8 205.9 193.5 208.6 200.6C210.9 206.5 212.8 212.3 215.7 217.9C218.9 224.3 219.9 231.5 222.8 238C225.5 244.1 228.9 249.8 231.7 255.9C234.3 261.7 236.4 267.5 240.2 272.6C248.1 283.2 253 294.2 257.3 306.7C261.9 319.9 267.3 332.8 272.7 345.8C283.7 372.6 292.3 400.2 303.6 426.9C309.1 439.9 315.6 452.2 322.6 464.5C329.6 476.9 333.8 490.4 339.6 503.4C342.7 510.4 345.9 517.3 349.2 524.2C352.2 530.5 356.7 537 358.5 543.7C360.1 549.5 359.1 555 361.6 560.8C364.4 567.3 369 572.9 371.7 579.4C376.5 591.2 377.1 604 377.1 616.6C377.1 619.9 377.3 623.4 376.4 626.6C376.2 627.2 376.1 628.4 375.6 628.9C376.1 628.5 376.6 628.8 375.4 628.4C373.7 627.9 371.8 626.2 370.4 625.2C365.2 621.7 360.1 617.9 355.8 613.3C350.9 608 347.6 601.5 343.7 595.4C336.1 583.6 327 573.1 320.7 560.5C317.7 554.4 313.5 549.1 309.4 543.7C304.8 537.6 301 531.2 297.3 524.5C291 513.2 282.1 503.2 273.6 493.6C264.1 482.8 253.4 473.2 243.3 462.9C233.1 452.5 224.8 440.5 214.9 429.7C205.5 419.3 196.9 408.4 188.2 397.4C183.7 391.7 178.6 386.3 174.8 380C171.1 373.8 167.2 368.1 162.9 362.4C155.6 352.8 147.9 343.6 141.1 333.6C136.4 326.6 129.8 317.9 120.3 319C113.5 319.7 113.4 329.7 119.8 329Z" fill="#8F6C56"/>
<path d="M576.5 424.8C574.7 413.9 572.4 403.2 570 392.4C568.9 387.4 568.6 382.8 568.4 377.7C568.1 372.6 566.9 367.9 565.1 363.2L564 362.1V360.3C560.7 352 557 343.9 552.3 336.3C549.6 332 548 327.3 545.9 322.7C543.8 318.1 541.1 313.9 538.4 309.7C538 309 537.6 308.4 537.2 307.7V327.5C537.6 328.3 537.9 329.1 538.3 329.9C541 336.3 544.6 341.8 547.8 347.9C550.9 353.9 553.6 360.3 556 366.7C558.9 374.3 558 381.6 559.3 389.5C560.7 397.4 562.4 405.3 564.1 413.2V400.1L566.7 402.7C566 406.4 565.1 410 564.2 413.6C565.6 420.1 566.9 426.6 568 433.2C569.1 440.2 569.1 447 569.9 454C570.4 458 571.6 461.8 573.1 465.6C575.4 461 577.6 456.4 579.6 451.7C579.3 448.3 579.5 444.8 579.1 441.4C578.3 435.9 577.4 430.4 576.5 424.8Z" fill="#664F34"/>
<path d="M236.4 214.6C241.3 223.8 248.1 232.2 254 240.8C256.2 244 258.5 247.1 260.7 250.2V240L277.6 256.9C276.2 254.8 274.7 252.7 273.2 250.7C264.8 239.1 256.5 227.4 248.5 215.5C244.7 209.8 242.2 203.3 238.1 197.7C236.2 195.2 234.4 192.6 232.5 190C229.9 192.1 227.4 194.3 224.9 196.5C229.2 202.3 233.1 208.2 236.4 214.6Z" fill="#664F34"/>
<path d="M313.8 426.1C306.9 410.3 301.4 394 295.6 377.8C292.1 368.1 288.3 358.4 284.4 348.8V368.3L279.3 363.2C287.3 384.4 294.6 405.9 303.4 426.9C305.9 432.7 308.5 438.4 311.4 444V433.3L323.7 445.6C320.1 439.3 316.7 432.9 313.8 426.1Z" fill="#664F34"/>
<path d="M336.1 364C329.9 353 323.8 342 318.1 330.8L311.3 324V316.7C309.5 312.8 307.7 308.9 305.8 305.1C302.5 298.8 298.6 292.8 294.9 286.7C291.5 281.1 288.6 275.4 285.6 269.6C285.2 268.9 284.9 268.3 284.5 267.6V288.8C284.9 289.6 285.4 290.3 285.8 291.1C291.1 299.8 296.4 308.3 300.7 317.6C309.6 337 319.9 355.5 330.4 374.1C340.7 392.4 350.4 411 361.9 428.6V412.6L366.5 417.2C363.7 412.9 361 408.5 358.5 404C350.8 390.6 343.7 377.2 336.1 364Z" fill="#664F34"/>
<path d="M481.3 458.8C478.5 449.2 474.3 439.8 470.3 430.7C466.1 421 461.4 411.4 457.9 401.4C454.4 391.2 451.7 380.8 448.7 370.5C445.9 360.8 442.6 351.3 438.3 342.1C434 332.9 428.7 324.2 424.4 315C415.6 295.7 406.9 276.8 395.7 258.8C393.1 254.6 390.4 250.4 387.7 246.4C387 245.3 386.2 244.3 385.5 243.3V255.3L373.3 243C375.9 247.8 379.7 252.2 382.6 256.7C390.4 268.7 397.5 281 403.8 293.8C409.2 304.6 413.7 315.9 419 326.8L436 343.8V363.7C437.3 367.4 438.5 371.1 439.6 375C443.6 388.7 447.2 402.4 452.7 415.6C456.8 425.3 461.3 434.9 465.4 444.7L482 461.3C481.8 460.4 481.5 459.6 481.3 458.8Z" fill="#664F34"/>
<path d="M456.6 159C458.2 158.1 460.5 158.2 462.8 158.4C458.1 156.4 453.3 154.5 448.5 152.7C443.5 158.7 448.5 169.1 451.4 175.2C453.9 180.4 456.3 185.5 458.6 190.8C461.5 197.4 465.2 203.8 467.6 210.6C469.8 217 472.6 222.7 476.1 228.5C479.7 234.5 482.7 240.8 486 247C488.7 252 493 255.7 495.6 260.8C497.1 263.8 498.5 266.8 500.6 269.4C502.9 272.4 505.9 274.6 508.4 277.4C510.4 279.7 512 282.3 513.5 285.1V278.2L529 293.7C527.4 290.7 525.9 287.7 524.4 284.6C522.5 280.6 520.4 276.8 517.7 273.2C514.9 269.4 510.9 266.7 508.1 262.9C505.3 259.1 503.9 254.5 501.3 250.7C498.8 247.2 495.7 244.4 493.9 240.4C489.7 231.3 483.6 223.2 479.5 214C477.7 210.1 476.8 205.8 475 201.9C474.9 201.7 474.8 201.6 474.8 201.4L463 189.6V188.3C465.5 189.6 467.9 190.9 470.3 192.2C469.5 190.6 468.8 189 468.1 187.4C464.9 179.9 460.7 172.6 457.9 164.9C457.4 163.4 456.7 161.8 456.6 160.2C456.3 158.8 455.8 159.5 456.6 159Z" fill="#664F34"/>
<path d="M335.5 151.3C337.3 156.4 336.8 161.9 338.6 167.1C340.8 173.3 343.6 179.1 345.6 185.3C347.7 191.8 350.3 198.1 353.6 204C356.4 209.1 359 214.4 361.8 219.6V198.1L362.1 198.4C359.5 193.3 357 188.2 355.3 182.7C352.5 173.9 347.6 165.6 346.7 156.4C346.4 152.8 345.5 149.7 344.2 146.4C343.2 143.9 342.5 142.6 345.4 142.3C350.3 141.6 356.5 144.8 360.5 147.3C366.7 151.2 370.4 159.2 375.1 164.8C375.7 165.5 376.3 166.3 376.9 167.1C379.8 167.2 382.7 167.2 385.5 167.4V182.5C386.7 184.9 388 187.2 389.4 189.6C399.9 206.7 410.9 223.5 420.7 241C422.8 244.8 424.5 248.9 426.4 252.8C428.6 257.2 431.4 260.9 434.4 264.7C440.7 272.8 444.3 282.5 449.1 291.5C453.3 299.5 458.4 307 463 314.7V299.3L469.2 305.5C466.3 300.7 463.2 295.9 460.3 291.1C456.6 284.9 453.8 278.3 450.5 271.9C447.6 266.2 444.3 261.3 440.4 256.3C436.1 250.8 433.7 244.4 430.5 238.3C426.5 230.7 422 223.3 417.5 215.9L412.4 210.8V207.5C411.2 205.5 410 203.4 408.8 201.4C405.3 195.4 401.2 189.8 397.6 183.8C394.2 178 391.9 171.6 388.4 165.9C385.2 160.8 380.9 156.6 377.5 151.7C374.6 147.5 371.9 143.3 367.9 140.2C356.3 140.5 344.8 141.7 333.5 143.7C333.5 146.1 334.5 148.6 335.5 151.3Z" fill="#664F34"/>
<path d="M447.4 569.5C445.7 566.4 443.7 563.5 441.8 560.4C439.8 557.1 439.1 554 438 550.4C436.2 544 432.5 538.1 429.6 532.1C426.9 526.7 425.3 520.8 422 515.6C418.9 510.7 417.1 505.1 414.3 500C410.3 492.8 406.2 485.7 402.2 478.5C396.5 468.2 391.2 457.6 385.4 447.4V468.8C388.1 473.7 390.8 478.7 393.5 483.6C402.6 500 411.5 516.3 419 533.4C420.8 537.5 423 541.5 425 545.6C425.5 546.6 425.9 547.7 426.3 548.7L429.9 552.3C429.2 552.5 428.4 552.7 427.7 552.9C428.4 555.2 429 557.4 429.9 559.7C431.6 564.2 434.8 568.1 437.2 572.3C438.2 574 439 575.7 439.8 577.5C443.1 576.5 446.3 575.4 449.5 574.2C449 572.7 448.3 571.2 447.4 569.5Z" fill="#664F34"/>
<path d="M488.7 550.5C489.4 539.4 488.7 528.1 488.7 517C488.8 506.9 490 496.3 489 486.2C488.6 482.2 487.6 478.2 486.4 474.3V499L479.1 491.7C479.1 493.6 479.1 495.5 479 497.4C478.5 507.9 478.5 518.5 478.5 529.1L479 529.6C478.8 529.7 478.7 529.8 478.5 529.9C478.5 533.9 478.6 537.8 478.6 541.8C478.6 545.5 479 549.2 478.3 552.8C477.7 556 476.3 559 475.6 562.2C475.6 562.4 475.5 562.6 475.5 562.7C479.6 560.6 483.7 558.3 487.7 555.9C488.3 554.3 488.6 552.5 488.7 550.5Z" fill="#664F34"/>
<path d="M555.1 478.8C551.9 471.7 549.2 464.4 546.2 457.2C543.7 451.2 540.7 445.8 537.6 440.1C534.3 434.1 534 427.4 530.3 421.4C526.8 415.7 525.4 409.1 522.7 403.1C519.8 396.7 516 390.8 512.7 384.7C509.5 378.8 506.2 372.9 503 367C499.4 360.5 496.9 353.6 493.1 347.3C490.8 343.6 488.6 339.8 486.5 336V356.2L486.4 356.1C494 370 501.1 384.3 509 398.1C511.4 402.3 513.7 406.5 515.4 411C517.1 415.3 518.1 419.9 520.3 424C521.3 425.8 522.5 427.3 523.4 429.1C524 430.2 524.3 431.3 524.6 432.4L537 444.8V461C539.3 466.5 541.2 472.2 543.6 477.7C545.5 482.1 548.3 486.5 548.5 491.4C548.7 495.4 548 499.3 548.5 503.3C551.9 499.1 555.1 494.7 558.2 490.3C557.9 486.3 556.9 482.7 555.1 478.8Z" fill="#664F34"/>
<path d="M383.1 582.6C380.9 575 377 568.5 373 561.7C371.1 558.4 369.3 555.1 368.9 551.3C368.5 547.2 368.8 543.5 367.3 539.5C364.5 531.9 360.2 524.7 356.7 517.4C352.9 509.4 349.1 501.3 345.6 493.1C342.2 485.2 339.8 477 336.1 469.3C335.7 468.5 335.3 467.6 334.8 466.8V490.5L333.2 488.9C335.1 493.8 337.1 498.7 339.2 503.5C342.3 510.5 345.5 517.4 348.8 524.3C351.8 530.6 356.3 537.1 358.1 543.8C359.7 549.6 358.7 555.1 361.2 560.9C364 567.4 368.6 573 371.3 579.5C372.4 582.1 373.2 584.7 373.9 587.4C377.3 587.4 380.7 587.3 384.1 587.2C383.9 585.6 383.5 584.1 383.1 582.6ZM361.8 560.1V555.3L366.8 560.3C365.2 560.3 363.5 560.2 361.8 560.1Z" fill="#664F34"/>
<path d="M222.6 238.1C225.3 244.2 228.7 249.9 231.5 256C234.1 261.8 236.2 267.6 240 272.7C247.9 283.3 252.8 294.3 257.1 306.8C258.3 310.2 259.5 313.5 260.8 316.8V311.4L274.8 325.4C269.6 312.2 265.4 298.6 259.6 285.6C256.6 278.8 252.7 273.1 248.3 267.1C243.8 261 241.6 253.5 238.2 246.8C236.8 243.9 235.3 241 233.9 238.1V246.4L223.8 236.3C225.8 233.9 227.9 231.6 230.1 229.3C229.6 227.8 229 226.3 228.6 224.7C226.5 217 222.5 210.4 219.9 202.9C219.8 202.5 219.6 202.1 219.4 201.7C218.1 203 216.8 204.2 215.5 205.5C214.2 206.8 213 208 211.8 209.3C212.9 212.2 214.2 215.1 215.6 217.9C218.7 224.4 219.7 231.5 222.6 238.1Z" fill="#664F34"/>
<path d="M158.4 373.5C163.1 379.8 166.5 386.9 171.5 393.1C174.8 397.2 178.1 401.4 181.4 405.6C180 399 178.8 392.2 178.1 385.3C176.8 383.6 175.6 381.8 174.4 380C170.7 373.8 166.8 368.1 162.5 362.4C158.6 357.2 154.6 352.2 150.6 347.1C150.2 352.2 150 357.3 150 362.4C152.8 366 155.6 369.7 158.4 373.5Z" fill="#664F34"/>
<path d="M320.3 560.6C317.3 554.5 313.1 549.2 309 543.8C304.4 537.7 300.6 531.3 296.9 524.6C293.4 518.3 289 512.4 284.4 506.7V511.4L260.8 487.8V480.7C254.9 474.8 248.8 469 242.9 463C239.8 459.8 236.8 456.4 233.9 453V461L210.3 437.4V425.1C202.5 416.2 195.2 406.9 187.9 397.6C186.5 395.8 184.9 394 183.4 392.2V408.4C190 416.8 196.6 425.1 203.8 433C215 445.4 224.8 459 236.5 470.9C248.3 482.8 260.7 494.1 271.4 507.1C276.4 513.3 282 519.1 286.1 526C290.5 533.3 294.3 540.7 299.3 547.6C304.2 554.3 309.1 560.6 312.8 568.1C315.1 572.8 317.9 577.2 320.9 581.4C325.7 582.6 330.6 583.6 335.5 584.4C330 576.6 324.5 569.1 320.3 560.6Z" fill="#664F34"/>
<path d="M181.3 351.7C227.802 351.7 265.5 314.002 265.5 267.5C265.5 220.998 227.802 183.3 181.3 183.3C134.798 183.3 97.1 220.998 97.1 267.5C97.1 314.002 134.798 351.7 181.3 351.7Z" fill="#ECF5E4"/>
<path d="M233.3 201.3C243.7 215.3 249.9 232.7 249.9 251.5C249.9 298 212.2 335.7 165.7 335.7C146.1 335.7 128.1 329 113.8 317.8C129.1 338.4 153.7 351.8 181.4 351.8C227.9 351.8 265.6 314.1 265.6 267.6C265.5 240.6 252.9 216.7 233.3 201.3Z" fill="#F4E3B3"/>
<path d="M283.8 205.2L283.4 200.2C265.2 201.8 249.3 211.6 237.4 228.5C235.4 231.4 233.6 234.3 232.1 237C229.9 236.3 227.5 235.9 225 235.9C212.3 235.9 202.1 246.2 202.1 258.8C202.1 271.5 212.4 281.7 225 281.7C237.6 281.7 247.9 271.4 247.9 258.8C247.9 250.4 243.4 243 236.6 239C244.4 225.4 259.1 207.4 283.8 205.2Z" fill="#ED1C24"/>
<path d="M218.6 251.4C222.356 251.4 225.4 248.356 225.4 244.6C225.4 240.844 222.356 237.8 218.6 237.8C214.844 237.8 211.8 240.844 211.8 244.6C211.8 248.356 214.844 251.4 218.6 251.4Z" fill="#F15F5B"/>
<path d="M188 498C228.317 498 261 465.317 261 425C261 384.683 228.317 352 188 352C147.683 352 115 384.683 115 425C115 465.317 147.683 498 188 498Z" fill="#EE9CB0"/>
<path d="M201.8 465C242.117 465 274.8 432.317 274.8 392C274.8 351.683 242.117 319 201.8 319C161.483 319 128.8 351.683 128.8 392C128.8 432.317 161.483 465 201.8 465Z" fill="#FEDFC0"/>
<path d="M79 299.1C79 299.1 83 350.3 136.4 350.9C136.4 351 121.3 305 79 299.1Z" fill="#00A651"/>
<path d="M62.1 355.6C62.1 355.6 103 386.7 139 347.2C139 347.3 94.6 328 62.1 355.6Z" fill="#00AF64"/>
<path d="M406.4 653.6C409.217 653.6 411.5 648.227 411.5 641.6C411.5 634.973 409.217 629.6 406.4 629.6C403.583 629.6 401.3 634.973 401.3 641.6C401.3 648.227 403.583 653.6 406.4 653.6Z" fill="#49361F"/>
<path d="M261.733 609.151C267.634 606.134 271.378 601.655 270.096 599.147C268.814 596.639 262.991 597.052 257.09 600.069C251.189 603.085 247.445 607.564 248.727 610.072C250.009 612.58 255.832 612.167 261.733 609.151Z" fill="#49361F"/>
<path d="M277.108 537.671C283.009 534.654 286.753 530.175 285.471 527.667C284.189 525.159 278.366 525.572 272.465 528.589C266.563 531.606 262.819 536.084 264.101 538.592C265.383 541.1 271.207 540.688 277.108 537.671Z" fill="#49361F"/>
<path d="M303.703 429.588C309.604 426.572 313.348 422.093 312.066 419.585C310.784 417.077 304.961 417.49 299.06 420.506C293.159 423.523 289.415 428.002 290.697 430.51C291.979 433.018 297.802 432.605 303.703 429.588Z" fill="#49361F"/>
<path d="M244.783 597.159C248.635 591.766 249.899 586.067 247.607 584.43C245.315 582.792 240.334 585.838 236.482 591.231C232.63 596.624 231.366 602.324 233.658 603.961C235.95 605.598 240.931 602.553 244.783 597.159Z" fill="#49361F"/>
<path d="M296.089 448.68C299.941 443.287 301.206 437.588 298.913 435.951C296.621 434.313 291.64 437.359 287.789 442.752C283.937 448.145 282.672 453.845 284.965 455.482C287.257 457.119 292.237 454.074 296.089 448.68Z" fill="#49361F"/>
<path d="M448.151 639.181C450.405 637.492 449.013 631.823 445.04 626.518C441.068 621.213 436.02 618.28 433.765 619.969C431.51 621.657 432.903 627.327 436.875 632.632C440.848 637.937 445.896 640.869 448.151 639.181Z" fill="#49361F"/>
<path d="M337.462 642.73C339.717 641.041 338.324 635.372 334.352 630.067C330.38 624.761 325.331 621.829 323.077 623.518C320.822 625.206 322.214 630.875 326.187 636.18C330.159 641.486 335.208 644.418 337.462 642.73Z" fill="#49361F"/>
<path d="M353.328 467.313C355.582 465.624 354.19 459.955 350.217 454.65C346.245 449.345 341.197 446.412 338.942 448.101C336.687 449.789 338.08 455.458 342.052 460.764C346.025 466.069 351.073 469.001 353.328 467.313Z" fill="#49361F"/>
<path d="M373.6 410.8C376.417 410.8 378.7 405.427 378.7 398.8C378.7 392.173 376.417 386.8 373.6 386.8C370.783 386.8 368.5 392.173 368.5 398.8C368.5 405.427 370.783 410.8 373.6 410.8Z" fill="#49361F"/>
<path d="M411.5 457.7C414.317 457.7 416.6 452.327 416.6 445.7C416.6 439.073 414.317 433.7 411.5 433.7C408.683 433.7 406.4 439.073 406.4 445.7C406.4 452.327 408.683 457.7 411.5 457.7Z" fill="#49361F"/>
<path d="M215.305 509.161C221.206 506.144 224.951 501.665 223.668 499.157C222.386 496.65 216.563 497.062 210.662 500.079C204.761 503.096 201.017 507.574 202.299 510.082C203.581 512.59 209.404 512.178 215.305 509.161Z" fill="#49361F"/>
<path d="M198.412 497.256C202.263 491.863 203.528 486.164 201.236 484.527C198.943 482.89 193.963 485.935 190.111 491.328C186.259 496.722 184.995 502.421 187.287 504.058C189.579 505.695 194.56 502.65 198.412 497.256Z" fill="#49361F"/>
<path d="M401.709 539.2C403.964 537.512 402.571 531.843 398.599 526.537C394.626 521.232 389.578 518.3 387.323 519.988C385.069 521.677 386.461 527.346 390.434 532.651C394.406 537.956 399.454 540.889 401.709 539.2Z" fill="#49361F"/>
<path d="M468.058 629.128C470.313 627.44 468.921 621.77 464.948 616.465C460.976 611.16 455.927 608.228 453.673 609.916C451.418 611.604 452.81 617.274 456.783 622.579C460.755 627.884 465.804 630.816 468.058 629.128Z" fill="#49361F"/>
<path d="M456.5 156.9C459.317 156.9 461.6 151.527 461.6 144.9C461.6 138.273 459.317 132.9 456.5 132.9C453.683 132.9 451.4 138.273 451.4 144.9C451.4 151.527 453.683 156.9 456.5 156.9Z" fill="#49361F"/>
<path d="M312.6 112.4C306.7 115.4 300.9 115.8 299.6 113.3C298.3 110.8 302 106.3 307.9 103.3C313.8 100.3 319.6 99.9 320.9 102.4C322.2 104.9 318.4 109.4 312.6 112.4Z" fill="#49361F"/>
<path d="M295.7 100.5C291.9 105.9 286.9 108.9 284.6 107.3C282.3 105.7 283.6 99.9 287.4 94.6C291.2 89.3 296.2 86.2 298.5 87.8C300.8 89.4 299.5 95.1 295.7 100.5Z" fill="#49361F"/>
<path d="M495 129.8C499 135.1 500.3 140.8 498.1 142.5C495.8 144.2 490.8 141.3 486.9 136C482.9 130.7 481.6 125 483.8 123.3C486 121.6 491 124.5 495 129.8Z" fill="#49361F"/>
<path d="M384.8 133.3C388.8 138.6 390.1 144.3 387.9 146C385.6 147.7 380.6 144.8 376.7 139.5C372.7 134.2 371.4 128.5 373.6 126.8C375.8 125.1 380.9 128 384.8 133.3Z" fill="#49361F"/>
<path d="M514.8 119.7C518.8 125 520.1 130.7 517.9 132.4C515.6 134.1 510.6 131.2 506.7 125.9C502.8 120.6 501.4 114.9 503.6 113.2C505.9 111.5 510.9 114.4 514.8 119.7Z" fill="#49361F"/>
<path d="M291.021 542.749C293.276 541.061 291.883 535.391 287.911 530.086C283.938 524.781 278.89 521.849 276.635 523.537C274.38 525.225 275.773 530.895 279.745 536.2C283.718 541.505 288.766 544.437 291.021 542.749Z" fill="#49361F"/>
<path d="M176.5 447.3C167.8 447.3 159.3 446.3 151.2 444.5C164.3 457.1 182.1 464.9 201.8 464.9C242.1 464.9 274.8 432.2 274.8 391.9C274.8 389.1 274.6 386.3 274.3 383.6C261 420.6 222.3 447.3 176.5 447.3Z" fill="#EFCEB2"/>
<path d="M798.8 137.4L799.9 137.3C805.1 134.3 811.2 132.6 817.6 132.6H872.5L927.3 129C933.7 128.6 939.9 129.9 945.3 132.6H946.4C966.1 132.6 982 148.6 982 168.2V421L998.4 673.2C999.7 692.8 984.8 709.8 965.1 711.1L964 711.2C958.8 714.2 952.7 715.9 946.3 715.9H891.4L836.6 719.5C830.2 719.9 824 718.6 818.6 715.9H817.5C797.8 715.9 781.9 699.9 781.9 680.3V427.5L765.5 175.3C764.3 155.7 779.2 138.7 798.8 137.4Z" fill="#7895A4"/>
<path d="M826.4 696H955.1C974.8 696 990.7 680 990.7 660.4V148.4C990.7 128.7 974.7 112.8 955.1 112.8H826.4C806.7 112.8 790.8 128.8 790.8 148.4V660.4C790.7 680 806.7 696 826.4 696Z" fill="#CECAA6"/>
<path d="M845.4 699.6L973.8 691.3C993.4 690 1008.3 673.1 1007.1 653.4L973.9 142.5C972.6 122.9 955.7 108 936 109.2L807.6 117.5C788 118.8 773.1 135.7 774.3 155.4L807.5 666.3C808.8 685.9 825.8 700.8 845.4 699.6Z" fill="#FAF8D2"/>
<path d="M1002.7 585.1L783.8 301.3L779 226.4L997 498.2L1002.7 585.1Z" fill="#E8E5BF"/>
<path d="M851 207.9H855.2V268.3C855.2 271.2 857.4 273.6 860.1 273.6C862.8 273.6 865 271.2 865 268.3V207.9H869.7V268.3C869.7 271.2 871.9 273.6 874.6 273.6C877.3 273.6 879.5 271.2 879.5 268.3V207.9H884.2V268.3C884.2 271.2 886.4 273.6 889.1 273.6C891.8 273.6 894 271.2 894 268.3V207.9H898.7V268.3C898.7 271.2 900.9 273.6 903.6 273.6C906.3 273.6 908.5 271.2 908.5 268.3V207.9H912.7V321.5L889.8 334.7L896.7 533.1C896.9 538.4 890.3 542.8 882 542.8H881.3C873.2 542.8 866.6 538.5 866.8 533.3L873.7 334.8L850.8 321.6V207.9H851Z" fill="#CECAA6"/>
<path d="M857.5 201.6H861.7V262C861.7 264.9 863.9 267.3 866.6 267.3C869.3 267.3 871.5 264.9 871.5 262V201.6H876.2V262C876.2 264.9 878.4 267.3 881.1 267.3C883.8 267.3 886 264.9 886 262V201.6H890.7V262C890.7 264.9 892.9 267.3 895.6 267.3C898.3 267.3 900.5 264.9 900.5 262V201.6H905.2V262C905.2 264.9 907.4 267.3 910.1 267.3C912.8 267.3 915 264.9 915 262V201.6H919.2V315.2L896.3 328.4L903.2 526.8C903.4 532.1 896.8 536.5 888.5 536.5H887.8C879.7 536.5 873.1 532.2 873.3 527L880.2 328.5L857.3 315.3V201.6H857.5Z" fill="#7D7E81"/>
<path d="M898.9 399.4L876.9 427.6L877.5 412.4L898.5 385.3L898.9 399.4Z" fill="#BEC0C2"/>
<path d="M873.6 523.4L875.6 465.1L900.2 435.6L901.9 485L873.6 523.4Z" fill="#BEC0C2"/>
<path d="M860.8 317L908.1 266.7C908.8 267.1 909.5 267.3 910.3 267.3C913 267.3 915.2 264.9 915.2 262V259.2L919.4 254.8V288.9L880.5 329.5V328.4L860.8 317Z" fill="#BEC0C2"/>
</svg>
