<svg id="Capa_1" enable-background="new 0 0 512 512" height="512" viewBox="0 0 512 512" width="512" xmlns="http://www.w3.org/2000/svg"><g><path d="m497 91c-8.284 0-15 6.716-15 15v5h-46c-8.284 0-15 6.716-15 15v25h-45v30h60c8.284 0 15-6.716 15-15v-25h31v5c0 8.284 6.716 15 15 15s15-6.716 15-15v-40c0-8.284-6.716-15-15-15z" fill="#ffc178"/><path d="m497 351c-8.284 0-15 6.716-15 15v5h-31v-25c0-8.284-6.716-15-15-15h-60v30h45v25c0 8.284 6.716 15 15 15h46v5c0 8.284 6.716 15 15 15s15-6.716 15-15v-40c0-8.284-6.716-15-15-15z" fill="#ffc178"/><path d="m471 226c0-8.284-6.716-15-15-15h-80v30h80c8.284 0 15-6.716 15-15z" fill="#ffc178"/><path d="m471 286c0-8.284-6.716-15-15-15h-80v30h80c8.284 0 15-6.716 15-15z" fill="#ffc178"/><g fill="#ffe278"><path d="m91 151v-25c0-8.284-6.716-15-15-15h-46v-5c0-8.284-6.716-15-15-15s-15 6.716-15 15v40c0 8.284 6.716 15 15 15s15-6.716 15-15v-5h31v25c0 8.284 6.716 15 15 15h60v-30z"/><path d="m61 346v25h-31v-5c0-8.284-6.716-15-15-15s-15 6.716-15 15v40c0 8.284 6.716 15 15 15s15-6.716 15-15v-5h46c8.284 0 15-6.716 15-15v-25h45v-30h-60c-8.284 0-15 6.716-15 15z"/><path d="m41 226c0 8.284 6.716 15 15 15h80v-30h-80c-8.284 0-15 6.716-15 15z"/><path d="m41 286c0 8.284 6.716 15 15 15h80v-30h-80c-8.284 0-15 6.716-15 15z"/><path d="m166 61h-25v-31h5c8.284 0 15-6.716 15-15s-6.716-15-15-15h-40c-8.284 0-15 6.716-15 15s6.716 15 15 15h5v46c0 8.284 6.716 15 15 15h25v45h30v-60c0-8.284-6.716-15-15-15z"/></g><path d="m406 0h-40c-8.284 0-15 6.716-15 15s6.716 15 15 15h5v31h-25c-8.284 0-15 6.716-15 15v60h30v-45h25c8.284 0 15-6.716 15-15v-46h5c8.284 0 15-6.716 15-15s-6.716-15-15-15z" fill="#ffc178"/><path d="m226 41c-8.284 0-15 6.716-15 15v80h30v-80c0-8.284-6.716-15-15-15z" fill="#ffe278"/><path d="m286 41c-8.284 0-15 6.716-15 15v80h30v-80c0-8.284-6.716-15-15-15z" fill="#ffc178"/><path d="m151 421h-25c-8.284 0-15 6.716-15 15v46h-5c-8.284 0-15 6.716-15 15s6.716 15 15 15h40c8.284 0 15-6.716 15-15s-6.716-15-15-15h-5v-31h25c8.284 0 15-6.716 15-15v-60h-30z" fill="#ffe278"/><path d="m406 482h-5v-46c0-8.284-6.716-15-15-15h-25v-45h-30v60c0 8.284 6.716 15 15 15h25v31h-5c-8.284 0-15 6.716-15 15s6.716 15 15 15h40c8.284 0 15-6.716 15-15s-6.716-15-15-15z" fill="#ffc178"/><path d="m211 456c0 8.284 6.716 15 15 15s15-6.716 15-15v-80h-30z" fill="#ffe278"/><path d="m271 456c0 8.284 6.716 15 15 15s15-6.716 15-15v-80h-30z" fill="#ffc178"/><path d="m376 391h-240c-8.284 0-15-6.716-15-15v-240c0-8.284 6.716-15 15-15h240c8.284 0 15 6.716 15 15v240c0 8.284-6.716 15-15 15z" fill="#08475e"/><path d="m376 121h-120v270h120c8.284 0 15-6.716 15-15v-240c0-8.284-6.716-15-15-15z" fill="#05303d"/><path d="m151 151h210v210h-210z" fill="#0a617d"/><path d="m256 151h105v210h-105z" fill="#08475e"/><path d="m326 241h-22.302c-.888-2.819-2.028-5.526-3.379-8.106l15.785-15.785c5.858-5.858 5.858-15.355 0-21.213s-15.355-5.858-21.213 0l-15.785 15.785c-2.58-1.351-5.287-2.49-8.106-3.379v-22.302c0-8.284-6.716-15-15-15s-15 6.716-15 15v22.302c-2.819.888-5.526 2.028-8.106 3.379l-15.785-15.785c-5.858-5.858-15.355-5.858-21.213 0s-5.858 15.355 0 21.213l15.785 15.785c-1.351 2.58-2.491 5.287-3.379 8.106h-22.302c-8.284 0-15 6.716-15 15s6.716 15 15 15h22.302c.888 2.819 2.028 5.526 3.379 8.106l-15.785 15.785c-5.858 5.858-5.858 15.355 0 21.213s15.355 5.858 21.213 0l15.785-15.785c2.58 1.351 5.287 2.49 8.106 3.379v22.302c0 8.284 6.716 15 15 15s15-6.716 15-15v-22.302c2.819-.888 5.526-2.028 8.106-3.379l15.785 15.785c5.858 5.858 15.355 5.858 21.213 0s5.858-15.355 0-21.213l-15.785-15.785c1.351-2.58 2.49-5.287 3.379-8.106h22.302c8.284 0 15-6.716 15-15s-6.716-15-15-15zm-50 15c0 11.028-8.972 20-20 20s-20-8.972-20-20 8.972-20 20-20 20 8.972 20 20z" fill="#f1f4f6"/><path d="m326 241h-22.302c-.888-2.819-2.028-5.526-3.379-8.106l15.785-15.785c5.858-5.858 5.858-15.355 0-21.213s-15.355-5.858-21.213 0l-15.785 15.785c-2.58-1.351-5.287-2.49-8.106-3.379v-22.302c0-8.284-6.716-15-15-15v65c11.028 0 20 8.972 20 20s-8.972 20-20 20v65c8.284 0 15-6.716 15-15v-22.302c2.819-.888 5.526-2.028 8.106-3.379l15.785 15.785c5.858 5.858 15.355 5.858 21.213 0s5.858-15.355 0-21.213l-15.785-15.785c1.351-2.58 2.49-5.287 3.379-8.106h22.302c8.284 0 15-6.716 15-15s-6.716-15-15-15z" fill="#e2e2ea"/></g></svg>