<svg height="512px" viewBox="-2 0 511 512" width="512px" xmlns="http://www.w3.org/2000/svg">
    <g fill-rule="evenodd">
        <path d="m416.910156 267.996094 89.589844-45.777344c0-13.042969-6.46875-23.996094-16.359375-31.167969l-73.230469-54.835937-44.972656 65.875zm0 0"
              fill="#e6a235"/>
        <path d="m83.003906 264.367188 64.28125-57.347657-64.28125-70.804687-59.117187 48.375c-3.160157 2.59375-6.4375 5.164062-9.539063 7.789062-8.472656 7.203125-13.847656 17.917969-13.847656 29.839844zm0 0"
              fill="#e6a235"/>
        <path d="m349.4375 0h-248.628906c-9.804688 0-17.804688 8-17.804688 17.769531v294.207031l105.265625 53.777344 15.652344 7.996094c47.6875 23.464844 49.578125 25.355469 99.183594 0l14.234375-7.289062 99.570312-50.882813v-235.003906c0-4.1875 0-7.703125-.175781-10.742188zm0 0"
              fill="#eceff1"/>
        <path d="m9.269531 497.480469 137.484375-62.367188 41.519532-116.9375-105.269532-53.808593-82.503906-42.148438v250.613281c0 9.328125 3.277344 17.917969 8.769531 24.648438zm0 0"
              fill="#ffdda6"/>
        <path d="m317.339844 318.882812 32.894531 116.230469 146.523437 63.515625c6.050782-6.90625 9.742188-15.9375 9.742188-25.792968v-250.617188l-89.589844 45.777344zm0 0"
              fill="#ffdda6"/>
        <path d="m188.273438 318.175781-84.011719 84.144531-94.992188 95.160157c7.207031 8.851562 18.191407 14.519531 30.414063 14.519531h427.632812c11.691406 0 22.234375-5.195312 29.4375-13.371094l-179.414062-179.746094-14.230469 7.289063c-49.609375 25.355469-51.5 23.433594-99.1875 0zm0 0"
              fill="#fcc368"/>
        <path d="m83.003906 264.367188 105.269532 53.808593 15.648437 7.996094c47.6875 23.4375 49.578125 25.355469 99.1875 0l14.230469-7.289063 99.570312-50.882812v-42.121094l-99.570312 50.914063-14.230469 7.261719c-49.609375 25.355468-51.5 23.464843-99.1875 0l-15.648437-7.96875-105.269532-53.808594zm0 0"
              fill="#c4cccf"/>
        <path d="m466.605469 242.613281v190.226563c0 9.859375-3.691407 18.890625-9.773438 25.796875l39.921875 39.992187c6.054688-6.90625 9.746094-15.9375 9.746094-25.796875v-250.613281zm0 0"
              fill="#fcc368"/>
        <path d="m496.757812 498.628906-39.921874-39.992187c-5.789063 6.609375-13.761719 11.273437-22.769532 12.808593-2.15625.386719-4.398437.589844-6.640625.589844h-392.730469l-25.425781 25.445313c7.207031 8.851562 18.191407 14.519531 30.414063 14.519531h427.632812c11.691406 0 22.234375-5.195312 29.441406-13.371094zm0 0"
              fill="#e6a235"/>
        <path d="m.5 472.832031c0 9.328125 3.277344 17.917969 8.769531 24.644531l25.425781-25.441406h-34.195312zm0 0"
              fill="#fcc368"/>
        <path d="m349.378906 52.007812c0 9.796876 8.003906 17.824219 17.804688 17.824219h49.550781c-.589844-11.421875-3.128906-16.558593-13.96875-28.304687l-23.121094-25.117188c-11.75-12.78125-12.816406-16.410156-30.207031-16.410156zm0 0"
              fill="#90a4ae"/>
    </g>
    <path d="m341.96875 147.066406h-114.71875c-4.304688 0-7.789062-3.484375-7.789062-7.785156s3.484374-7.789062 7.789062-7.789062h114.71875c4.300781 0 7.789062 3.488281 7.789062 7.789062s-3.488281 7.785156-7.789062 7.785156zm0 0"
          fill="#35505c"/>
    <path d="m374.742188 115.105469h-147.492188c-4.304688 0-7.789062-3.488281-7.789062-7.789063 0-4.300781 3.484374-7.785156 7.789062-7.785156h147.492188c4.304687 0 7.789062 3.484375 7.789062 7.785156 0 4.300782-3.484375 7.789063-7.789062 7.789063zm0 0"
          fill="#35505c"/>
    <path d="m148.140625 148.277344c-1.921875 0-3.785156-.710938-5.222656-2.007813l-14.734375-13.308593c-3.191406-2.886719-3.441406-7.808594-.554688-11 2.882813-3.191407 7.808594-3.441407 11-.558594l8.9375 8.074218 30.507813-33.945312c2.878906-3.199219 7.804687-3.460938 11.003906-.589844 3.199219 2.875 3.460937 7.796875.585937 10.996094l-35.726562 39.757812c-1.382812 1.539063-3.324219 2.464844-5.390625 2.574219-.136719.007813-.269531.007813-.40625.007813zm0 0"
          fill="#8bc34a"/>
    <path d="m341.96875 219.941406h-114.71875c-4.304688 0-7.789062-3.484375-7.789062-7.785156s3.484374-7.789062 7.789062-7.789062h114.71875c4.300781 0 7.789062 3.488281 7.789062 7.789062s-3.488281 7.785156-7.789062 7.785156zm0 0"
          fill="#35505c"/>
    <path d="m374.742188 187.976562h-147.492188c-4.304688 0-7.789062-3.484374-7.789062-7.785156 0-4.300781 3.484374-7.789062 7.789062-7.789062h147.492188c4.304687 0 7.789062 3.488281 7.789062 7.789062 0 4.300782-3.484375 7.785156-7.789062 7.785156zm0 0"
          fill="#35505c"/>
    <path d="m148.140625 221.152344c-1.921875 0-3.78125-.710938-5.214844-2.003906l-14.734375-13.28125c-3.195312-2.878907-3.449218-7.804688-.570312-11 2.882812-3.191407 7.808594-3.445313 11.003906-.566407l8.9375 8.054688 30.515625-33.953125c2.875-3.195313 7.800781-3.460938 11-.585938 3.199219 2.871094 3.464844 7.796875.589844 10.996094l-35.730469 39.757812c-1.382812 1.535157-3.320312 2.460938-5.386719 2.570313-.136719.007813-.273437.011719-.410156.011719zm0 0"
          fill="#8bc34a"/>
</svg>
