<svg width="176" height="234" viewBox="0 0 176 234" fill="none" xmlns="http://www.w3.org/2000/svg">
<path d="M70 1.90001C37.6 8.80001 11.9 33.7 2.9 66.8C-0.100004 77.9 -0.800004 98 1.4 109.1C6.9 136.4 22.2 164.1 49.1 195.5C58 206 86.4 234 88 234C89.6 234 118 206 126.9 195.5C153.8 164.1 169.1 136.4 174.6 109.1C176.8 98 176.1 77.9 173.1 66.8C160.5 20.4 115.8 -7.69999 70 1.90001ZM107.1 24.9C127.9 31.5 143.5 46.9 150.8 67.9C153 74.4 153.4 77.2 153.4 87.5C153.4 100.6 152 107 146.9 117C143 124.7 141 127.4 134.5 134.1C127.7 141 121.4 145.2 111.9 149.1C87.9 158.9 59.8 152.9 41.5 134.1C35 127.4 33 124.7 29.1 117C24 107 22.6 100.6 22.6 87.5C22.6 77.2 23 74.4 25.3 67.9C33 45.5 49.4 30.1 72 24C81.8 21.4 97.4 21.8 107.1 24.9Z" fill="black"/>
<path d="M73.3 33.5C59.3 37.3 44.4 49.2 38.1 61.7C26.9 84 31 110.1 48.4 127.5C66 145.1 91 149 114 137.8C127.4 131.3 139.8 115.1 142.9 100.2C144.4 92.9 144.2 81.7 142.5 74.2C138 55.1 121.6 38.5 102.3 33.5C95.2 31.6 80.2 31.7 73.3 33.5ZM117 57.5V65H96C74.9 65 74.9 65 72.5 67.5C69.5 70.5 69.3 73.9 72.1 77.4L74.1 80H95.6H117V87.5V95H95.1C73.5 95 73.1 95 71.6 97.2C70.7 98.4 70 100.6 70 102C70 103.4 70.7 105.6 71.6 106.8C73.1 109 73.5 109 95.1 109H117V117V125H94.1C70.1 125 67 124.6 61.4 120.3C54.4 115.1 51.6 101.2 55.7 92C57.6 87.5 57.6 87.5 55.7 83C50.2 70.7 56.4 54.4 67.8 51C69.3 50.5 81 50.1 93.8 50.1L117 50V57.5Z" fill="black"/>
</svg>
