<svg width="1831" height="2586" viewBox="0 0 1831 2586" fill="none" xmlns="http://www.w3.org/2000/svg">
<path fill-rule="evenodd" clip-rule="evenodd" d="M690.084 1507.84L827.917 1760.2C832.803 1761.09 837.989 1761.95 842.948 1762.61C867.521 1766.24 892.385 1768.45 916.521 1768.45C940.719 1768.45 965.74 1766.24 990.24 1762.61C994.011 1762.09 997.751 1761.28 1001.6 1760.72L1139.31 1508.51C1131.76 1509.48 1123.92 1510.03 1115.32 1510.03C1056.11 1510.03 1024.61 1485.49 993.417 1460.81C972.177 1444.41 951.011 1427.79 916.74 1427.79C882.469 1427.79 861.375 1444.41 840.136 1460.81C808.969 1485.49 777.417 1510.03 718.229 1510.03C708.031 1510.03 698.812 1509.28 690.084 1507.84ZM855.636 1810.91L914.855 1919.41L973.959 1811.17C954.708 1813.35 935.573 1814.76 916.521 1814.76C896.459 1814.76 875.959 1813.28 855.636 1810.91Z" fill="white"/>
<path fill-rule="evenodd" clip-rule="evenodd" d="M916.521 592.733H916.959C1077.5 592.8 1223.4 658.64 1329.09 764.373C1434.45 869.853 1499.96 1015.37 1500.22 1175.61V1176.51V1176.95C1500.07 1337.31 1434.42 1483.31 1328.57 1589.04C1262.63 1654.92 1180.79 1705.13 1089.68 1733.67L1172.61 1577.93C1201.78 1559.28 1228.91 1537.64 1253.29 1513.32C1339.56 1427.17 1393.11 1308 1393.23 1176.95V1176.51V1175.61C1393.04 1044.72 1339.42 925.8 1253.37 839.653C1167.29 753.427 1048.13 699.827 916.959 699.76H916.521H915.625C784.989 699.947 666.093 753.453 580.052 839.573H579.771C493.531 925.733 439.979 1044.91 439.885 1176.09V1176.51V1177.43C440.104 1308.19 493.531 1427.05 579.697 1513.28C601.948 1535.52 626.521 1555.44 652.792 1573.05L737.063 1731.52C648.355 1702.65 568.521 1653.15 503.969 1588.52C398.531 1483.01 333.073 1337.45 332.875 1177.43V1176.51V1176.09C333.021 1015.59 398.656 869.707 504.375 763.933L504.281 763.827C609.719 658.387 755.417 592.987 915.625 592.733" fill="white"/>
<path fill-rule="evenodd" clip-rule="evenodd" d="M195 306.36L439.167 202.693V369.68L195 306.36ZM474.751 417.973V378.933V187.56V158.733C474.751 149.773 481.375 142.227 490.292 141.08L624.188 124.093L916.521 0L1638.12 306.36L1239.08 409.867V340.4L1233.68 325.493C1220.43 309.76 1205.29 295.147 1188.98 281.853C1113.18 220.533 1011.26 191.187 911 192.12C810.593 193.187 710.875 224.72 639.708 284.747C625.041 297.107 611.396 310.947 599.24 326.014L594.063 340.4V409.867L510.292 388.147V418.014C518.489 423.707 523.907 433.12 523.907 443.84C523.907 455.387 517.563 465.387 508.292 470.853C513.104 473.187 517.751 476.64 521.917 481.147L532.719 583.147C521.615 591.987 507.667 597.28 492.437 597.28C477.188 597.28 463.312 591.987 452.156 583.147L462.959 481.147C467.125 476.64 471.729 473.187 476.541 470.853C467.271 465.387 461.031 455.387 461.031 443.84C461.031 433.08 466.531 423.64 474.751 417.973ZM642.021 609.28C825.031 514.427 1007.81 520.12 1191.13 609.28C1191.13 520.413 1191.13 436.147 1191.13 347.133C1058.93 190.413 763.093 197.813 642.021 347.133C642.021 421.2 642.021 535.213 642.021 609.28Z" fill="white"/>
<path fill-rule="evenodd" clip-rule="evenodd" d="M836.427 1378.24V684.92H675.281V1404.77C691.927 1416.43 709.792 1426.72 736.563 1426.72C767.521 1426.72 786.729 1412.69 805.896 1398.79C815.812 1391.71 825.552 1384.57 836.427 1378.24ZM1157.89 1368.91V649.053H996.751V1342.45C1007.56 1348.67 1017.41 1355.85 1027.25 1362.95C1046.42 1376.84 1065.58 1390.83 1096.68 1390.83C1123.4 1390.83 1141.2 1380.53 1157.89 1368.91Z" fill="white"/>
<path d="M94.4 2454.2C97.3333 2454.47 100.667 2454.73 104.4 2455C108.4 2455 113.067 2455 118.4 2455C149.6 2455 172.667 2447.13 187.6 2431.4C202.8 2415.67 210.4 2393.93 210.4 2366.2C210.4 2337.13 203.2 2315.13 188.8 2300.2C174.4 2285.27 151.6 2277.8 120.4 2277.8C116.133 2277.8 111.733 2277.93 107.2 2278.2C102.667 2278.2 98.4 2278.47 94.4 2279V2454.2ZM274.8 2366.2C274.8 2390.2 271.067 2411.13 263.6 2429C256.133 2446.87 245.467 2461.67 231.6 2473.4C218 2485.13 201.333 2493.93 181.6 2499.8C161.867 2505.67 139.733 2508.6 115.2 2508.6C104 2508.6 90.9333 2508.07 76 2507C61.0667 2506.2 46.4 2504.33 32 2501.4V2231.4C46.4 2228.73 61.3333 2227 76.8 2226.2C92.5333 2225.13 106 2224.6 117.2 2224.6C140.933 2224.6 162.4 2227.27 181.6 2232.6C201.067 2237.93 217.733 2246.33 231.6 2257.8C245.467 2269.27 256.133 2283.93 263.6 2301.8C271.067 2319.67 274.8 2341.13 274.8 2366.2ZM403.322 2463.4C409.189 2463.4 414.789 2463.27 420.122 2463C425.455 2462.73 429.722 2462.33 432.922 2461.8V2416.6C430.522 2416.07 426.922 2415.53 422.122 2415C417.322 2414.47 412.922 2414.2 408.922 2414.2C403.322 2414.2 397.989 2414.6 392.922 2415.4C388.122 2415.93 383.855 2417.13 380.122 2419C376.389 2420.87 373.455 2423.4 371.322 2426.6C369.189 2429.8 368.122 2433.8 368.122 2438.6C368.122 2447.93 371.189 2454.47 377.322 2458.2C383.722 2461.67 392.389 2463.4 403.322 2463.4ZM398.522 2289C416.122 2289 430.789 2291 442.522 2295C454.255 2299 463.589 2304.73 470.522 2312.2C477.722 2319.67 482.789 2328.73 485.722 2339.4C488.655 2350.07 490.122 2361.93 490.122 2375V2499C481.589 2500.87 469.722 2503 454.522 2505.4C439.322 2508.07 420.922 2509.4 399.322 2509.4C385.722 2509.4 373.322 2508.2 362.122 2505.8C351.189 2503.4 341.722 2499.53 333.722 2494.2C325.722 2488.6 319.589 2481.4 315.322 2472.6C311.055 2463.8 308.922 2453 308.922 2440.2C308.922 2427.93 311.322 2417.53 316.122 2409C321.189 2400.47 327.855 2393.67 336.122 2388.6C344.389 2383.53 353.855 2379.93 364.522 2377.8C375.189 2375.4 386.255 2374.2 397.722 2374.2C405.455 2374.2 412.255 2374.6 418.122 2375.4C424.255 2375.93 429.189 2376.73 432.922 2377.8V2372.2C432.922 2362.07 429.855 2353.93 423.722 2347.8C417.589 2341.67 406.922 2338.6 391.722 2338.6C381.589 2338.6 371.589 2339.4 361.722 2341C351.855 2342.33 343.322 2344.33 336.122 2347L328.522 2299C331.989 2297.93 336.255 2296.87 341.322 2295.8C346.655 2294.47 352.389 2293.4 358.522 2292.6C364.655 2291.53 371.055 2290.73 377.722 2290.2C384.655 2289.4 391.589 2289 398.522 2289ZM604.416 2462.2C615.349 2462.2 623.082 2461.13 627.616 2459C632.149 2456.87 634.416 2452.73 634.416 2446.6C634.416 2441.8 631.482 2437.67 625.616 2434.2C619.749 2430.47 610.816 2426.33 598.816 2421.8C589.482 2418.33 580.949 2414.73 573.216 2411C565.749 2407.27 559.349 2402.87 554.016 2397.8C548.682 2392.47 544.549 2386.2 541.616 2379C538.682 2371.8 537.216 2363.13 537.216 2353C537.216 2333.27 544.549 2317.67 559.216 2306.2C573.882 2294.73 594.016 2289 619.616 2289C632.416 2289 644.682 2290.2 656.416 2292.6C668.149 2294.73 677.482 2297.13 684.416 2299.8L674.016 2346.2C667.082 2343.8 659.482 2341.67 651.216 2339.8C643.216 2337.93 634.149 2337 624.016 2337C605.349 2337 596.016 2342.2 596.016 2352.6C596.016 2355 596.416 2357.13 597.216 2359C598.016 2360.87 599.616 2362.73 602.016 2364.6C604.416 2366.2 607.616 2368.07 611.616 2370.2C615.882 2372.07 621.216 2374.2 627.616 2376.6C640.682 2381.4 651.482 2386.2 660.016 2391C668.549 2395.53 675.216 2400.6 680.016 2406.2C685.082 2411.53 688.549 2417.53 690.416 2424.2C692.549 2430.87 693.616 2438.6 693.616 2447.4C693.616 2468.2 685.749 2483.93 670.016 2494.6C654.549 2505.27 632.549 2510.6 604.016 2510.6C585.349 2510.6 569.749 2509 557.216 2505.8C544.949 2502.6 536.416 2499.93 531.616 2497.8L541.616 2449.4C551.749 2453.4 562.149 2456.6 572.816 2459C583.482 2461.13 594.016 2462.2 604.416 2462.2ZM738.156 2505V2204.2L797.756 2194.6V2295.4C801.756 2294.07 806.823 2292.87 812.956 2291.8C819.356 2290.47 825.49 2289.8 831.356 2289.8C848.423 2289.8 862.556 2292.2 873.756 2297C885.223 2301.53 894.29 2308.07 900.956 2316.6C907.89 2325.13 912.69 2335.27 915.356 2347C918.29 2358.73 919.756 2371.8 919.756 2386.2V2505H860.156V2393.4C860.156 2374.2 857.623 2360.6 852.556 2352.6C847.756 2344.6 838.69 2340.6 825.356 2340.6C820.023 2340.6 814.956 2341.13 810.156 2342.2C805.623 2343 801.49 2343.93 797.756 2345V2505H738.156ZM1183.3 2227.8V2281H1099.7V2505H1037.3V2281H953.703V2227.8H1183.3ZM1179.33 2401.4C1179.33 2382.73 1182.13 2366.47 1187.73 2352.6C1193.59 2338.47 1201.19 2326.73 1210.53 2317.4C1219.86 2308.07 1230.53 2301 1242.53 2296.2C1254.79 2291.4 1267.33 2289 1280.13 2289C1309.99 2289 1333.59 2298.2 1350.93 2316.6C1368.26 2334.73 1376.93 2361.53 1376.93 2397C1376.93 2400.47 1376.79 2404.33 1376.53 2408.6C1376.26 2412.6 1375.99 2416.2 1375.73 2419.4H1240.53C1241.86 2431.67 1247.59 2441.4 1257.73 2448.6C1267.86 2455.8 1281.46 2459.4 1298.53 2459.4C1309.46 2459.4 1320.13 2458.47 1330.53 2456.6C1341.19 2454.47 1349.86 2451.93 1356.53 2449L1364.53 2497.4C1361.33 2499 1357.06 2500.6 1351.73 2502.2C1346.39 2503.8 1340.39 2505.13 1333.73 2506.2C1327.33 2507.53 1320.39 2508.6 1312.93 2509.4C1305.46 2510.2 1297.99 2510.6 1290.53 2510.6C1271.59 2510.6 1255.06 2507.8 1240.93 2502.2C1227.06 2496.6 1215.46 2489 1206.13 2479.4C1197.06 2469.53 1190.26 2457.93 1185.73 2444.6C1181.46 2431.27 1179.33 2416.87 1179.33 2401.4ZM1319.33 2378.6C1319.06 2373.53 1318.13 2368.6 1316.53 2363.8C1315.19 2359 1312.93 2354.73 1309.73 2351C1306.79 2347.27 1302.93 2344.2 1298.13 2341.8C1293.59 2339.4 1287.86 2338.2 1280.93 2338.2C1274.26 2338.2 1268.53 2339.4 1263.73 2341.8C1258.93 2343.93 1254.93 2346.87 1251.73 2350.6C1248.53 2354.33 1245.99 2358.73 1244.13 2363.8C1242.53 2368.6 1241.33 2373.53 1240.53 2378.6H1319.33ZM1412.92 2399.8C1412.92 2384.6 1415.32 2370.33 1420.12 2357C1425.19 2343.4 1432.39 2331.67 1441.72 2321.8C1451.06 2311.67 1462.39 2303.67 1475.72 2297.8C1489.06 2291.93 1504.26 2289 1521.32 2289C1532.52 2289 1542.79 2290.07 1552.12 2292.2C1561.46 2294.07 1570.52 2296.87 1579.32 2300.6L1566.92 2348.2C1561.32 2346.07 1555.19 2344.2 1548.52 2342.6C1541.86 2341 1534.39 2340.2 1526.12 2340.2C1508.52 2340.2 1495.32 2345.67 1486.52 2356.6C1477.99 2367.53 1473.72 2381.93 1473.72 2399.8C1473.72 2418.73 1477.72 2433.4 1485.72 2443.8C1493.99 2454.2 1508.26 2459.4 1528.52 2459.4C1535.72 2459.4 1543.46 2458.73 1551.72 2457.4C1559.99 2456.07 1567.59 2453.93 1574.52 2451L1582.92 2499.8C1575.99 2502.73 1567.32 2505.27 1556.92 2507.4C1546.52 2509.53 1535.06 2510.6 1522.52 2510.6C1503.32 2510.6 1486.79 2507.8 1472.92 2502.2C1459.06 2496.33 1447.59 2488.47 1438.52 2478.6C1429.72 2468.73 1423.19 2457.13 1418.92 2443.8C1414.92 2430.2 1412.92 2415.53 1412.92 2399.8ZM1622.92 2505V2204.2L1682.52 2194.6V2295.4C1686.52 2294.07 1691.59 2292.87 1697.72 2291.8C1704.12 2290.47 1710.26 2289.8 1716.12 2289.8C1733.19 2289.8 1747.32 2292.2 1758.52 2297C1769.99 2301.53 1779.06 2308.07 1785.72 2316.6C1792.66 2325.13 1797.46 2335.27 1800.12 2347C1803.06 2358.73 1804.52 2371.8 1804.52 2386.2V2505H1744.92V2393.4C1744.92 2374.2 1742.39 2360.6 1737.32 2352.6C1732.52 2344.6 1723.46 2340.6 1710.12 2340.6C1704.79 2340.6 1699.72 2341.13 1694.92 2342.2C1690.39 2343 1686.26 2343.93 1682.52 2345V2505H1622.92Z" fill="white"/>
</svg>
