<svg width="380" height="126" viewBox="0 0 380 126" fill="none" xmlns="http://www.w3.org/2000/svg">
<path d="M0.448725 86H21.3438C36.3909 86 46.707 76.9323 46.707 63.0023C46.707 49.0722 36.3909 40.0045 21.3438 40.0045H0.448725V86ZM11.0934 77.2609V48.7437H20.8182C29.9515 48.7437 35.931 54.1974 35.931 63.0023C35.931 71.8071 29.9515 77.2609 20.8182 77.2609H11.0934Z" fill="#232B79"/>
<path d="M68.2705 50.1235C62.6196 50.1235 56.903 51.6348 53.0263 54.3945L56.7059 61.5567C59.2685 59.5197 63.1453 58.2713 66.8906 58.2713C72.4101 58.2713 75.0384 60.8339 75.0384 65.2363H66.8906C56.1145 65.2363 51.7121 69.573 51.7121 75.8153C51.7121 81.9261 56.6402 86.5257 64.9194 86.5257C70.1103 86.5257 73.7899 84.8173 75.6955 81.5976V86H85.2888V65.8277C85.2888 55.1173 79.0466 50.1235 68.2705 50.1235ZM67.482 79.6263C63.8681 79.6263 61.6997 77.9179 61.6997 75.3553C61.6997 72.9898 63.211 71.2157 68.0077 71.2157H75.0384V74.8297C73.8557 78.0493 70.8988 79.6263 67.482 79.6263Z" fill="#232B79"/>
<path d="M106.459 86.5257C117.038 86.5257 123.149 81.8604 123.149 75.2896C123.149 61.3596 101.794 67.2076 101.794 61.1624C101.794 59.3226 103.765 57.877 108.365 57.877C111.584 57.877 115.067 58.5341 118.549 60.5054L121.966 53.2118C118.615 51.2406 113.227 50.1235 108.365 50.1235C98.0485 50.1235 92.0033 54.8545 92.0033 61.5567C92.0033 75.6839 113.358 69.7702 113.358 75.5525C113.358 77.5237 111.584 78.7721 106.853 78.7721C102.517 78.7721 97.7199 77.3923 94.5659 75.3553L91.1491 82.7146C94.4345 84.883 100.48 86.5257 106.459 86.5257Z" fill="#232B79"/>
<path d="M150.96 50.1235C146.426 50.1235 142.483 51.5691 139.724 54.3288V37.2448H129.473V86H139.724V68.5217C139.724 62.0166 143.272 58.9941 148.2 58.9941C152.734 58.9941 155.362 61.6224 155.362 67.339V86H165.613V65.762C165.613 54.9859 159.305 50.1235 150.96 50.1235Z" fill="#232B79"/>
<path d="M298.212 68.456C298.212 57.0886 290.196 50.1235 279.814 50.1235C269.038 50.1235 260.956 57.7456 260.956 68.3246C260.956 78.8378 268.906 86.5257 281.128 86.5257C287.502 86.5257 292.43 84.5544 295.715 80.8091L290.261 74.8954C287.83 77.1952 285.136 78.3122 281.391 78.3122C276.003 78.3122 272.257 75.6182 271.272 71.2157H298.015C298.081 70.3615 298.212 69.2445 298.212 68.456ZM279.879 57.877C284.479 57.877 287.83 60.7682 288.553 65.2363H271.14C271.863 60.7025 275.214 57.877 279.879 57.877Z" fill="#232B79"/>
<path d="M322.12 86.5257C329.545 86.5257 335.393 83.2403 337.956 77.5894L330.005 73.2527C328.1 76.6695 325.274 78.1151 322.055 78.1151C316.864 78.1151 312.79 74.5011 312.79 68.3246C312.79 62.1481 316.864 58.5341 322.055 58.5341C325.274 58.5341 328.1 60.0454 330.005 63.3965L337.956 59.1255C335.393 53.3432 329.545 50.1235 322.12 50.1235C310.621 50.1235 302.408 57.6799 302.408 68.3246C302.408 78.9693 310.621 86.5257 322.12 86.5257Z" fill="#232B79"/>
<path d="M365.088 50.1235C360.554 50.1235 356.611 51.5691 353.852 54.3288V37.2448H343.601V86H353.852V68.5217C353.852 62.0166 357.4 58.9941 362.328 58.9941C366.862 58.9941 369.49 61.6224 369.49 67.339V86H379.74V65.762C379.74 54.9859 373.433 50.1235 365.088 50.1235Z" fill="#232B79"/>
<path d="M181.267 13.7648V26.2408L215.839 36.1891L251.253 26.7437V14.6061" fill="#232B79"/>
<path d="M235.549 104.923L215.627 123.91L196.719 104.995L212.564 36.1581L220.499 36.1931" fill="#232B79"/>
<path d="M208.11 33.1664L216.571 44.5923L224.632 33.6073" fill="#232B79"/>
<path d="M259.131 14.0156L216.499 22.3675L173.869 13.5747L216.288 3.90961" fill="#0055A6"/>
<path d="M190.618 35.9342L191.492 20.5731L214.72 13.2444L214.279 11.8477L190.082 19.4743L189.115 36.5315C188.461 37.6734 188.02 39.8965 188.02 42.4473C188.02 46.1629 188.957 49.1774 190.106 49.1774C191.256 49.1774 192.184 46.1629 192.184 42.4473C192.185 39.3033 191.516 36.6703 190.618 35.9342Z" fill="#14BDEF"/>
<path d="M220.026 12.7644C220.026 13.6259 218.139 14.327 215.816 14.327C213.494 14.327 211.612 13.6259 211.612 12.7644C211.612 11.8975 213.494 11.1978 215.816 11.1978C218.137 11.1978 220.026 11.8975 220.026 12.7644Z" fill="#14BDEF"/>
<path d="M206.078 36.7013L207.96 39.271L194.129 102.436L181.157 90.4236V30.0589L206.078 36.7013Z" fill="#14BDEF"/>
<path d="M226.324 36.7013L224.443 39.271L238.274 102.436L251.246 90.4236V30.0589L226.324 36.7013Z" fill="#14BDEF"/>
<path d="M190.618 35.9342L191.492 20.5731L214.72 13.2444L214.279 11.8477L190.082 19.4743L189.115 36.5315C188.461 37.6734 188.02 39.8965 188.02 42.4473C188.02 46.1629 188.957 49.1774 190.106 49.1774C191.256 49.1774 192.184 46.1629 192.184 42.4473C192.185 39.3033 191.516 36.6703 190.618 35.9342Z" fill="white"/>
</svg>
