<svg width="2501" height="692" viewBox="0 0 2501 692" fill="none" xmlns="http://www.w3.org/2000/svg">
<path fill-rule="evenodd" clip-rule="evenodd" d="M178.394 543.321L228.059 634.254C229.82 634.575 231.689 634.883 233.475 635.123C242.33 636.43 251.289 637.227 259.986 637.227C268.705 637.227 277.721 636.43 286.549 635.123C287.908 634.936 289.255 634.643 290.644 634.441L340.264 543.561C337.543 543.912 334.717 544.109 331.62 544.109C310.286 544.109 298.935 535.268 287.694 526.375C280.041 520.466 272.414 514.475 260.065 514.475C247.716 514.475 240.115 520.466 232.462 526.375C221.232 535.268 209.863 544.109 188.535 544.109C184.861 544.109 181.539 543.839 178.394 543.321ZM238.047 652.525L259.386 691.623L280.682 652.621C273.746 653.404 266.851 653.913 259.986 653.913C252.757 653.913 245.37 653.38 238.047 652.525Z" fill="white"/>
<path fill-rule="evenodd" clip-rule="evenodd" d="M259.986 213.58H260.144C317.992 213.604 370.562 237.328 408.648 275.427C446.611 313.435 470.216 365.87 470.31 423.609V423.931V424.09C470.258 481.872 446.6 534.48 408.461 572.579C384.698 596.318 355.211 614.411 322.379 624.693L352.264 568.577C362.774 561.856 372.548 554.058 381.335 545.295C412.421 514.254 431.717 471.312 431.758 424.09V423.931V423.609C431.691 376.444 412.368 333.594 381.364 302.553C350.346 271.483 307.407 252.169 260.144 252.145H259.986H259.663C212.591 252.212 169.749 271.492 138.746 302.524H138.645C107.57 333.57 88.2732 376.512 88.2396 423.782V423.931V424.263C88.3184 471.379 107.57 514.211 138.618 545.281C146.636 553.294 155.49 560.472 164.956 566.819L195.322 623.919C163.357 613.518 134.591 595.679 111.331 572.392C73.3383 534.375 49.752 481.925 49.6804 424.263V423.931V423.782C49.7333 365.947 73.3834 313.382 111.477 275.268L111.443 275.23C149.436 237.237 201.935 213.671 259.663 213.58" fill="white"/>
<path fill-rule="evenodd" clip-rule="evenodd" d="M0 110.391L87.9807 73.0366V133.207L0 110.391ZM100.803 150.609V136.541V67.5836V57.1965C100.803 53.9679 103.189 51.2487 106.403 50.8355L154.649 44.7147L259.986 2.02482e-05L520 110.391L376.215 147.687V122.656L374.267 117.285C369.492 111.616 364.039 106.35 358.161 101.56C330.847 79.4649 294.123 68.8904 257.997 69.2267C221.817 69.6111 185.885 80.9735 160.242 102.603C154.957 107.057 150.04 112.044 145.66 117.473L143.794 122.656V147.687L113.609 139.861V150.623C116.563 152.674 118.515 156.066 118.515 159.929C118.515 164.09 116.229 167.693 112.889 169.663C114.623 170.504 116.297 171.748 117.798 173.372L121.69 210.126C117.689 213.311 112.663 215.218 107.176 215.218C101.681 215.218 96.681 213.311 92.6611 210.126L96.5536 173.372C98.055 171.748 99.714 170.504 101.448 169.663C98.1074 167.693 95.8589 164.09 95.8589 159.929C95.8589 156.052 97.8407 152.65 100.803 150.609V150.609ZM161.075 219.542C227.019 185.364 292.881 187.415 358.934 219.542C358.934 187.521 358.934 157.157 358.934 125.083C311.299 68.6117 204.701 71.2782 161.075 125.083C161.075 151.771 161.075 192.854 161.075 219.542" fill="white"/>
<path fill-rule="evenodd" clip-rule="evenodd" d="M231.125 496.622V246.798H173.06V506.183C179.058 510.382 185.495 514.091 195.141 514.091C206.297 514.091 213.218 509.036 220.124 504.025C223.697 501.474 227.207 498.904 231.125 496.622ZM346.957 493.259V233.874H288.895V483.727C292.791 485.966 296.338 488.555 299.885 491.111C306.791 496.117 313.698 501.157 324.902 501.157C334.529 501.157 340.943 497.448 346.957 493.259" fill="white"/>
<path d="M764.4 438.2C767.333 438.467 770.667 438.733 774.4 439C778.4 439 783.067 439 788.4 439C819.6 439 842.667 431.133 857.6 415.4C872.8 399.667 880.4 377.933 880.4 350.2C880.4 321.133 873.2 299.133 858.8 284.2C844.4 269.267 821.6 261.8 790.4 261.8C786.133 261.8 781.733 261.933 777.2 262.2C772.667 262.2 768.4 262.467 764.4 263V438.2ZM944.8 350.2C944.8 374.2 941.067 395.133 933.6 413C926.133 430.867 915.467 445.667 901.6 457.4C888 469.133 871.333 477.933 851.6 483.8C831.867 489.667 809.733 492.6 785.2 492.6C774 492.6 760.933 492.067 746 491C731.067 490.2 716.4 488.333 702 485.4V215.4C716.4 212.733 731.333 211 746.8 210.2C762.533 209.133 776 208.6 787.2 208.6C810.933 208.6 832.4 211.267 851.6 216.6C871.067 221.933 887.733 230.333 901.6 241.8C915.467 253.267 926.133 267.933 933.6 285.8C941.067 303.667 944.8 325.133 944.8 350.2ZM1073.32 447.4C1079.19 447.4 1084.79 447.267 1090.12 447C1095.46 446.733 1099.72 446.333 1102.92 445.8V400.6C1100.52 400.067 1096.92 399.533 1092.12 399C1087.32 398.467 1082.92 398.2 1078.92 398.2C1073.32 398.2 1067.99 398.6 1062.92 399.4C1058.12 399.933 1053.86 401.133 1050.12 403C1046.39 404.867 1043.46 407.4 1041.32 410.6C1039.19 413.8 1038.12 417.8 1038.12 422.6C1038.12 431.933 1041.19 438.467 1047.32 442.2C1053.72 445.667 1062.39 447.4 1073.32 447.4ZM1068.52 273C1086.12 273 1100.79 275 1112.52 279C1124.26 283 1133.59 288.733 1140.52 296.2C1147.72 303.667 1152.79 312.733 1155.72 323.4C1158.66 334.067 1160.12 345.933 1160.12 359V483C1151.59 484.867 1139.72 487 1124.52 489.4C1109.32 492.067 1090.92 493.4 1069.32 493.4C1055.72 493.4 1043.32 492.2 1032.12 489.8C1021.19 487.4 1011.72 483.533 1003.72 478.2C995.722 472.6 989.589 465.4 985.322 456.6C981.055 447.8 978.922 437 978.922 424.2C978.922 411.933 981.322 401.533 986.122 393C991.189 384.467 997.855 377.667 1006.12 372.6C1014.39 367.533 1023.86 363.933 1034.52 361.8C1045.19 359.4 1056.26 358.2 1067.72 358.2C1075.46 358.2 1082.26 358.6 1088.12 359.4C1094.26 359.933 1099.19 360.733 1102.92 361.8V356.2C1102.92 346.067 1099.86 337.933 1093.72 331.8C1087.59 325.667 1076.92 322.6 1061.72 322.6C1051.59 322.6 1041.59 323.4 1031.72 325C1021.86 326.333 1013.32 328.333 1006.12 331L998.522 283C1001.99 281.933 1006.26 280.867 1011.32 279.8C1016.66 278.467 1022.39 277.4 1028.52 276.6C1034.66 275.533 1041.06 274.733 1047.72 274.2C1054.66 273.4 1061.59 273 1068.52 273ZM1274.42 446.2C1285.35 446.2 1293.08 445.133 1297.62 443C1302.15 440.867 1304.42 436.733 1304.42 430.6C1304.42 425.8 1301.48 421.667 1295.62 418.2C1289.75 414.467 1280.82 410.333 1268.82 405.8C1259.48 402.333 1250.95 398.733 1243.22 395C1235.75 391.267 1229.35 386.867 1224.02 381.8C1218.68 376.467 1214.55 370.2 1211.62 363C1208.68 355.8 1207.22 347.133 1207.22 337C1207.22 317.267 1214.55 301.667 1229.22 290.2C1243.88 278.733 1264.02 273 1289.62 273C1302.42 273 1314.68 274.2 1326.42 276.6C1338.15 278.733 1347.48 281.133 1354.42 283.8L1344.02 330.2C1337.08 327.8 1329.48 325.667 1321.22 323.8C1313.22 321.933 1304.15 321 1294.02 321C1275.35 321 1266.02 326.2 1266.02 336.6C1266.02 339 1266.42 341.133 1267.22 343C1268.02 344.867 1269.62 346.733 1272.02 348.6C1274.42 350.2 1277.62 352.067 1281.62 354.2C1285.88 356.067 1291.22 358.2 1297.62 360.6C1310.68 365.4 1321.48 370.2 1330.02 375C1338.55 379.533 1345.22 384.6 1350.02 390.2C1355.08 395.533 1358.55 401.533 1360.42 408.2C1362.55 414.867 1363.62 422.6 1363.62 431.4C1363.62 452.2 1355.75 467.933 1340.02 478.6C1324.55 489.267 1302.55 494.6 1274.02 494.6C1255.35 494.6 1239.75 493 1227.22 489.8C1214.95 486.6 1206.42 483.933 1201.62 481.8L1211.62 433.4C1221.75 437.4 1232.15 440.6 1242.82 443C1253.48 445.133 1264.02 446.2 1274.42 446.2ZM1408.16 489V188.2L1467.76 178.6V279.4C1471.76 278.067 1476.82 276.867 1482.96 275.8C1489.36 274.467 1495.49 273.8 1501.36 273.8C1518.42 273.8 1532.56 276.2 1543.76 281C1555.22 285.533 1564.29 292.067 1570.96 300.6C1577.89 309.133 1582.69 319.267 1585.36 331C1588.29 342.733 1589.76 355.8 1589.76 370.2V489H1530.16V377.4C1530.16 358.2 1527.62 344.6 1522.56 336.6C1517.76 328.6 1508.69 324.6 1495.36 324.6C1490.02 324.6 1484.96 325.133 1480.16 326.2C1475.62 327 1471.49 327.933 1467.76 329V489H1408.16ZM1853.3 211.8V265H1769.7V489H1707.3V265H1623.7V211.8H1853.3ZM1849.33 385.4C1849.33 366.733 1852.13 350.467 1857.73 336.6C1863.59 322.467 1871.19 310.733 1880.53 301.4C1889.86 292.067 1900.53 285 1912.53 280.2C1924.79 275.4 1937.33 273 1950.13 273C1979.99 273 2003.59 282.2 2020.93 300.6C2038.26 318.733 2046.93 345.533 2046.93 381C2046.93 384.467 2046.79 388.333 2046.53 392.6C2046.26 396.6 2045.99 400.2 2045.73 403.4H1910.53C1911.86 415.667 1917.59 425.4 1927.73 432.6C1937.86 439.8 1951.46 443.4 1968.53 443.4C1979.46 443.4 1990.13 442.467 2000.53 440.6C2011.19 438.467 2019.86 435.933 2026.53 433L2034.53 481.4C2031.33 483 2027.06 484.6 2021.73 486.2C2016.39 487.8 2010.39 489.133 2003.73 490.2C1997.33 491.533 1990.39 492.6 1982.93 493.4C1975.46 494.2 1967.99 494.6 1960.53 494.6C1941.59 494.6 1925.06 491.8 1910.93 486.2C1897.06 480.6 1885.46 473 1876.13 463.4C1867.06 453.533 1860.26 441.933 1855.73 428.6C1851.46 415.267 1849.33 400.867 1849.33 385.4ZM1989.33 362.6C1989.06 357.533 1988.13 352.6 1986.53 347.8C1985.19 343 1982.93 338.733 1979.73 335C1976.79 331.267 1972.93 328.2 1968.13 325.8C1963.59 323.4 1957.86 322.2 1950.93 322.2C1944.26 322.2 1938.53 323.4 1933.73 325.8C1928.93 327.933 1924.93 330.867 1921.73 334.6C1918.53 338.333 1915.99 342.733 1914.13 347.8C1912.53 352.6 1911.33 357.533 1910.53 362.6H1989.33ZM2082.92 383.8C2082.92 368.6 2085.32 354.333 2090.12 341C2095.19 327.4 2102.39 315.667 2111.72 305.8C2121.06 295.667 2132.39 287.667 2145.72 281.8C2159.06 275.933 2174.26 273 2191.32 273C2202.52 273 2212.79 274.067 2222.12 276.2C2231.46 278.067 2240.52 280.867 2249.32 284.6L2236.92 332.2C2231.32 330.067 2225.19 328.2 2218.52 326.6C2211.86 325 2204.39 324.2 2196.12 324.2C2178.52 324.2 2165.32 329.667 2156.52 340.6C2147.99 351.533 2143.72 365.933 2143.72 383.8C2143.72 402.733 2147.72 417.4 2155.72 427.8C2163.99 438.2 2178.26 443.4 2198.52 443.4C2205.72 443.4 2213.46 442.733 2221.72 441.4C2229.99 440.067 2237.59 437.933 2244.52 435L2252.92 483.8C2245.99 486.733 2237.32 489.267 2226.92 491.4C2216.52 493.533 2205.06 494.6 2192.52 494.6C2173.32 494.6 2156.79 491.8 2142.92 486.2C2129.06 480.333 2117.59 472.467 2108.52 462.6C2099.72 452.733 2093.19 441.133 2088.92 427.8C2084.92 414.2 2082.92 399.533 2082.92 383.8ZM2292.92 489V188.2L2352.52 178.6V279.4C2356.52 278.067 2361.59 276.867 2367.72 275.8C2374.12 274.467 2380.26 273.8 2386.12 273.8C2403.19 273.8 2417.32 276.2 2428.52 281C2439.99 285.533 2449.06 292.067 2455.72 300.6C2462.66 309.133 2467.46 319.267 2470.12 331C2473.06 342.733 2474.52 355.8 2474.52 370.2V489H2414.92V377.4C2414.92 358.2 2412.39 344.6 2407.32 336.6C2402.52 328.6 2393.46 324.6 2380.12 324.6C2374.79 324.6 2369.72 325.133 2364.92 326.2C2360.39 327 2356.26 327.933 2352.52 329V489H2292.92Z" fill="white"/>
</svg>
