<svg width="87" height="121" viewBox="0 0 87 121" fill="none" xmlns="http://www.w3.org/2000/svg">
<path d="M8.2673 10.7648V23.2408L42.8387 33.1891L78.2526 23.7437V11.6061" fill="#232B79"/>
<path d="M62.549 101.923L42.627 120.91L23.7188 101.995L39.5639 33.1581L47.4993 33.1931" fill="#232B79"/>
<path d="M35.1096 30.1664L43.5707 41.5923L51.6315 30.6073" fill="#232B79"/>
<path d="M86.1314 11.0156L43.4993 19.3675L0.86853 10.5747L43.2876 0.909607" fill="#0055A6"/>
<path d="M17.6183 32.9342L18.4919 17.5731L41.7197 10.2444L41.2788 8.84772L17.0817 16.4743L16.1151 33.5315C15.4612 34.6734 15.0204 36.8965 15.0204 39.4473C15.0204 43.1629 15.9573 46.1774 17.106 46.1774C18.256 46.1774 19.1835 43.1629 19.1835 39.4473C19.1849 36.3033 18.5162 33.6703 17.6183 32.9342Z" fill="#14BDEF"/>
<path d="M47.0261 9.76441C47.0261 10.6259 45.1387 11.327 42.8157 11.327C40.4942 11.327 38.6121 10.6259 38.6121 9.76441C38.6121 8.89751 40.4942 8.19781 42.8157 8.19781C45.1373 8.19781 47.0261 8.89751 47.0261 9.76441Z" fill="#14BDEF"/>
<path d="M33.0779 33.7013L34.9599 36.271L21.129 99.436L8.1568 87.4236V27.0589L33.0779 33.7013Z" fill="#14BDEF"/>
<path d="M53.3235 33.7013L51.4427 36.271L65.2737 99.436L78.2459 87.4236V27.0589L53.3235 33.7013Z" fill="#14BDEF"/>
<path d="M17.6183 32.9342L18.4919 17.5731L41.7197 10.2444L41.2788 8.84772L17.0817 16.4743L16.1151 33.5315C15.4612 34.6734 15.0204 36.8965 15.0204 39.4473C15.0204 43.1629 15.9573 46.1774 17.106 46.1774C18.256 46.1774 19.1835 43.1629 19.1835 39.4473C19.1849 36.3033 18.5162 33.6703 17.6183 32.9342Z" fill="white"/>
</svg>
