<svg width="449" height="120" viewBox="0 0 449 120" fill="none" xmlns="http://www.w3.org/2000/svg">
<path d="M121.449 80H142.344C157.391 80 167.707 70.9323 167.707 57.0023C167.707 43.0722 157.391 34.0045 142.344 34.0045H121.449V80ZM132.093 71.2609V42.7437H141.818C150.952 42.7437 156.931 48.1974 156.931 57.0023C156.931 65.8071 150.952 71.2609 141.818 71.2609H132.093Z" fill="#232B79"/>
<path d="M189.27 44.1235C183.62 44.1235 177.903 45.6348 174.026 48.3945L177.706 55.5567C180.268 53.5197 184.145 52.2713 187.891 52.2713C193.41 52.2713 196.038 54.8339 196.038 59.2363H187.891C177.114 59.2363 172.712 63.573 172.712 69.8153C172.712 75.9261 177.64 80.5257 185.919 80.5257C191.11 80.5257 194.79 78.8173 196.695 75.5976V80H206.289V59.8277C206.289 49.1173 200.047 44.1235 189.27 44.1235ZM188.482 73.6263C184.868 73.6263 182.7 71.9179 182.7 69.3553C182.7 66.9898 184.211 65.2157 189.008 65.2157H196.038V68.8297C194.856 72.0493 191.899 73.6263 188.482 73.6263Z" fill="#232B79"/>
<path d="M227.459 80.5257C238.038 80.5257 244.149 75.8604 244.149 69.2896C244.149 55.3596 222.794 61.2076 222.794 55.1624C222.794 53.3226 224.765 51.877 229.365 51.877C232.584 51.877 236.067 52.5341 239.549 54.5054L242.966 47.2118C239.615 45.2406 234.227 44.1235 229.365 44.1235C219.049 44.1235 213.003 48.8545 213.003 55.5567C213.003 69.6839 234.358 63.7702 234.358 69.5525C234.358 71.5237 232.584 72.7721 227.853 72.7721C223.517 72.7721 218.72 71.3923 215.566 69.3553L212.149 76.7146C215.435 78.883 221.48 80.5257 227.459 80.5257Z" fill="#232B79"/>
<path d="M271.96 44.1235C267.426 44.1235 263.483 45.5691 260.724 48.3288V31.2448H250.473V80H260.724V62.5217C260.724 56.0166 264.272 52.9941 269.2 52.9941C273.734 52.9941 276.362 55.6224 276.362 61.339V80H286.613V59.762C286.613 48.9859 280.305 44.1235 271.96 44.1235Z" fill="#232B79"/>
<path d="M367.212 62.456C367.212 51.0886 359.196 44.1235 348.814 44.1235C338.038 44.1235 329.956 51.7456 329.956 62.3246C329.956 72.8378 337.906 80.5257 350.128 80.5257C356.502 80.5257 361.43 78.5544 364.715 74.8091L359.261 68.8954C356.83 71.1952 354.136 72.3122 350.391 72.3122C345.003 72.3122 341.257 69.6182 340.272 65.2157H367.015C367.081 64.3615 367.212 63.2445 367.212 62.456ZM348.879 51.877C353.479 51.877 356.83 54.7682 357.553 59.2363H340.14C340.863 54.7025 344.214 51.877 348.879 51.877Z" fill="#232B79"/>
<path d="M391.12 80.5257C398.545 80.5257 404.393 77.2403 406.956 71.5894L399.005 67.2527C397.1 70.6695 394.274 72.1151 391.055 72.1151C385.864 72.1151 381.79 68.5011 381.79 62.3246C381.79 56.1481 385.864 52.5341 391.055 52.5341C394.274 52.5341 397.1 54.0454 399.005 57.3965L406.956 53.1255C404.393 47.3432 398.545 44.1235 391.12 44.1235C379.621 44.1235 371.408 51.6799 371.408 62.3246C371.408 72.9693 379.621 80.5257 391.12 80.5257Z" fill="#232B79"/>
<path d="M434.088 44.1235C429.554 44.1235 425.611 45.5691 422.852 48.3288V31.2448H412.601V80H422.852V62.5217C422.852 56.0166 426.4 52.9941 431.328 52.9941C435.862 52.9941 438.49 55.6224 438.49 61.339V80H448.74V59.762C448.74 48.9859 442.433 44.1235 434.088 44.1235Z" fill="#232B79"/>
<path d="M7.39799 9.85516V22.3312L41.97 32.2795L77.384 22.8341V10.6965" fill="#232B79"/>
<path d="M61.68 101.013L41.758 120L22.85 101.085L38.695 32.2485L46.63 32.2835" fill="#232B79"/>
<path d="M34.241 29.2568L42.702 40.6827L50.763 29.6977" fill="#232B79"/>
<path d="M85.262 10.106L42.63 18.4579L0 9.66509L42.419 0" fill="#0055A6"/>
<path d="M16.749 32.0246L17.623 16.6635L40.851 9.33481L40.41 7.93811L16.213 15.5647L15.246 32.6219C14.592 33.7638 14.151 35.9869 14.151 38.5377C14.151 42.2533 15.088 45.2678 16.237 45.2678C17.387 45.2678 18.315 42.2533 18.315 38.5377C18.316 35.3937 17.647 32.7607 16.749 32.0246Z" fill="#14BDEF"/>
<path d="M46.157 8.85481C46.157 9.71631 44.27 10.4174 41.947 10.4174C39.625 10.4174 37.743 9.71631 37.743 8.85481C37.743 7.98791 39.625 7.28821 41.947 7.28821C44.268 7.28821 46.157 7.98791 46.157 8.85481Z" fill="#14BDEF"/>
<path d="M32.209 32.7917L34.091 35.3614L20.26 98.5264L7.28799 86.514V26.1493L32.209 32.7917Z" fill="#14BDEF"/>
<path d="M52.455 32.7917L50.574 35.3614L64.405 98.5264L77.377 86.514V26.1493L52.455 32.7917Z" fill="#14BDEF"/>
<path d="M16.749 32.0246L17.623 16.6635L40.851 9.33481L40.41 7.93811L16.213 15.5647L15.246 32.6219C14.592 33.7638 14.151 35.9869 14.151 38.5377C14.151 42.2533 15.088 45.2678 16.237 45.2678C17.387 45.2678 18.315 42.2533 18.315 38.5377C18.316 35.3937 17.647 32.7607 16.749 32.0246Z" fill="white"/>
<path d="M305.128 81.4H316.792V40.504H332.92V31H289V40.504H305.128V81.4Z" fill="#232B79"/>
</svg>
