<svg id="Capa_1" enable-background="new 0 0 512.001 512.001" height="512" viewBox="0 0 512.001 512.001" width="512" xmlns="http://www.w3.org/2000/svg"><g><g><g><ellipse cx="256.013" cy="113.19" fill="#fbf4f4" rx="54.293" ry="54.293" transform="matrix(.918 -.396 .396 .918 -23.893 110.534)"/><path d="m256.013 58.897v108.587c29.985 0 54.293-24.308 54.293-54.293 0-29.986-24.308-54.294-54.293-54.294z" fill="#e2e9ee"/></g><g><path d="m256.013 34.913c-43.162 0-78.277 35.115-78.277 78.277s35.115 78.277 78.277 78.277 78.277-35.115 78.277-78.277-35.115-78.277-78.277-78.277zm0 30c8.464 0 16.422 2.197 23.346 6.039l-65.585 65.584c-3.842-6.924-6.039-14.882-6.039-23.346.001-26.62 21.658-48.277 48.278-48.277zm0 96.554c-7.236 0-14.1-1.611-20.267-4.476l64.068-64.068c2.866 6.167 4.476 13.031 4.476 20.268 0 26.619-21.657 48.276-48.277 48.276z" fill="#de5958"/><path d="m256.013 34.913v30c8.464 0 16.422 2.197 23.346 6.039l-23.346 23.346v42.426l43.801-43.801c2.866 6.167 4.476 13.031 4.476 20.268 0 26.62-21.657 48.277-48.277 48.277v30c43.162 0 78.277-35.115 78.277-78.277s-35.115-78.278-78.277-78.278z" fill="#d9225b"/></g></g><g><g><g><g><path d="m137.58 477.088c1.653 0 3.333-.275 4.981-.855 7.814-2.751 11.919-11.315 9.168-19.13l-20.851-59.225c-2.751-7.814-11.314-11.919-19.13-9.167-7.814 2.751-11.919 11.315-9.168 19.13l20.851 59.226c2.171 6.165 7.963 10.021 14.149 10.021z" fill="#182831"/><path d="m26.729 477.088c6.186 0 11.977-3.855 14.149-10.022l20.851-59.226c2.751-7.814-1.353-16.379-9.168-19.13-7.814-2.75-16.378 1.354-19.13 9.167l-20.851 59.226c-2.751 7.815 1.354 16.379 9.168 19.13 1.647.58 3.329.855 4.981.855z" fill="#2b495d"/></g><g><path d="m82.63 376.732h67.63c8.284 0 15 6.716 15 15s-6.716 15-15 15h-67.63l-10-15z" fill="#2b495d"/><path d="m13.732 238.831c8.254-.694 15.515 5.422 16.215 13.678l10.547 124.223h42.136v30h-55.9c-7.726 0-14.082-5.842-14.905-13.349-.01-.068-.036-.131-.042-.201l-11.728-138.136c-.701-8.254 5.422-15.514 13.677-16.215z" fill="#457899"/></g></g><g><g><path d="m374.421 477.088c-1.653 0-3.333-.275-4.981-.855-7.814-2.751-11.919-11.315-9.168-19.13l20.851-59.225c2.751-7.814 11.315-11.919 19.13-9.167 7.814 2.751 11.919 11.315 9.168 19.13l-20.851 59.226c-2.171 6.165-7.963 10.021-14.149 10.021z" fill="#2b495d"/><path d="m485.271 477.088c-6.187 0-11.978-3.855-14.149-10.022l-20.851-59.226c-2.751-7.814 1.354-16.379 9.168-19.13 7.814-2.75 16.378 1.354 19.13 9.167l20.851 59.225c2.751 7.815-1.354 16.379-9.168 19.13-1.647.581-3.328.856-4.981.856z" fill="#182831"/></g><g><path d="m429.371 376.732h-67.63c-8.284 0-15 6.716-15 15s6.716 15 15 15h67.63l10-15z" fill="#457899"/><path d="m498.269 238.831c-8.254-.694-15.515 5.422-16.215 13.678l-10.547 124.223h-42.135v30h55.9c7.726 0 14.082-5.842 14.905-13.349.011-.068.036-.131.042-.201l11.728-138.136c.7-8.254-5.424-15.514-13.678-16.215z" fill="#2b495d"/></g></g></g><g><g><path d="m279.077 477.084h-46.154c-6.373 0-11.539-6.716-11.539-15v-153.026c0-8.284 5.166-15 11.539-15h46.154c6.372 0 11.539 6.716 11.539 15v153.026c0 8.284-5.166 15-11.539 15z" fill="#854d29"/><path d="m279.077 294.058h-23.077v183.026h23.077c6.372 0 11.539-6.716 11.539-15v-153.026c0-8.284-5.166-15-11.539-15z" fill="#633a1e"/></g><g><path d="m379.026 332.393h-246.052c-8.284 0-15-5.099-15-11.389v-45.557c0-6.29 6.716-11.389 15-11.389h246.052c8.284 0 15 5.099 15 11.389v45.557c0 6.29-6.716 11.389-15 11.389z" fill="#a56032"/><path d="m379.026 264.058h-123.026v68.335h123.026c8.284 0 15-5.099 15-11.389v-45.557c0-6.29-6.716-11.389-15-11.389z" fill="#854d29"/></g></g></g></g></svg>