<svg width="512" height="512" viewBox="0 0 512 512" fill="none" xmlns="http://www.w3.org/2000/svg">
<path d="M309.668 426.668C309.668 473.797 271.461 512 224.332 512C177.203 512 139 473.797 139 426.668C139 379.539 177.203 341.332 224.332 341.332C271.461 341.332 309.668 379.539 309.668 426.668V426.668Z" fill="#DB992A"/>
<path d="M373.836 254.316C301.516 243.988 245.668 181.801 245.668 106.668C245.668 85.332 250.23 65.0898 258.316 46.7188C247.395 44.1602 236.047 42.668 224.332 42.668C141.988 42.668 75 109.652 75 192V251.477C75 293.695 56.5039 333.547 24.0547 360.98C15.7578 368.062 11 378.41 11 389.332C11 409.922 27.7461 426.668 48.332 426.668H400.332C420.922 426.668 437.668 409.922 437.668 389.332C437.668 378.41 432.91 368.063 424.398 360.789C392.91 334.145 374.648 295.465 373.836 254.316V254.316Z" fill="#FFBD3A"/>
<path d="M501.668 106.668C501.668 165.578 453.91 213.332 395 213.332C336.09 213.332 288.332 165.578 288.332 106.668C288.332 47.7578 336.09 0 395 0C453.91 0 501.668 47.7578 501.668 106.668V106.668Z" fill="#6480FD"/>
</svg>
