<svg id="Capa_1" enable-background="new 0 0 511.805 511.805" height="512" viewBox="0 0 511.805 511.805" width="512" xmlns="http://www.w3.org/2000/svg"><g><g fill="#704c55"><path d="m255.894 314.805h30l27.38-15-5.442-60-21.938-15h-30-30l-21.887 15-5.452 60 27.339 15z"/><path d="m318.716 360.805-17.822-15h-45-45l-17.794 15-5.453 60 23.247 15h45 45l23.262-15z"/></g><path d="m324.156 420.805-5.44-60-17.822-15h-45v90h45z" fill="#5a344b"/><path d="m313.274 299.805-5.442-60-21.938-15h-30v90h30z" fill="#5a344b"/><g fill="#9b786f"><path d="m318.716 360.805-5.442-61h-57.38-57.339l-5.455 61h62.794z"/><path d="m307.832 239.805-9.522-105h-42.416-42.341l-9.546 105h51.887z"/><path d="m324.156 420.805h-68.262-68.247l-6.694 74.638c-.042.465.159.899.161 1.362h74.78 74.782c0-.458.201-.888.159-1.348z"/></g><g fill="#704c55"><path d="m313.274 299.805h-57.38v61h62.822z"/><path d="m298.31 134.805h-42.416v105h51.938z"/><path d="m330.835 495.457-6.68-74.652h-68.262v76h74.782c.001-.458.203-.889.16-1.348z"/></g><path d="m372.422 145.264c-28.59-28.451-69.736-39.807-116.528-32.86-.002 0-.002 0-.004 0-46.829-6.947-87.949 4.409-116.525 32.86-26.455 26.367-38.027 63.999-30.938 100.649v.029c1.939 10.001 4.585 16.483 5.962 20.889 3.541 10.62 16.992 13.696 24.829 5.859 0 0 75.687-81.788 116.675-122.886 40.988 41.098 116.675 122.886 116.675 122.886 7.906 7.906 21.319 4.667 24.829-5.859 1.432-4.585 4.006-10.8 5.962-20.889 0-.015 0-.015 0-.029 7.091-36.65-4.482-74.282-30.937-100.649z" fill="#59c36a"/><path d="m397.398 266.831c1.432-4.585 4.006-10.8 5.962-20.889 0-.015 0-.015 0-.029 7.09-36.65-4.482-74.282-30.938-100.649-28.59-28.451-69.736-39.807-116.528-32.86v37.401c40.988 41.098 116.675 122.886 116.675 122.886 7.906 7.906 21.319 4.667 24.829-5.86z" fill="#00a66c"/><path d="m429.024 171.001c-10.737-32.886-35.552-58.564-68.071-70.474-32.465-11.927-69.252-8.654-105.059 8.967-.002 0-.002.002-.004.002-35.775-17.6-72.53-20.856-105.055-8.969-32.52 11.909-57.334 37.588-68.071 70.474-6.22 18.97-5.336 33.323-5.728 37.734-.443 11.217 11.199 18.801 21.196 14.209 0 0 96.368-45.139 157.661-73.14 61.293 28 157.661 73.14 157.661 73.14 10.001 4.592 21.639-2.994 21.196-14.209-.394-4.442.492-18.77-5.726-37.734z" fill="#97de3d"/><path d="m434.751 208.735c-.396-4.442.491-18.77-5.728-37.734-10.737-32.886-35.552-58.564-68.071-70.474-32.465-11.927-69.252-8.654-105.059 8.967v40.311c61.293 28 157.661 73.14 157.661 73.14 10.002 4.591 21.641-2.995 21.197-14.21z" fill="#59c36a"/><path d="m449.312 128.096c-2.161-3.686-8.362-20.275-25.679-36.958l-.015-.015c-23.979-23.086-56.718-34.19-89.868-30.645-28.568 3.111-55.421 17.016-77.856 39.886-22.436-22.87-49.288-36.775-77.856-39.886-47.304-5.117-91.628 19.803-112.398 61.289l-3.164 6.328c-2.329 4.644-2.08 10.166.659 14.59s7.559 7.119 12.759 7.119h180 180c11.109.001 18.417-11.744 13.418-21.708z" fill="#59c36a"/><path d="m449.312 128.096c-2.161-3.686-8.362-20.275-25.679-36.958l-.015-.015c-23.979-23.086-56.718-34.19-89.868-30.645-28.568 3.111-55.421 17.016-77.856 39.886v49.44h180c11.109.001 18.417-11.744 13.418-21.708z" fill="#00a66c"/><path d="m413.995 16.284-6.27-3.296c-37.852-19.892-82.895-16.758-117.568 8.189-14.859 10.681-26.303 24.549-34.263 40.102-7.96-15.558-19.404-29.431-34.263-40.117-34.731-24.932-79.76-28.052-117.568-8.174l-6.27 3.296c-4.614 2.417-7.632 7.046-7.998 12.231-.352 5.186 1.992 10.181 6.211 13.228l159.888 108.062 159.888-108.062c4.219-3.047 6.563-8.042 6.211-13.228-.367-5.185-3.384-9.814-7.998-12.231z" fill="#97de3d"/><path d="m421.993 28.515c-.366-5.186-3.384-9.814-7.998-12.231l-6.27-3.296c-37.852-19.892-82.895-16.758-117.568 8.189-14.859 10.681-26.303 24.549-34.263 40.102v88.526l159.888-108.062c4.218-3.047 6.562-8.042 6.211-13.228z" fill="#59c36a"/><path d="m405.894 481.805h-150-150c-8.291 0-15 6.709-15 15s6.709 15 15 15h150 150c8.291 0 15-6.709 15-15s-6.709-15-15-15z" fill="#ffe470"/><path d="m420.894 496.805c0-8.291-6.709-15-15-15h-150v30h150c8.291 0 15-6.709 15-15z" fill="#fabe2c"/></g></svg>