<svg width="706" height="715" viewBox="0 0 706 715" fill="none" xmlns="http://www.w3.org/2000/svg">
<path d="M308.133 694.472H51.7177C38.3803 694.472 27.5681 683.66 27.5681 670.323V265.508C27.5681 252.171 38.3802 241.359 51.7177 241.359H308.133C321.47 241.359 332.282 252.171 332.282 265.508V670.323C332.282 683.66 321.47 694.472 308.133 694.472Z" fill="#706973"/>
<path d="M280.06 404.311H79.7902C67.2121 404.311 57.0155 394.114 57.0155 381.536V292.717C57.0155 280.139 67.2121 269.942 79.7902 269.942H280.06C292.638 269.942 302.835 280.139 302.835 292.717V381.536C302.835 394.114 292.638 404.311 280.06 404.311Z" fill="#605964"/>
<path d="M280.06 697.648H79.7902C67.2121 697.648 57.0155 687.452 57.0155 674.874V459.416C57.0155 446.838 67.2121 436.642 79.7902 436.642H280.06C292.638 436.642 302.835 446.838 302.835 459.416V674.874C302.835 687.452 292.638 697.648 280.06 697.648Z" fill="#605964"/>
<path d="M76.2778 361.962H76.2778C72.4113 361.962 69.2768 358.827 69.2768 354.961V319.292C69.2768 315.426 72.4113 312.292 76.2778 312.292H76.2778C80.1443 312.292 83.2787 315.426 83.2787 319.292V354.961C83.2787 358.827 80.1443 361.962 76.2778 361.962Z" fill="#706973"/>
<path d="M76.2778 568.526H76.2778C72.4113 568.526 69.2768 565.392 69.2768 561.525V525.857C69.2768 521.99 72.4113 518.856 76.2778 518.856H76.2778C80.1443 518.856 83.2787 521.99 83.2787 525.857V561.525C83.2787 565.392 80.1443 568.526 76.2778 568.526Z" fill="#706973"/>
<path d="M333.242 395.014V445.81H669.28V395.014C669.28 380.87 657.814 369.403 643.669 369.403H358.853C344.709 369.403 333.242 380.87 333.242 395.014Z" fill="#706973"/>
<path d="M403.509 424.245C412.698 424.245 420.148 416.796 420.148 407.606C420.148 398.417 412.698 390.967 403.509 390.967C394.319 390.967 386.87 398.417 386.87 407.606C386.87 416.796 394.319 424.245 403.509 424.245Z" fill="#615765"/>
<path d="M501.261 424.245C510.451 424.245 517.9 416.796 517.9 407.606C517.9 398.417 510.451 390.967 501.261 390.967C492.072 390.967 484.622 398.417 484.622 407.606C484.622 416.796 492.072 424.245 501.261 424.245Z" fill="#615765"/>
<path d="M599.014 424.245C608.204 424.245 615.653 416.796 615.653 407.606C615.653 398.417 608.204 390.967 599.014 390.967C589.825 390.967 582.375 398.417 582.375 407.606C582.375 416.796 589.825 424.245 599.014 424.245Z" fill="#615765"/>
<path d="M669.281 445.81H333.242V697.648H669.281V445.81Z" fill="#7A757C"/>
<path d="M595.662 693.295H406.861C395.82 693.295 386.87 684.344 386.87 673.303V505.991C386.87 494.95 395.82 486 406.861 486H595.662C606.703 486 615.653 494.95 615.653 505.991V673.303C615.653 684.344 606.703 693.295 595.662 693.295Z" fill="#706973"/>
<path d="M442.034 521.861C431.685 521.861 421.597 516.577 415.902 507.047C414.135 504.091 370.789 435.383 210.203 499C194.59 505.191 176.917 497.543 170.731 481.929C164.545 466.314 172.188 448.642 187.803 442.456C266.721 411.192 334.258 403.432 388.535 419.39C440.13 434.559 462.486 466.438 468.109 475.847C476.725 490.264 472.023 508.935 457.606 517.551C452.719 520.471 447.342 521.861 442.034 521.861Z" fill="#D8D6E8"/>
<path d="M464.336 506.996C459.449 509.917 454.072 511.307 448.765 511.307C438.416 511.307 428.327 506.023 422.632 496.493C420.865 493.536 377.52 424.829 216.933 488.445C201.321 494.637 183.648 486.989 177.461 471.374C174.561 464.054 174.701 456.283 177.275 449.454C169.137 457.775 166.167 470.409 170.731 481.929C176.917 497.543 194.59 505.191 210.203 499C370.789 435.383 414.135 504.091 415.902 507.047C421.597 516.577 431.685 521.861 442.034 521.861C447.342 521.861 452.719 520.471 457.606 517.551C463.739 513.885 468.106 508.397 470.446 502.194C468.663 504.009 466.623 505.63 464.336 506.996Z" fill="#CBC9DD"/>
<path d="M441.505 526.744C460.999 526.744 476.801 510.941 476.801 491.448C476.801 471.954 460.999 456.151 441.505 456.151C422.011 456.151 406.208 471.954 406.208 491.448C406.208 510.941 422.011 526.744 441.505 526.744Z" fill="#F6AF7F"/>
<path d="M573.09 525.023L544.184 510.813C542.493 509.982 540.724 509.321 538.902 508.842L505.627 505.666C499.839 505.114 494.199 503.516 488.981 500.951L445.168 479.377C441.69 477.667 437.34 478.856 435.527 482.281C433.651 485.825 435.085 490.192 438.657 491.948L482.737 513.653C487.955 516.219 492.664 519.709 496.636 523.955L519.472 548.364C520.964 549.514 522.568 550.512 524.259 551.343L553.164 565.553C560.325 569.074 568.984 566.123 572.504 558.962L579.681 544.363C583.202 537.202 580.25 528.544 573.09 525.023Z" fill="#FFD67B"/>
<path d="M545.796 524.242C542.303 526.266 539.947 530.035 539.947 534.363C539.947 536.561 540.555 538.615 541.611 540.369C543.483 543.48 548.109 543.48 549.981 540.369C551.037 538.615 551.645 536.561 551.645 534.363C551.645 530.035 549.289 526.266 545.796 524.242Z" fill="#69BE5A"/>
<path d="M549.981 540.369C551.037 538.615 551.645 536.561 551.645 534.363C551.645 530.035 549.289 526.266 545.796 524.242V542.702C547.421 542.702 549.045 541.924 549.981 540.369Z" fill="#599F4D"/>
<path d="M214.872 373.62H131.781V421.102H214.872V373.62Z" fill="#F6AF7F"/>
<path d="M131.781 351.747H110.618C102.467 351.747 95.8582 345.138 95.8582 336.986V291.283H131.781V351.747Z" fill="#BD4E4B"/>
<path d="M286.3 318.466H267.241V223.535H267.241C277.767 223.535 286.3 232.067 286.3 242.593V318.466Z" fill="#BD4E4B"/>
<path d="M283.749 332.807H266.303C258.009 332.807 251.285 326.083 251.285 317.789V317.789C251.285 309.495 258.009 302.771 266.303 302.771H283.749C292.043 302.771 298.767 309.495 298.767 317.789V317.789C298.767 326.083 292.043 332.807 283.749 332.807Z" fill="#F6AF7F"/>
<path d="M266.303 325.338C262.141 325.338 258.754 321.952 258.754 317.789C258.754 313.627 262.141 310.24 266.303 310.24H283.749C287.912 310.24 291.298 313.627 291.298 317.789C291.298 321.952 287.912 325.338 283.749 325.338H266.303Z" fill="#D2875E"/>
<path d="M221.571 395.494H174.301C134.803 395.494 104.052 361.2 108.343 321.936L121.644 200.231H274.227L287.528 321.936C291.819 361.2 261.069 395.494 221.571 395.494Z" fill="#F6AF7F"/>
<path d="M183.844 260.245H142.536C136.596 260.245 131.781 265.06 131.781 271C131.781 276.94 136.596 281.756 142.536 281.756H183.844C189.784 281.756 194.6 276.94 194.6 271C194.6 265.06 189.784 260.245 183.844 260.245Z" fill="#B23B32"/>
<path d="M177.438 301.259H146.764C144.505 301.259 142.674 299.428 142.674 297.169C142.674 294.91 144.505 293.079 146.764 293.079H177.438C179.696 293.079 181.527 294.91 181.527 297.169C181.528 299.428 179.696 301.259 177.438 301.259Z" fill="#CE8451"/>
<path d="M281.611 260.245H244.571C238.631 260.245 233.816 265.06 233.816 271C233.816 276.94 238.631 281.756 244.571 281.756H281.611C287.551 281.756 292.366 276.94 292.366 271C292.366 265.06 287.551 260.245 281.611 260.245Z" fill="#B23B32"/>
<path d="M275.205 301.259H248.799C246.54 301.259 244.709 299.428 244.709 297.169C244.709 294.91 246.54 293.079 248.799 293.079H275.205C277.463 293.079 279.294 294.91 279.294 297.169C279.294 299.428 277.463 301.259 275.205 301.259Z" fill="#CE8451"/>
<path d="M223.529 334.464C225.432 317.411 190.936 311.333 179.929 338.912C172.254 358.141 156.968 357.907 148.693 354.303C147.677 353.861 146.851 355.174 147.682 355.907C163.21 369.612 217.867 385.204 223.529 334.464Z" fill="#B23B32"/>
<path d="M220.891 334.464C218.988 317.411 253.484 311.333 264.492 338.912C272.166 358.141 287.452 357.907 295.727 354.303C296.743 353.861 297.569 355.174 296.739 355.907C281.21 369.612 226.554 385.204 220.891 334.464Z" fill="#B23B32"/>
<path d="M114.629 332.807H97.1829C88.8887 332.807 82.1648 326.083 82.1648 317.789V317.789C82.1648 309.495 88.8887 302.771 97.1829 302.771H114.629C122.923 302.771 129.647 309.495 129.647 317.789V317.789C129.647 326.083 122.923 332.807 114.629 332.807Z" fill="#F6AF7F"/>
<path d="M97.1827 325.338C93.0204 325.338 89.6339 321.952 89.6339 317.789C89.6339 313.627 93.0204 310.24 97.1827 310.24H114.629C118.791 310.24 122.178 313.627 122.178 317.789C122.178 321.952 118.791 325.338 114.629 325.338H97.1827Z" fill="#D2875E"/>
<path d="M95.8582 193.473V302.771H111.41C120.107 302.771 127.157 295.721 127.157 287.023V193.473H95.8582V193.473Z" fill="#BD4E4B"/>
<path d="M122.178 208.761V260.245C136.395 260.245 147.92 248.72 147.92 234.503C147.92 220.286 136.395 208.761 122.178 208.761Z" fill="#BD4E4B"/>
<path d="M108.839 89.2944L87.7733 221.187C87.2021 227.69 92.3276 233.286 98.8564 233.286H275.932C282.461 233.286 287.586 227.69 287.015 221.187L265.949 89.2944H108.839V89.2944Z" fill="#EAE9F3"/>
<path d="M287.015 221.186L265.949 89.2944H246.678L265.466 221.186C265.976 227.69 261.404 233.286 255.582 233.286H275.932C282.461 233.286 287.586 227.69 287.015 221.186Z" fill="#C9C9E2"/>
<path d="M263.133 144.218C289.787 144.218 311.395 122.611 311.395 95.9567C311.395 69.3026 289.787 47.6952 263.133 47.6952C236.479 47.6952 214.872 69.3026 214.872 95.9567C214.872 122.611 236.479 144.218 263.133 144.218Z" fill="#EAE9F3"/>
<path d="M303.644 69.7398C305.195 74.8838 306.038 80.3347 306.038 85.9843C306.038 117.027 280.873 142.192 249.83 142.192C249.63 142.192 249.433 142.179 249.233 142.177C253.636 143.499 258.3 144.218 263.133 144.218C289.787 144.218 311.395 122.611 311.395 95.9567C311.395 86.2875 308.54 77.2901 303.644 69.7398Z" fill="#C9C9E2"/>
<path d="M111.655 144.218C138.309 144.218 159.917 122.611 159.917 95.9567C159.917 69.3026 138.309 47.6952 111.655 47.6952C85.0011 47.6952 63.3936 69.3026 63.3936 95.9567C63.3936 122.611 85.0011 144.218 111.655 144.218Z" fill="#EAE9F3"/>
<path d="M187.394 116.021C219.387 116.021 245.322 90.0858 245.322 58.0933C245.322 26.1008 219.387 0.165833 187.394 0.165833C155.402 0.165833 129.467 26.1008 129.467 58.0933C129.467 90.0858 155.402 116.021 187.394 116.021Z" fill="#EAE9F3"/>
<path d="M230.72 19.6605C234.16 28.3398 236.071 37.7916 236.071 47.6952C236.071 77.3332 219.129 102.998 194.411 115.583C223.092 112.117 245.322 87.7089 245.322 58.0933C245.322 43.3425 239.799 29.8875 230.72 19.6605Z" fill="#C9C9E2"/>
<path d="M213.283 443.243H133.37C127.251 443.243 122.291 438.283 122.291 432.164V410.041C122.291 403.922 127.251 398.962 133.37 398.962H213.283C219.402 398.962 224.362 403.922 224.362 410.041V432.164C224.362 438.283 219.402 443.243 213.283 443.243Z" fill="#EAE9F3"/>
<path d="M213.283 398.962H199.043C204.691 398.962 209.27 403.541 209.27 409.189V433.016C209.27 438.664 204.691 443.243 199.043 443.243H213.283C219.402 443.243 224.362 438.283 224.362 432.164V410.041C224.362 403.922 219.402 398.962 213.283 398.962Z" fill="#C9C9E2"/>
<path d="M280.783 714.071H65.8692V487.004C65.8692 456.254 90.7974 431.325 121.548 431.325H225.105C255.855 431.325 280.783 456.254 280.783 487.004V714.071V714.071Z" fill="#EAE9F3"/>
<path d="M225.105 431.325H206.173C235.32 431.325 258.947 454.953 258.947 484.1V714.071H280.783V487.004C280.783 456.254 255.855 431.325 225.105 431.325Z" fill="#C9C9E2"/>
<path d="M226.876 431.37V494.318C226.876 496.729 228.831 498.685 231.242 498.685C233.654 498.685 235.609 496.729 235.609 494.318V432.329C232.768 431.786 229.852 431.463 226.876 431.37Z" fill="#C9C9E2"/>
<path d="M214.872 472.853C217.966 472.853 220.474 470.345 220.474 467.251C220.474 464.157 217.966 461.649 214.872 461.649C211.778 461.649 209.27 464.157 209.27 467.251C209.27 470.345 211.778 472.853 214.872 472.853Z" fill="#635282"/>
<path d="M214.872 528.337C217.966 528.337 220.474 525.829 220.474 522.735C220.474 519.642 217.966 517.134 214.872 517.134C211.778 517.134 209.27 519.642 209.27 522.735C209.27 525.829 211.778 528.337 214.872 528.337Z" fill="#635282"/>
<path d="M214.872 583.822C217.966 583.822 220.474 581.314 220.474 578.22C220.474 575.126 217.966 572.618 214.872 572.618C211.778 572.618 209.27 575.126 209.27 578.22C209.27 581.314 211.778 583.822 214.872 583.822Z" fill="#635282"/>
<path d="M690.554 674.874H113.755C105.224 674.874 98.3082 683.648 98.3082 694.472C98.3082 705.296 105.224 714.071 113.755 714.071H690.554C699.084 714.071 706 705.296 706 694.472C706 683.648 699.084 674.874 690.554 674.874Z" fill="#C86B64"/>
<path d="M690.554 674.874H651.585C660.115 674.874 667.031 683.648 667.031 694.472V694.472C667.031 705.296 660.115 714.071 651.585 714.071H690.554C699.085 714.071 706 705.296 706 694.472V694.472C706 683.648 699.084 674.874 690.554 674.874Z" fill="#B35654"/>
<path d="M129.693 674.874H16.0668C7.536 674.874 0.620422 683.648 0.620422 694.472V694.472C0.620422 705.296 7.53599 714.071 16.0668 714.071H129.693C138.223 714.071 145.139 705.296 145.139 694.472V694.472C145.139 683.648 138.223 674.874 129.693 674.874Z" fill="#D9968C"/>
<path d="M449.944 661.714H634.73C636.536 661.714 638 664.66 638 668.294V668.294C638 671.928 636.536 674.874 634.73 674.874H449.944C448.138 674.874 446.674 671.928 446.674 668.294V668.294C446.674 664.66 448.138 661.714 449.944 661.714Z" fill="#4E4660"/>
<path d="M628.204 661.714H634.73C636.536 661.714 638 664.66 638 668.294V668.294C638 671.928 636.536 674.874 634.73 674.874H628.204C626.398 674.874 624.934 671.928 624.934 668.294V668.294C624.934 664.66 626.398 661.714 628.204 661.714Z" fill="#635E6D"/>
<path d="M548.706 640.389C548.706 646.98 545.249 652.889 539.784 656.912C534.32 652.889 530.863 646.98 530.863 640.389C530.863 633.797 534.32 627.888 539.784 623.865C545.249 627.888 548.706 633.797 548.706 640.389Z" fill="#FFE18B"/>
<path d="M543.574 649.083C543.574 652.206 542.106 655.006 539.784 656.912C537.463 655.006 535.995 652.206 535.995 649.083C535.995 645.96 537.463 643.16 539.784 641.254C542.106 643.16 543.574 645.96 543.574 649.083Z" fill="#F89C5B"/>
<path d="M523.468 643.99C523.468 649.114 520.781 653.708 516.533 656.836C512.284 653.708 509.597 649.114 509.597 643.99C509.597 638.865 512.284 634.272 516.533 631.144C520.781 634.272 523.468 638.865 523.468 643.99Z" fill="#FFE18B"/>
<path d="M519.479 650.749C519.479 653.177 518.338 655.354 516.533 656.836C514.728 655.354 513.586 653.177 513.586 650.749C513.586 648.321 514.728 646.144 516.533 644.662C518.338 646.144 519.479 648.321 519.479 650.749Z" fill="#F89C5B"/>
<path d="M569.972 645.247C569.972 650.371 567.285 654.965 563.036 658.093C558.788 654.965 556.101 650.371 556.101 645.247C556.101 640.122 558.788 635.529 563.036 632.401C567.285 635.529 569.972 640.122 569.972 645.247Z" fill="#FFE18B"/>
<path d="M565.983 652.006C565.983 654.434 564.841 656.611 563.036 658.093C561.231 656.611 560.09 654.434 560.09 652.006C560.09 649.578 561.231 647.402 563.036 645.919C564.841 647.402 565.983 649.578 565.983 652.006Z" fill="#F89C5B"/>
<path d="M588.956 656.912H495.059V661.714H588.956V656.912Z" fill="#72776A"/>
<path d="M490.613 669.005C487.961 669.005 485.812 666.855 485.812 664.203V648.998C485.812 642.576 491.037 637.351 497.46 637.351H506.618C509.27 637.351 511.42 639.501 511.42 642.152C511.42 644.804 509.27 646.954 506.618 646.954H497.46C496.333 646.954 495.415 647.871 495.415 648.998V664.203C495.415 666.855 493.265 669.005 490.613 669.005Z" fill="#4E4660"/>
<path d="M588.957 669.005C586.305 669.005 584.155 666.855 584.155 664.203V648.998C584.155 647.871 583.237 646.954 582.109 646.954H572.951C570.299 646.954 568.15 644.804 568.15 642.152C568.15 639.501 570.299 637.351 572.951 637.351H582.109C588.532 637.351 593.758 642.576 593.758 648.998V664.203C593.758 666.855 591.608 669.005 588.957 669.005Z" fill="#4E4660"/>
<path d="M539.784 666.516C537.132 666.516 534.983 664.366 534.983 661.714V642.152C534.983 639.501 537.132 637.351 539.784 637.351C542.436 637.351 544.586 639.501 544.586 642.152V661.714C544.586 664.366 542.436 666.516 539.784 666.516Z" fill="#4E4660"/>
<path d="M460.545 605.696C456.125 605.696 452.542 602.113 452.542 597.693V586.825H421.332C416.913 586.825 413.33 583.243 413.33 578.823C413.33 574.402 416.913 570.82 421.332 570.82H460.545C464.965 570.82 468.548 574.402 468.548 578.823V597.693C468.548 602.113 464.965 605.696 460.545 605.696Z" fill="#D8D6E8"/>
<path d="M340.384 578.822C340.384 586.079 346.266 591.962 353.523 591.962H426.299C433.555 591.962 439.438 586.079 439.438 578.822C439.438 571.565 433.555 565.683 426.299 565.683H353.523C346.266 565.683 340.384 571.565 340.384 578.822Z" fill="#565067"/>
<path d="M595.389 614.765H466.814C455.691 614.765 446.674 605.748 446.674 594.625V573.819C446.674 571.535 448.525 569.684 450.809 569.684H611.394C613.678 569.684 615.529 571.535 615.529 573.819V594.625C615.529 605.748 606.512 614.765 595.389 614.765Z" fill="#E06663"/>
<path d="M611.394 569.684H595.567C597.85 569.684 599.701 571.535 599.701 573.819V594.625C599.701 605.748 590.684 614.765 579.562 614.765H595.389C606.512 614.765 615.529 605.748 615.529 594.625V573.819C615.529 571.535 613.678 569.684 611.394 569.684Z" fill="#C74F50"/>
<path d="M451.873 608.097C455.559 612.182 460.878 614.765 466.814 614.765H595.389C601.325 614.765 606.644 612.182 610.33 608.097H451.873Z" fill="#C74F50"/>
<path d="M523.56 572.885H505.161C503.963 572.885 502.992 573.856 502.992 575.053V575.053C502.992 576.251 503.963 577.222 505.161 577.222H523.56C524.757 577.222 525.728 576.251 525.728 575.053V575.053C525.728 573.856 524.757 572.885 523.56 572.885Z" fill="#F19C9C"/>
<path d="M539.637 572.885H533.57C532.372 572.885 531.402 573.856 531.402 575.053V575.053C531.402 576.251 532.373 577.222 533.57 577.222H539.637C540.835 577.222 541.806 576.251 541.806 575.053V575.053C541.806 573.856 540.835 572.885 539.637 572.885Z" fill="#F19C9C"/>
<path d="M355.933 597.289H281.001C267.447 597.289 256.46 586.301 256.46 572.748C256.46 559.194 267.447 548.206 281.001 548.206H355.933C369.487 548.206 380.475 559.194 380.475 572.748C380.475 586.301 369.487 597.289 355.933 597.289Z" fill="#F6AF7F"/>
<path d="M253.597 603.158C200.725 603.158 164.326 601.96 135.293 587.783C116.452 578.582 102.244 564.593 91.8576 545.016C82.9047 528.14 76.5922 506.718 71.9913 477.599C69.3701 461.009 80.6936 445.437 97.2828 442.816C113.87 440.19 129.445 451.518 132.066 468.106C140.031 518.517 151.683 528.102 161.979 533.131C181.178 542.506 218.251 542.421 269.568 542.314C275.522 542.301 281.684 542.288 288.064 542.288C304.859 542.288 318.474 555.903 318.474 572.698C318.474 589.493 304.859 603.108 288.064 603.108C281.73 603.108 275.611 603.121 269.7 603.134C264.169 603.145 258.8 603.158 253.597 603.158Z" fill="#D8D6E8"/>
<path d="M294.115 591.451C287.781 591.451 281.662 591.464 275.751 591.477C270.22 591.488 264.852 591.501 259.648 591.501C206.776 591.501 170.378 590.304 141.344 576.126C122.503 566.925 108.295 552.936 97.9089 533.359C88.956 516.484 82.6436 495.061 78.0426 465.942C77.3576 461.607 77.6328 457.344 78.6975 453.361C73.2708 459.861 70.5658 468.577 71.9913 477.599C76.5923 506.718 82.9047 528.14 91.8576 545.016C102.244 564.593 116.452 578.582 135.293 587.783C164.326 601.96 200.725 603.158 253.597 603.158C258.8 603.158 264.169 603.145 269.7 603.134C275.611 603.121 281.73 603.108 288.064 603.108C302.147 603.108 313.99 593.532 317.448 580.538C311.87 587.207 303.49 591.451 294.115 591.451Z" fill="#CBC9DD"/>
<path d="M357.768 618.742C377.262 618.742 393.065 602.94 393.065 583.446C393.065 563.952 377.262 548.15 357.768 548.15C338.275 548.15 322.472 563.952 322.472 583.446C322.472 602.94 338.275 618.742 357.768 618.742Z" fill="#F6AF7F"/>
<path d="M278.474 594.076C281.409 594.076 283.789 591.696 283.789 588.761C283.789 585.825 281.409 583.446 278.474 583.446C275.538 583.446 273.159 585.825 273.159 588.761C273.159 591.696 275.538 594.076 278.474 594.076Z" fill="#B7B6CE"/>
<path d="M255.533 594.076C258.468 594.076 260.848 591.696 260.848 588.761C260.848 585.825 258.468 583.446 255.533 583.446C252.598 583.446 250.218 585.825 250.218 588.761C250.218 591.696 252.598 594.076 255.533 594.076Z" fill="#B7B6CE"/>
<path d="M465.63 508.453C469.588 508.453 472.797 505.244 472.797 501.285C472.797 497.327 469.588 494.118 465.63 494.118C461.671 494.118 458.462 497.327 458.462 501.285C458.462 505.244 461.671 508.453 465.63 508.453Z" fill="#599F4D"/>
<path d="M465.63 506.793C468.672 506.793 471.138 504.327 471.138 501.285C471.138 498.243 468.672 495.777 465.63 495.777C462.587 495.777 460.121 498.243 460.121 501.285C460.121 504.327 462.587 506.793 465.63 506.793Z" fill="#69BE5A"/>
<path d="M466.731 500.116C467.343 500.116 467.839 499.62 467.839 499.008C467.839 498.396 467.343 497.9 466.731 497.9C466.119 497.9 465.623 498.396 465.623 499.008C465.623 499.62 466.119 500.116 466.731 500.116Z" fill="#B3CD89"/>
<path d="M468.417 503.826C469.153 503.826 469.75 503.229 469.75 502.492C469.75 501.756 469.153 501.159 468.417 501.159C467.68 501.159 467.083 501.756 467.083 502.492C467.083 503.229 467.68 503.826 468.417 503.826Z" fill="#B3CD89"/>
<path d="M463.038 503.826C463.993 503.826 464.767 503.052 464.767 502.097C464.767 501.143 463.993 500.369 463.038 500.369C462.084 500.369 461.31 501.143 461.31 502.097C461.31 503.052 462.084 503.826 463.038 503.826Z" fill="#B3CD89"/>
<path d="M600.831 535.131C604.79 535.131 607.999 531.922 607.999 527.964C607.999 524.006 604.79 520.797 600.831 520.797C596.873 520.797 593.664 524.006 593.664 527.964C593.664 531.922 596.873 535.131 600.831 535.131Z" fill="#599F4D"/>
<path d="M600.831 533.472C603.873 533.472 606.34 531.006 606.34 527.964C606.34 524.922 603.873 522.456 600.831 522.456C597.789 522.456 595.323 524.922 595.323 527.964C595.323 531.006 597.789 533.472 600.831 533.472Z" fill="#69BE5A"/>
<path d="M601.933 526.795C602.545 526.795 603.041 526.299 603.041 525.687C603.041 525.075 602.545 524.579 601.933 524.579C601.321 524.579 600.825 525.075 600.825 525.687C600.825 526.299 601.321 526.795 601.933 526.795Z" fill="#B3CD89"/>
<path d="M603.619 530.505C604.355 530.505 604.952 529.908 604.952 529.171C604.952 528.435 604.355 527.838 603.619 527.838C602.882 527.838 602.285 528.435 602.285 529.171C602.285 529.908 602.882 530.505 603.619 530.505Z" fill="#B3CD89"/>
<path d="M598.24 530.505C599.195 530.505 599.969 529.731 599.969 528.776C599.969 527.821 599.195 527.048 598.24 527.048C597.285 527.048 596.512 527.821 596.512 528.776C596.512 529.731 597.285 530.505 598.24 530.505Z" fill="#B3CD89"/>
<path d="M491.824 473.788C495.783 473.788 498.991 470.579 498.991 466.621C498.991 462.662 495.783 459.453 491.824 459.453C487.866 459.453 484.657 462.662 484.657 466.621C484.657 470.579 487.866 473.788 491.824 473.788Z" fill="#599F4D"/>
<path d="M491.824 472.129C494.866 472.129 497.332 469.663 497.332 466.621C497.332 463.579 494.866 461.112 491.824 461.112C488.782 461.112 486.316 463.579 486.316 466.621C486.316 469.663 488.782 472.129 491.824 472.129Z" fill="#69BE5A"/>
<path d="M492.926 465.451C493.538 465.451 494.034 464.955 494.034 464.343C494.034 463.731 493.538 463.235 492.926 463.235C492.314 463.235 491.818 463.731 491.818 464.343C491.818 464.955 492.314 465.451 492.926 465.451Z" fill="#B3CD89"/>
<path d="M494.611 469.161C495.348 469.161 495.945 468.564 495.945 467.828C495.945 467.091 495.348 466.494 494.611 466.494C493.875 466.494 493.278 467.091 493.278 467.828C493.278 468.564 493.875 469.161 494.611 469.161Z" fill="#B3CD89"/>
<path d="M489.233 469.161C490.188 469.161 490.961 468.387 490.961 467.433C490.961 466.478 490.188 465.704 489.233 465.704C488.278 465.704 487.504 466.478 487.504 467.433C487.504 468.387 488.278 469.161 489.233 469.161Z" fill="#B3CD89"/>
<path d="M580.215 501.662C576.883 501.662 574.173 498.951 574.173 495.621C574.173 492.289 576.883 489.579 580.215 489.579C583.546 489.579 586.256 492.289 586.256 495.621C586.256 498.951 583.546 501.662 580.215 501.662ZM580.215 491.278C577.82 491.278 575.872 493.226 575.872 495.621C575.872 498.015 577.82 499.962 580.215 499.962C582.609 499.962 584.557 498.015 584.557 495.621C584.557 493.226 582.609 491.278 580.215 491.278Z" fill="#599F4D"/>
<path d="M494.618 503.18C492.027 503.18 489.919 501.072 489.919 498.481C489.919 495.89 492.027 493.782 494.618 493.782C497.209 493.782 499.317 495.89 499.317 498.481C499.317 501.072 497.209 503.18 494.618 503.18ZM494.618 495.103C492.755 495.103 491.24 496.619 491.24 498.481C491.24 500.343 492.755 501.858 494.618 501.858C496.48 501.858 497.995 500.343 497.995 498.481C497.995 496.619 496.48 495.103 494.618 495.103Z" fill="#FDB740"/>
<path d="M548.409 494.707V498.284C548.409 504.76 543.159 510.011 536.682 510.011H531.837C529.71 510.011 527.983 508.285 527.983 506.158C527.983 505.094 528.418 504.131 529.114 503.435C529.81 502.734 530.773 502.304 531.837 502.304H535.929C537.751 502.304 539.229 500.826 539.229 499.004C539.229 498.141 538.9 497.354 538.347 496.767C538.323 496.734 538.289 496.701 538.261 496.672C537.665 496.076 536.84 495.704 535.929 495.704H517.492V478.693H532.39C534.374 478.693 536.272 479.055 538.027 479.713C539.582 480.3 541.022 481.12 542.305 482.131C546.025 485.059 548.409 489.604 548.409 494.707Z" fill="#F47F51"/>
<path d="M539.229 499.766C539.229 499.642 539.219 499.52 539.203 499.399C539.007 501.035 537.617 502.304 535.929 502.304H531.837C530.773 502.304 529.81 502.734 529.114 503.435C528.418 504.131 527.983 505.094 527.983 506.158C527.983 506.204 527.989 506.25 527.99 506.296C528.026 505.358 528.448 504.509 529.114 503.89C529.81 503.237 530.773 502.838 531.837 502.838H535.929C537.751 502.838 539.229 501.462 539.229 499.766Z" fill="#FBC3B1"/>
<path d="M542.305 482.131C541.022 481.12 539.582 480.3 538.027 479.713C536.272 479.055 534.374 478.693 532.39 478.693H517.492V480.86H532.39C534.374 480.86 536.272 481.198 538.027 481.81C539.582 482.356 541.022 483.12 542.305 484.061C546.025 486.786 548.409 491.017 548.409 495.766V494.707C548.409 489.604 546.025 485.059 542.305 482.131Z" fill="#FBC3B1"/>
<path d="M532.948 484.296V490.1C532.948 492.256 532.123 494.225 530.769 495.704H526.562C528.89 494.903 530.564 492.695 530.564 490.1V484.296C530.564 481.702 528.88 479.489 526.548 478.693H530.769C532.123 480.171 532.948 482.141 532.948 484.296Z" fill="#F79D80"/>
<path d="M534.71 510.011C534.352 509.407 534.143 508.705 534.143 507.954V503.677C534.143 503.194 534.232 502.734 534.387 502.304H531.909C531.812 502.747 531.758 503.205 531.758 503.677V507.954C531.758 508.674 531.882 509.364 532.101 510.011H534.71Z" fill="#F79D80"/>
<path d="M542.505 485.474L541.69 491.216C541.375 493.415 540.226 495.356 538.452 496.691C538.418 496.715 538.385 496.744 538.347 496.767C538.323 496.734 538.289 496.701 538.261 496.672C537.665 496.076 536.84 495.704 535.929 495.704H535.233C535.867 495.504 536.472 495.194 537.021 494.783C538.285 493.834 539.105 492.447 539.329 490.882L540.145 485.136C540.369 483.571 539.968 482.012 539.019 480.748C538.728 480.362 538.394 480.014 538.027 479.713C539.582 480.3 541.022 481.12 542.305 482.131C542.596 483.204 542.667 484.334 542.505 485.474Z" fill="#F79D80"/>
<path d="M548.409 496.495V494.707C548.409 494.344 548.394 493.984 548.37 493.627C547.861 494.081 547.269 494.459 546.596 494.722L541.191 496.833C540.373 497.152 539.528 497.271 538.704 497.224C539.038 497.737 539.229 498.348 539.229 499.004C539.229 499.214 539.207 499.419 539.17 499.618C540.133 499.603 541.109 499.425 542.058 499.054L547.464 496.943C547.794 496.814 548.106 496.66 548.409 496.495Z" fill="#F79D80"/>
<path d="M543.706 505.837L539.357 501.995C539.036 501.712 538.754 501.398 538.506 501.062C538.002 501.692 537.272 502.131 536.439 502.261C536.82 502.813 537.262 503.327 537.778 503.782L542.127 507.624C542.375 507.843 542.636 508.039 542.902 508.224C543.624 507.772 544.293 507.244 544.897 506.65C544.475 506.429 544.073 506.161 543.706 505.837Z" fill="#F79D80"/>
<path d="M517.49 495.704C514.154 495.704 511.449 492.999 511.449 489.663V484.735C511.449 481.399 514.154 478.694 517.49 478.694C520.826 478.694 523.531 481.399 523.531 484.735V489.663C523.531 492.999 520.826 495.704 517.49 495.704Z" fill="#FAAB74"/>
<path d="M531.095 504.681C529.118 502.627 524.238 504.116 521.225 507.017C518.211 509.918 519.039 512.328 521.016 514.382C522.992 516.436 525.37 517.355 528.383 514.455C531.397 511.554 533.072 506.735 531.095 504.681Z" fill="#A33823"/>
<path d="M532.134 507.281C533.37 504.711 530.272 500.658 526.503 498.845C522.733 497.032 520.763 498.649 519.527 501.218C518.292 503.787 518.259 506.335 522.029 508.148C525.798 509.961 530.899 509.85 532.134 507.281Z" fill="#D8542B"/>
<path d="M488.436 382.399L490.965 384.928C495.545 389.507 495.545 396.933 490.965 401.512L487.539 404.939C486.035 406.443 483.594 406.443 482.09 404.939C481.338 404.187 480.963 403.198 480.963 402.214C480.96 401.226 481.338 400.241 482.09 399.489L484.983 396.596C486.271 395.307 486.271 393.217 484.983 391.928C484.373 391.318 483.584 390.994 482.778 390.971C482.737 390.964 482.69 390.964 482.649 390.964C481.806 390.964 480.96 391.284 480.316 391.928L467.279 404.966L455.25 392.937L465.785 382.402C467.188 380.999 468.786 379.913 470.493 379.138C472.007 378.453 473.605 378.015 475.227 377.822C479.928 377.263 484.828 378.79 488.436 382.399Z" fill="#F47F51"/>
<path d="M485.522 392.467C485.434 392.379 485.34 392.3 485.244 392.226C486.262 393.521 486.177 395.402 484.983 396.596L482.09 399.489C481.338 400.241 480.96 401.226 480.963 402.214C480.963 403.198 481.338 404.187 482.09 404.939C482.123 404.972 482.159 405 482.193 405.032C481.554 404.343 481.253 403.445 481.285 402.536C481.316 401.582 481.715 400.618 482.467 399.866L485.36 396.973C486.649 395.685 486.721 393.666 485.522 392.467Z" fill="#FBC3B1"/>
<path d="M475.227 377.822C473.605 378.015 472.007 378.453 470.493 379.138C468.786 379.913 467.188 380.999 465.785 382.402L455.25 392.937L456.783 394.469L467.318 383.935C468.72 382.532 470.301 381.428 471.975 380.62C473.461 379.907 475.019 379.428 476.592 379.187C481.149 378.484 485.827 379.789 489.185 383.147L488.436 382.399C484.828 378.79 479.928 377.263 475.227 377.822Z" fill="#FBC3B1"/>
<path d="M470.142 385.97L474.246 390.074C475.77 391.598 476.579 393.574 476.667 395.577L473.693 398.552C474.772 396.339 474.394 393.594 472.56 391.76L468.456 387.656C466.621 385.821 463.866 385.447 461.654 386.533L464.638 383.548C466.641 383.636 468.618 384.445 470.142 385.97Z" fill="#F79D80"/>
<path d="M489.571 402.907C488.891 402.733 488.247 402.385 487.715 401.854L484.691 398.829C484.35 398.488 484.087 398.099 483.893 397.686L482.141 399.438C482.385 399.819 482.671 400.182 483.005 400.515L486.029 403.54C486.538 404.049 487.114 404.449 487.726 404.752L489.571 402.907Z" fill="#F79D80"/>
<path d="M477.733 380.045L481.216 384.682C482.548 386.459 483.108 388.644 482.798 390.843C482.791 390.883 482.788 390.927 482.778 390.971C482.737 390.964 482.69 390.964 482.649 390.964C481.806 390.964 480.96 391.284 480.316 391.928L479.824 392.421C480.13 391.831 480.34 391.183 480.437 390.505C480.66 388.941 480.259 387.379 479.311 386.115L475.824 381.474C474.876 380.21 473.49 379.39 471.926 379.168C471.447 379.1 470.965 379.09 470.493 379.138C472.007 378.453 473.605 378.015 475.227 377.822C476.192 378.375 477.041 379.124 477.733 380.045Z" fill="#F79D80"/>
<path d="M489.701 383.663L488.436 382.398C488.18 382.142 487.915 381.898 487.645 381.663C487.606 382.344 487.454 383.03 487.164 383.691L484.835 389.006C484.483 389.81 483.969 390.492 483.353 391.04C483.952 391.167 484.519 391.465 484.983 391.928C485.132 392.077 485.261 392.237 485.375 392.404C486.046 391.713 486.61 390.896 487.019 389.964L489.349 384.648C489.491 384.323 489.603 383.994 489.701 383.663Z" fill="#F79D80"/>
<path d="M492.98 393.594L487.188 393.953C486.762 393.98 486.34 393.957 485.927 393.894C486.016 394.697 485.81 395.523 485.313 396.204C485.973 396.325 486.649 396.376 487.336 396.333L493.128 395.974C493.457 395.954 493.78 395.908 494.1 395.85C494.29 395.02 494.39 394.174 494.398 393.327C493.942 393.469 493.469 393.564 492.98 393.594Z" fill="#F79D80"/>
<path d="M467.278 404.967L467.278 404.967C464.919 407.326 461.094 407.326 458.735 404.967L455.25 401.482C452.891 399.123 452.891 395.298 455.25 392.939C457.609 390.58 461.434 390.58 463.793 392.939L467.278 396.424C469.637 398.783 469.637 402.608 467.278 404.967Z" fill="#FAAB74"/>
<path d="M483.245 401.694C480.395 401.64 477.998 406.143 477.918 410.325C477.838 414.507 480.128 415.627 482.978 415.681C485.828 415.736 488.159 414.705 488.239 410.523C488.319 406.341 486.095 401.749 483.245 401.694Z" fill="#A33823"/>
<path d="M485.819 402.797C484.876 400.107 479.819 399.431 475.872 400.815C471.924 402.198 471.674 404.735 472.617 407.425C473.56 410.115 475.339 411.94 479.287 410.557C483.234 409.173 486.762 405.488 485.819 402.797Z" fill="#D8542B"/>
<path d="M560.74 371.057L558.211 373.587C553.631 378.166 546.205 378.166 541.626 373.587L538.2 370.16C536.696 368.656 536.696 366.215 538.2 364.711C538.952 363.959 539.94 363.585 540.924 363.585C541.913 363.581 542.897 363.959 543.649 364.711L546.543 367.604C547.831 368.892 549.922 368.892 551.21 367.604C551.82 366.994 552.144 366.205 552.168 365.399C552.174 365.358 552.174 365.311 552.174 365.271C552.174 364.428 551.854 363.581 551.21 362.937L538.173 349.9L550.201 337.871L560.736 348.406C562.139 349.809 563.225 351.407 564.001 353.114C564.685 354.628 565.124 356.226 565.316 357.848C565.876 362.549 564.348 367.449 560.74 371.057Z" fill="#F47F51"/>
<path d="M550.671 368.143C550.759 368.055 550.838 367.961 550.912 367.865C549.617 368.883 547.736 368.798 546.543 367.604L543.649 364.711C542.897 363.959 541.913 363.581 540.924 363.585C539.94 363.585 538.952 363.959 538.2 364.711C538.167 364.744 538.138 364.78 538.107 364.814C538.796 364.176 539.694 363.874 540.603 363.906C541.556 363.937 542.52 364.336 543.272 365.088L546.165 367.981C547.454 369.27 549.472 369.342 550.671 368.143Z" fill="#FBC3B1"/>
<path d="M565.316 357.848C565.124 356.226 564.685 354.628 564.001 353.114C563.225 351.407 562.139 349.809 560.736 348.406L550.201 337.871L548.669 339.404L559.204 349.939C560.607 351.342 561.71 352.922 562.518 354.596C563.231 356.082 563.71 357.64 563.951 359.213C564.655 363.77 563.349 368.448 559.991 371.806L560.74 371.057C564.348 367.449 565.876 362.549 565.316 357.848Z" fill="#FBC3B1"/>
<path d="M557.169 352.763L553.065 356.867C551.54 358.391 549.564 359.201 547.561 359.288L544.587 356.314C546.799 357.393 549.544 357.015 551.378 355.181L555.482 351.077C557.317 349.242 557.691 346.487 556.605 344.275L559.59 347.259C559.502 349.263 558.693 351.239 557.169 352.763Z" fill="#F79D80"/>
<path d="M540.231 372.192C540.405 371.512 540.753 370.868 541.285 370.336L544.309 367.312C544.65 366.971 545.039 366.708 545.453 366.514L543.7 364.762C543.319 365.007 542.956 365.292 542.623 365.626L539.599 368.65C539.09 369.159 538.689 369.735 538.387 370.347L540.231 372.192Z" fill="#F79D80"/>
<path d="M563.094 360.354L558.457 363.837C556.68 365.17 554.494 365.729 552.296 365.419C552.255 365.412 552.211 365.409 552.168 365.399C552.174 365.358 552.174 365.311 552.174 365.271C552.174 364.428 551.854 363.581 551.21 362.937L550.717 362.445C551.308 362.752 551.955 362.961 552.633 363.059C554.198 363.281 555.759 362.88 557.024 361.932L561.664 358.445C562.928 357.498 563.748 356.112 563.97 354.547C564.038 354.068 564.048 353.586 564.001 353.114C564.685 354.628 565.124 356.226 565.316 357.848C564.763 358.813 564.014 359.663 563.094 360.354Z" fill="#F79D80"/>
<path d="M559.475 372.322L560.74 371.057C560.997 370.801 561.24 370.536 561.476 370.266C560.794 370.227 560.108 370.075 559.447 369.786L554.132 367.456C553.328 367.104 552.646 366.59 552.098 365.974C551.971 366.573 551.674 367.14 551.21 367.604C551.061 367.753 550.901 367.882 550.734 367.996C551.425 368.667 552.242 369.231 553.175 369.64L558.49 371.97C558.815 372.112 559.144 372.224 559.475 372.322Z" fill="#F79D80"/>
<path d="M549.544 375.602L549.185 369.809C549.159 369.383 549.181 368.961 549.244 368.548C548.442 368.637 547.615 368.432 546.934 367.934C546.813 368.594 546.762 369.27 546.805 369.957L547.164 375.749C547.184 376.078 547.23 376.401 547.288 376.721C548.118 376.911 548.964 377.011 549.812 377.019C549.669 376.563 549.574 376.09 549.544 375.602Z" fill="#F79D80"/>
<path d="M538.172 349.899C535.812 347.54 535.812 343.715 538.172 341.356L541.656 337.871C544.015 335.512 547.84 335.512 550.199 337.871H550.199C552.558 340.23 552.558 344.055 550.199 346.414L546.715 349.899C544.355 352.258 540.531 352.258 538.172 349.899Z" fill="#FAAB74"/>
<path d="M541.444 365.867C541.498 363.016 536.995 360.619 532.813 360.539C528.631 360.459 527.512 362.749 527.457 365.599C527.403 368.449 528.434 370.78 532.616 370.86C536.798 370.94 541.389 368.717 541.444 365.867Z" fill="#A33823"/>
<path d="M540.341 368.44C543.031 367.497 543.707 362.44 542.324 358.493C540.94 354.546 538.403 354.295 535.713 355.238C533.023 356.181 531.198 357.96 532.582 361.908C533.965 365.855 537.651 369.383 540.341 368.44Z" fill="#D8542B"/>
<path d="M527.884 441.006L525.355 443.535C520.776 448.115 513.35 448.115 508.77 443.535L505.344 440.109C503.84 438.605 503.84 436.164 505.344 434.66C506.096 433.908 507.084 433.533 508.069 433.533C509.057 433.53 510.042 433.908 510.794 434.66L513.687 437.553C514.975 438.841 517.066 438.841 518.354 437.553C518.965 436.943 519.288 436.153 519.312 435.348C519.319 435.307 519.319 435.26 519.319 435.219C519.319 434.376 518.998 433.53 518.354 432.886L505.317 419.849L517.346 407.82L527.881 418.355C529.284 419.758 530.37 421.356 531.145 423.062C531.83 424.577 532.268 426.175 532.46 427.797C533.02 432.498 531.493 437.398 527.884 441.006Z" fill="#F47F51"/>
<path d="M517.816 438.092C517.904 438.004 517.982 437.91 518.057 437.814C516.762 438.832 514.881 438.746 513.687 437.553L510.794 434.66C510.042 433.908 509.057 433.53 508.069 433.533C507.084 433.533 506.096 433.908 505.344 434.66C505.311 434.693 505.283 434.728 505.251 434.762C505.94 434.124 506.838 433.823 507.747 433.855C508.701 433.886 509.665 434.285 510.417 435.037L513.31 437.93C514.598 439.218 516.617 439.291 517.816 438.092Z" fill="#FBC3B1"/>
<path d="M532.461 427.797C532.268 426.175 531.83 424.577 531.145 423.062C530.37 421.356 529.284 419.758 527.881 418.355L517.346 407.82L515.813 409.353L526.348 419.887C527.751 421.29 528.855 422.871 529.663 424.545C530.376 426.031 530.854 427.589 531.096 429.161C531.799 433.719 530.494 438.397 527.135 441.755L527.884 441.006C531.493 437.398 533.02 432.498 532.461 427.797Z" fill="#FBC3B1"/>
<path d="M524.313 422.712L520.209 426.816C518.685 428.34 516.709 429.149 514.706 429.237L511.731 426.263C513.943 427.342 516.689 426.964 518.523 425.13L522.627 421.026C524.462 419.191 524.836 416.436 523.75 414.224L526.734 417.208C526.647 419.211 525.837 421.188 524.313 422.712Z" fill="#F79D80"/>
<path d="M507.376 442.141C507.55 441.461 507.898 440.816 508.429 440.285L511.454 437.26C511.795 436.919 512.184 436.657 512.597 436.463L510.845 434.711C510.463 434.955 510.101 435.241 509.768 435.574L506.743 438.599C506.234 439.108 505.834 439.684 505.531 440.296L507.376 442.141Z" fill="#F79D80"/>
<path d="M530.238 430.303L525.601 433.786C523.824 435.118 521.639 435.678 519.44 435.368C519.4 435.361 519.356 435.358 519.312 435.348C519.319 435.307 519.319 435.26 519.319 435.219C519.319 434.376 518.998 433.53 518.354 432.886L517.862 432.393C518.452 432.7 519.1 432.909 519.777 433.007C521.342 433.23 522.904 432.828 524.168 431.881L528.808 428.394C530.073 427.446 530.892 426.06 531.115 424.496C531.182 424.017 531.193 423.535 531.145 423.062C531.83 424.577 532.268 426.175 532.461 427.797C531.907 428.762 531.159 429.611 530.238 430.303Z" fill="#F79D80"/>
<path d="M526.62 442.27L527.884 441.006C528.141 440.749 528.385 440.484 528.62 440.215C527.939 440.176 527.253 440.024 526.592 439.734L521.277 437.405C520.473 437.053 519.791 436.539 519.242 435.923C519.115 436.522 518.818 437.089 518.354 437.553C518.206 437.701 518.046 437.831 517.879 437.945C518.57 438.616 519.386 439.18 520.319 439.589L525.635 441.918C525.959 442.061 526.289 442.173 526.62 442.27Z" fill="#F79D80"/>
<path d="M516.689 445.55L516.33 439.758C516.303 439.331 516.326 438.91 516.388 438.497C515.586 438.586 514.76 438.38 514.079 437.883C513.958 438.543 513.907 439.219 513.949 439.906L514.308 445.698C514.329 446.027 514.375 446.35 514.432 446.67C515.263 446.86 516.109 446.96 516.956 446.967C516.814 446.512 516.719 446.039 516.689 445.55Z" fill="#F79D80"/>
<path d="M505.316 419.848H505.316C502.957 417.488 502.957 413.664 505.316 411.305L508.801 407.82C511.16 405.461 514.985 405.461 517.344 407.82V407.82C519.703 410.179 519.703 414.004 517.344 416.363L513.859 419.848C511.5 422.207 507.675 422.207 505.316 419.848Z" fill="#FAAB74"/>
<path d="M508.588 435.815C508.643 432.965 504.139 430.568 499.957 430.488C495.775 430.408 494.656 432.698 494.602 435.548C494.547 438.398 495.578 440.729 499.76 440.809C503.942 440.889 508.534 438.665 508.588 435.815Z" fill="#A33823"/>
<path d="M507.485 438.389C510.176 437.446 510.852 432.389 509.468 428.442C508.085 424.494 505.548 424.244 502.858 425.187C500.168 426.13 498.343 427.909 499.726 431.856C501.11 435.804 504.795 439.332 507.485 438.389Z" fill="#D8542B"/>
<path d="M565.455 423.869L567.984 426.398C572.563 430.978 579.989 430.978 584.569 426.398L587.995 422.972C589.499 421.468 589.499 419.026 587.995 417.522C587.243 416.77 586.255 416.396 585.27 416.396C584.282 416.393 583.297 416.77 582.545 417.522L579.652 420.416C578.364 421.704 576.273 421.704 574.985 420.416C574.374 419.805 574.051 419.016 574.027 418.21C574.02 418.17 574.02 418.123 574.02 418.082C574.02 417.239 574.341 416.393 574.985 415.749L588.022 402.711L575.993 390.683L565.458 401.217C564.055 402.62 562.969 404.219 562.194 405.925C561.509 407.439 561.071 409.038 560.879 410.66C560.319 415.361 561.846 420.261 565.455 423.869Z" fill="#F47F51"/>
<path d="M575.523 420.954C575.435 420.867 575.357 420.773 575.282 420.677C576.577 421.695 578.458 421.609 579.652 420.416L582.545 417.522C583.297 416.77 584.282 416.393 585.27 416.396C586.255 416.396 587.243 416.77 587.995 417.522C588.028 417.555 588.056 417.591 588.088 417.625C587.399 416.987 586.501 416.685 585.592 416.718C584.638 416.749 583.674 417.147 582.922 417.899L580.029 420.793C578.741 422.081 576.722 422.153 575.523 420.954Z" fill="#FBC3B1"/>
<path d="M560.879 410.66C561.071 409.038 561.509 407.439 562.194 405.925C562.969 404.219 564.055 402.62 565.458 401.217L575.993 390.683L577.526 392.215L566.991 402.75C565.588 404.153 564.484 405.734 563.677 407.408C562.963 408.893 562.485 410.452 562.243 412.024C561.54 416.582 562.845 421.259 566.204 424.618L565.455 423.869C561.846 420.261 560.319 415.361 560.879 410.66Z" fill="#FBC3B1"/>
<path d="M569.026 405.574L573.13 409.679C574.654 411.203 576.63 412.012 578.633 412.1L581.608 409.125C579.396 410.205 576.651 409.827 574.816 407.992L570.712 403.888C568.878 402.054 568.503 399.299 569.589 397.086L566.605 400.071C566.692 402.074 567.502 404.05 569.026 405.574Z" fill="#F79D80"/>
<path d="M585.963 425.003C585.789 424.323 585.441 423.679 584.91 423.148L581.885 420.123C581.544 419.782 581.155 419.519 580.742 419.326L582.494 417.573C582.876 417.818 583.238 418.104 583.571 418.437L586.596 421.462C587.105 421.971 587.505 422.547 587.808 423.159L585.963 425.003Z" fill="#F79D80"/>
<path d="M563.101 413.165L567.738 416.649C569.515 417.981 571.7 418.541 573.899 418.231C573.939 418.224 573.983 418.22 574.027 418.21C574.02 418.17 574.02 418.123 574.02 418.082C574.02 417.239 574.341 416.393 574.985 415.749L575.477 415.256C574.887 415.563 574.239 415.772 573.562 415.87C571.997 416.093 570.436 415.691 569.171 414.744L564.531 411.257C563.266 410.309 562.447 408.923 562.224 407.358C562.157 406.88 562.147 406.397 562.194 405.925C561.509 407.439 561.071 409.038 560.879 410.66C561.432 411.624 562.18 412.474 563.101 413.165Z" fill="#F79D80"/>
<path d="M566.719 425.133L565.455 423.869C565.198 423.612 564.955 423.347 564.719 423.078C565.4 423.038 566.086 422.887 566.747 422.597L572.062 420.268C572.866 419.915 573.548 419.402 574.097 418.786C574.224 419.385 574.521 419.952 574.985 420.416C575.133 420.564 575.293 420.694 575.461 420.808C574.77 421.478 573.953 422.043 573.02 422.452L567.704 424.781C567.38 424.923 567.05 425.035 566.719 425.133Z" fill="#F79D80"/>
<path d="M576.65 428.413L577.009 422.621C577.036 422.194 577.013 421.772 576.951 421.359C577.753 421.449 578.58 421.243 579.26 420.746C579.381 421.405 579.432 422.082 579.39 422.768L579.031 428.56C579.01 428.89 578.964 429.213 578.907 429.533C578.077 429.723 577.23 429.823 576.383 429.83C576.526 429.375 576.62 428.902 576.65 428.413Z" fill="#F79D80"/>
<path d="M588.023 402.71V402.71C590.382 400.351 590.382 396.526 588.023 394.167L584.538 390.683C582.179 388.323 578.354 388.323 575.995 390.683C573.636 393.042 573.636 396.867 575.995 399.226L579.48 402.71C581.839 405.069 585.664 405.069 588.023 402.71Z" fill="#FAAB74"/>
<path d="M584.751 418.678C584.696 415.828 589.2 413.43 593.382 413.351C597.564 413.271 598.683 415.561 598.737 418.411C598.792 421.261 597.761 423.592 593.579 423.672C589.397 423.752 584.805 421.528 584.751 418.678Z" fill="#A33823"/>
<path d="M585.854 421.251C583.163 420.308 582.487 415.252 583.871 411.304C585.254 407.357 587.791 407.107 590.481 408.05C593.171 408.993 594.996 410.772 593.613 414.719C592.229 418.666 588.544 422.194 585.854 421.251Z" fill="#D8542B"/>
<path d="M562.085 545.073L564.614 547.602C569.194 552.181 576.619 552.181 581.199 547.602L584.625 544.176C586.129 542.672 586.129 540.23 584.625 538.726C583.873 537.974 582.885 537.6 581.9 537.6C580.912 537.596 579.927 537.974 579.175 538.726L576.282 541.619C574.994 542.908 572.903 542.908 571.615 541.619C571.005 541.009 570.681 540.22 570.657 539.414C570.65 539.373 570.65 539.326 570.65 539.286C570.65 538.443 570.971 537.596 571.615 536.952L584.652 523.915L572.623 511.886L562.088 522.421C560.685 523.824 559.599 525.422 558.824 527.129C558.139 528.643 557.701 530.241 557.509 531.863C556.949 536.564 558.477 541.464 562.085 545.073Z" fill="#F47F51"/>
<path d="M572.154 542.158C572.066 542.07 571.987 541.977 571.913 541.881C573.207 542.899 575.089 542.813 576.282 541.619L579.175 538.726C579.927 537.974 580.912 537.596 581.9 537.6C582.885 537.6 583.873 537.974 584.625 538.726C584.658 538.759 584.686 538.795 584.718 538.829C584.029 538.191 583.131 537.889 582.222 537.922C581.268 537.952 580.305 538.351 579.553 539.103L576.659 541.997C575.371 543.285 573.353 543.357 572.154 542.158Z" fill="#FBC3B1"/>
<path d="M557.509 531.863C557.701 530.241 558.139 528.643 558.824 527.129C559.599 525.422 560.685 523.824 562.088 522.421L572.623 511.886L574.156 513.419L563.621 523.954C562.218 525.357 561.114 526.937 560.307 528.612C559.593 530.097 559.115 531.655 558.873 533.228C558.17 537.786 559.475 542.463 562.834 545.822L562.085 545.073C558.477 541.464 556.949 536.564 557.509 531.863Z" fill="#FBC3B1"/>
<path d="M565.656 526.778L569.76 530.882C571.284 532.406 573.261 533.216 575.264 533.303L578.238 530.329C576.026 531.408 573.281 531.031 571.446 529.196L567.342 525.092C565.508 523.258 565.133 520.502 566.219 518.29L563.235 521.275C563.323 523.278 564.132 525.254 565.656 526.778Z" fill="#F79D80"/>
<path d="M582.593 546.207C582.42 545.527 582.071 544.883 581.54 544.351L578.515 541.327C578.174 540.986 577.786 540.723 577.372 540.529L579.124 538.777C579.506 539.022 579.868 539.308 580.202 539.641L583.226 542.665C583.735 543.174 584.135 543.75 584.438 544.363L582.593 546.207Z" fill="#F79D80"/>
<path d="M559.731 534.369L564.368 537.853C566.145 539.185 568.33 539.744 570.529 539.434C570.569 539.427 570.613 539.424 570.657 539.414C570.65 539.373 570.65 539.326 570.65 539.286C570.65 538.443 570.971 537.596 571.615 536.952L572.107 536.46C571.517 536.767 570.87 536.976 570.192 537.074C568.627 537.296 567.066 536.895 565.801 535.947L561.161 532.46C559.896 531.513 559.077 530.127 558.854 528.562C558.787 528.083 558.777 527.601 558.824 527.129C558.139 528.643 557.701 530.241 557.509 531.863C558.062 532.828 558.81 533.678 559.731 534.369Z" fill="#F79D80"/>
<path d="M563.349 546.337L562.085 545.073C561.828 544.816 561.585 544.551 561.349 544.281C562.031 544.242 562.716 544.09 563.377 543.801L568.692 541.471C569.496 541.119 570.178 540.605 570.727 539.989C570.854 540.588 571.151 541.156 571.615 541.619C571.763 541.768 571.923 541.897 572.091 542.011C571.4 542.682 570.583 543.246 569.65 543.655L564.334 545.985C564.01 546.127 563.68 546.239 563.349 546.337Z" fill="#F79D80"/>
<path d="M573.281 549.617L573.64 543.825C573.666 543.398 573.643 542.976 573.581 542.563C574.383 542.652 575.21 542.447 575.891 541.949C576.011 542.609 576.062 543.286 576.02 543.972L575.661 549.764C575.64 550.093 575.594 550.417 575.537 550.736C574.707 550.927 573.86 551.026 573.013 551.034C573.156 550.579 573.25 550.105 573.281 549.617Z" fill="#F79D80"/>
<path d="M584.653 523.914C587.012 521.555 587.012 517.73 584.653 515.371L581.168 511.886C578.809 509.527 574.984 509.527 572.625 511.886C570.266 514.245 570.266 518.07 572.625 520.429L576.11 523.914C578.469 526.273 582.294 526.273 584.653 523.914Z" fill="#FAAB74"/>
<path d="M581.381 539.882C581.326 537.032 585.83 534.634 590.012 534.554C594.194 534.474 595.313 536.764 595.368 539.615C595.422 542.465 594.391 544.796 590.209 544.875C586.027 544.955 581.435 542.732 581.381 539.882Z" fill="#A33823"/>
<path d="M582.484 542.455C579.794 541.512 579.117 536.455 580.501 532.508C581.885 528.561 584.421 528.31 587.111 529.253C589.802 530.196 591.627 531.976 590.243 535.923C588.859 539.87 585.174 543.398 582.484 542.455Z" fill="#D8542B"/>
<path d="M466.467 531.915L463.938 534.445C459.359 539.024 459.359 546.45 463.938 551.029L467.365 554.456C468.868 555.96 471.31 555.96 472.814 554.456C473.566 553.704 473.94 552.715 473.94 551.731C473.944 550.743 473.566 549.758 472.814 549.006L469.921 546.112C468.632 544.824 468.632 542.734 469.921 541.445C470.531 540.835 471.32 540.511 472.126 540.488C472.167 540.481 472.214 540.481 472.254 540.481C473.097 540.481 473.944 540.801 474.588 541.445L487.625 554.482L499.654 542.454L489.119 531.919C487.716 530.516 486.118 529.43 484.411 528.654C482.897 527.97 481.299 527.531 479.677 527.339C474.976 526.779 470.076 528.307 466.467 531.915Z" fill="#F47F51"/>
<path d="M469.382 541.984C469.47 541.896 469.563 541.817 469.66 541.743C468.642 543.038 468.727 544.919 469.921 546.112L472.814 549.006C473.566 549.758 473.944 550.743 473.94 551.731C473.94 552.715 473.566 553.703 472.814 554.456C472.781 554.489 472.745 554.517 472.711 554.548C473.349 553.859 473.651 552.962 473.619 552.053C473.588 551.099 473.189 550.135 472.437 549.383L469.543 546.49C468.255 545.201 468.183 543.183 469.382 541.984Z" fill="#FBC3B1"/>
<path d="M479.677 527.339C481.299 527.531 482.897 527.97 484.411 528.654C486.118 529.43 487.716 530.516 489.119 531.919L499.654 542.454L498.121 543.986L487.586 533.451C486.183 532.049 484.603 530.945 482.928 530.137C481.443 529.424 479.885 528.945 478.312 528.704C473.755 528.001 469.077 529.306 465.719 532.664L466.467 531.915C470.076 528.307 474.976 526.779 479.677 527.339Z" fill="#FBC3B1"/>
<path d="M484.762 535.487L480.658 539.591C479.134 541.115 478.324 543.091 478.237 545.094L481.211 548.068C480.132 545.856 480.509 543.111 482.344 541.277L486.448 537.173C488.283 535.338 491.038 534.964 493.25 536.05L490.265 533.065C488.262 533.153 486.286 533.962 484.762 535.487Z" fill="#F79D80"/>
<path d="M465.333 552.424C466.013 552.25 466.657 551.902 467.189 551.37L470.213 548.346C470.554 548.005 470.817 547.616 471.011 547.203L472.763 548.955C472.518 549.336 472.232 549.699 471.899 550.032L468.875 553.057C468.366 553.566 467.79 553.966 467.177 554.269L465.333 552.424Z" fill="#F79D80"/>
<path d="M477.171 529.562L473.687 534.198C472.355 535.976 471.796 538.161 472.106 540.359C472.113 540.4 472.116 540.444 472.126 540.488C472.167 540.481 472.214 540.481 472.254 540.481C473.097 540.481 473.944 540.801 474.588 541.445L475.08 541.938C474.773 541.348 474.564 540.7 474.466 540.022C474.244 538.458 474.645 536.896 475.593 535.632L479.08 530.991C480.027 529.727 481.413 528.907 482.978 528.685C483.457 528.617 483.939 528.607 484.411 528.654C482.897 527.97 481.299 527.531 479.677 527.339C478.712 527.892 477.862 528.641 477.171 529.562Z" fill="#F79D80"/>
<path d="M465.203 533.18L466.467 531.915C466.724 531.659 466.989 531.415 467.259 531.179C467.298 531.861 467.45 532.547 467.739 533.208L470.069 538.523C470.421 539.327 470.935 540.009 471.551 540.557C470.952 540.684 470.384 540.982 469.921 541.445C469.772 541.594 469.643 541.754 469.529 541.921C468.858 541.23 468.294 540.413 467.885 539.481L465.555 534.165C465.413 533.84 465.301 533.511 465.203 533.18Z" fill="#F79D80"/>
<path d="M461.923 543.111L467.716 543.47C468.142 543.496 468.564 543.474 468.977 543.411C468.888 544.214 469.093 545.04 469.591 545.721C468.931 545.842 468.255 545.893 467.568 545.85L461.776 545.491C461.447 545.471 461.123 545.425 460.804 545.367C460.613 544.537 460.514 543.691 460.506 542.844C460.961 542.986 461.435 543.081 461.923 543.111Z" fill="#F79D80"/>
<path d="M487.626 554.484C489.985 556.843 493.81 556.843 496.169 554.484L499.654 550.999C502.013 548.64 502.013 544.815 499.654 542.456H499.654C497.295 540.097 493.47 540.097 491.111 542.456L487.626 545.941C485.267 548.3 485.267 552.125 487.626 554.484Z" fill="#FAAB74"/>
<path d="M471.658 551.211C474.509 551.157 476.906 555.66 476.986 559.842C477.066 564.024 474.776 565.144 471.926 565.198C469.076 565.252 466.745 564.221 466.665 560.039C466.585 555.858 468.808 551.266 471.658 551.211Z" fill="#A33823"/>
<path d="M469.085 552.314C470.028 549.624 475.085 548.948 479.032 550.332C482.979 551.715 483.23 554.252 482.287 556.942C481.344 559.632 479.564 561.457 475.617 560.073C471.67 558.69 468.142 555.004 469.085 552.314Z" fill="#D8542B"/>
<path d="M573.045 446.413L575.575 448.943C580.154 453.522 580.154 460.948 575.575 465.527L572.148 468.954C570.644 470.458 568.203 470.458 566.699 468.954C565.947 468.202 565.573 467.214 565.573 466.229C565.569 465.241 565.947 464.256 566.699 463.504L569.592 460.611C570.88 459.322 570.88 457.232 569.592 455.943C568.982 455.333 568.193 455.009 567.387 454.986C567.346 454.979 567.299 454.979 567.259 454.979C566.416 454.979 565.569 455.299 564.925 455.943L551.888 468.981L539.859 456.952L550.394 446.417C551.797 445.014 553.395 443.928 555.102 443.153C556.616 442.468 558.214 442.03 559.836 441.837C564.537 441.278 569.437 442.805 573.045 446.413Z" fill="#F47F51"/>
<path d="M570.131 456.482C570.043 456.394 569.949 456.315 569.853 456.241C570.871 457.536 570.786 459.417 569.592 460.611L566.699 463.504C565.947 464.256 565.569 465.241 565.573 466.229C565.573 467.214 565.947 468.202 566.699 468.954C566.732 468.987 566.768 469.015 566.802 469.047C566.163 468.358 565.862 467.46 565.894 466.551C565.925 465.597 566.324 464.633 567.076 463.881L569.969 460.988C571.258 459.7 571.33 457.681 570.131 456.482Z" fill="#FBC3B1"/>
<path d="M559.836 441.837C558.214 442.03 556.616 442.468 555.102 443.153C553.395 443.928 551.797 445.014 550.394 446.417L539.859 456.952L541.392 458.485L551.927 447.95C553.33 446.547 554.91 445.443 556.584 444.635C558.07 443.922 559.628 443.443 561.201 443.202C565.758 442.499 570.436 443.804 573.794 447.162L573.045 446.413C569.437 442.805 564.537 441.278 559.836 441.837Z" fill="#FBC3B1"/>
<path d="M554.751 449.985L558.855 454.089C560.379 455.613 561.189 457.589 561.276 459.592L558.302 462.567C559.381 460.354 559.003 457.609 557.169 455.775L553.065 451.671C551.23 449.836 548.475 449.462 546.263 450.548L549.247 447.563C551.251 447.651 553.227 448.46 554.751 449.985Z" fill="#F79D80"/>
<path d="M574.18 466.922C573.5 466.748 572.856 466.4 572.324 465.869L569.3 462.844C568.959 462.503 568.696 462.114 568.502 461.701L566.75 463.453C566.995 463.834 567.28 464.197 567.614 464.53L570.638 467.555C571.147 468.064 571.723 468.464 572.335 468.767L574.18 466.922Z" fill="#F79D80"/>
<path d="M562.342 444.06L565.825 448.697C567.157 450.474 567.717 452.659 567.407 454.858C567.4 454.898 567.397 454.942 567.387 454.986C567.346 454.979 567.299 454.979 567.259 454.979C566.416 454.979 565.569 455.299 564.925 455.943L564.433 456.436C564.739 455.846 564.949 455.198 565.046 454.52C565.269 452.956 564.868 451.394 563.92 450.13L560.433 445.49C559.486 444.225 558.1 443.405 556.535 443.183C556.056 443.115 555.574 443.105 555.102 443.153C556.616 442.468 558.214 442.03 559.836 441.837C560.801 442.39 561.651 443.139 562.342 444.06Z" fill="#F79D80"/>
<path d="M574.31 447.678L573.045 446.413C572.789 446.157 572.524 445.913 572.254 445.678C572.215 446.359 572.063 447.045 571.774 447.706L569.444 453.021C569.092 453.825 568.578 454.507 567.962 455.055C568.561 455.182 569.128 455.48 569.592 455.943C569.741 456.092 569.87 456.252 569.984 456.419C570.655 455.728 571.219 454.911 571.628 453.979L573.958 448.663C574.1 448.338 574.212 448.009 574.31 447.678Z" fill="#F79D80"/>
<path d="M577.589 457.609L571.797 457.968C571.371 457.995 570.949 457.972 570.536 457.909C570.625 458.712 570.42 459.538 569.922 460.219C570.582 460.34 571.258 460.391 571.945 460.348L577.737 459.99C578.066 459.969 578.389 459.923 578.709 459.865C578.899 459.035 578.999 458.189 579.007 457.342C578.551 457.484 578.078 457.579 577.589 457.609Z" fill="#F79D80"/>
<path d="M551.887 468.982C549.528 471.341 545.703 471.341 543.344 468.982L539.859 465.497C537.5 463.138 537.5 459.313 539.859 456.954V456.954C542.218 454.595 546.043 454.595 548.402 456.954L551.887 460.439C554.246 462.798 554.246 466.623 551.887 468.982Z" fill="#FAAB74"/>
<path d="M567.855 465.709C565.004 465.655 562.607 470.159 562.527 474.34C562.447 478.522 564.737 479.642 567.587 479.696C570.437 479.751 572.768 478.72 572.848 474.538C572.928 470.356 570.705 465.764 567.855 465.709Z" fill="#A33823"/>
<path d="M570.428 466.812C569.485 464.122 564.428 463.446 560.481 464.83C556.533 466.213 556.283 468.75 557.226 471.44C558.169 474.13 559.948 475.955 563.896 474.572C567.843 473.188 571.371 469.502 570.428 466.812Z" fill="#D8542B"/>
<path d="M604.336 483.314C603.437 482.416 601.981 482.416 601.082 483.314L595.602 488.795C594.703 489.693 594.703 491.15 595.602 492.048C596.5 492.947 597.957 492.947 598.855 492.048L604.336 486.568C605.234 485.669 605.234 484.213 604.336 483.314Z" fill="#F05B71"/>
<path d="M525.026 545.164C523.755 545.164 522.725 546.194 522.725 547.465V555.216C522.725 556.486 523.755 557.516 525.026 557.516C526.296 557.516 527.326 556.486 527.326 555.216V547.465C527.326 546.194 526.296 545.164 525.026 545.164Z" fill="#F05B71"/>
<path d="M548.742 405.345C547.472 405.345 546.442 406.375 546.442 407.646V415.396C546.442 416.667 547.472 417.697 548.742 417.697C550.013 417.697 551.043 416.667 551.043 415.396V407.646C551.043 406.375 550.013 405.345 548.742 405.345Z" fill="#FFD54C"/>
<path d="M473.067 468.798C472.168 469.697 472.168 471.153 473.067 472.052L478.547 477.532C479.445 478.431 480.902 478.431 481.801 477.532C482.699 476.634 482.699 475.177 481.801 474.279L476.32 468.798C475.422 467.9 473.965 467.9 473.067 468.798Z" fill="#FFD54C"/>
<path d="M582.119 453.015C581.08 456.916 582.079 461.247 585.139 464.307C586.693 465.862 588.575 466.884 590.563 467.378C594.086 468.254 597.357 464.983 596.481 461.459C595.987 459.472 594.965 457.59 593.411 456.036C590.351 452.976 586.02 451.976 582.119 453.015Z" fill="#69BE5A"/>
<path d="M596.481 461.459C595.987 459.472 594.965 457.59 593.411 456.036C590.351 452.976 586.02 451.976 582.119 453.015L595.172 466.068C596.32 464.92 596.919 463.221 596.481 461.459Z" fill="#599F4D"/>
<path d="M595.389 628.103C593.915 628.103 592.721 626.909 592.721 625.436C592.721 623.962 593.915 622.768 595.389 622.768C610.906 622.768 623.531 610.143 623.531 594.626C623.531 593.152 624.725 591.958 626.199 591.958C627.672 591.958 628.866 593.152 628.866 594.626C628.866 613.085 613.848 628.103 595.389 628.103Z" fill="white"/>
<path d="M467.277 628.103C451.022 628.103 437.159 616.494 434.317 600.499C434.059 599.049 435.026 597.664 436.476 597.407C437.926 597.144 439.312 598.114 439.569 599.566C441.959 613.01 453.612 622.768 467.277 622.768C468.751 622.768 469.945 623.962 469.945 625.436C469.945 626.909 468.751 628.103 467.277 628.103Z" fill="white"/>
<path d="M604.952 636.815C603.479 636.815 602.285 635.621 602.285 634.148C602.285 632.674 603.479 631.48 604.952 631.48C620.47 631.48 633.095 618.855 633.095 603.338C633.095 601.864 634.289 600.67 635.762 600.67C637.236 600.67 638.43 601.864 638.43 603.338C638.43 621.797 623.411 636.815 604.952 636.815Z" fill="white"/>
<path d="M349.986 659.313H195.046V674.874H349.986C354.283 674.874 357.766 671.39 357.766 667.093C357.766 662.797 354.283 659.313 349.986 659.313Z" fill="#FFD67B"/>
<path d="M247.864 659.313H195.046V674.874H247.864V659.313Z" fill="#EDBF65"/>
<path d="M255.098 659.313H247.864V674.874H255.098V659.313Z" fill="#FFE4AE"/>
<path d="M216.92 659.313H195.046V674.874H216.92V659.313Z" fill="#FFE4AE"/>
<path d="M311.062 651.933H290.025C287.987 651.933 286.335 653.585 286.335 655.623C286.335 657.661 287.987 659.313 290.025 659.313H311.062C313.1 659.313 314.752 657.661 314.752 655.623C314.752 653.585 313.1 651.933 311.062 651.933Z" fill="#599F4D"/>
<path d="M274.945 651.933H253.908C251.87 651.933 250.218 653.585 250.218 655.623C250.218 657.661 251.87 659.313 253.908 659.313H274.945C276.983 659.313 278.635 657.661 278.635 655.623C278.635 653.585 276.983 651.933 274.945 651.933Z" fill="#69BE5A"/>
<path d="M325.882 652.077L305.669 646.244C303.711 645.679 301.666 646.808 301.101 648.766C300.536 650.724 301.665 652.77 303.623 653.335L323.835 659.168C325.793 659.733 327.839 658.603 328.404 656.645V656.645C328.969 654.687 327.84 652.642 325.882 652.077Z" fill="#69BE5A"/>
<path d="M337.996 659.313C339.492 659.313 340.704 658.101 340.704 656.605C340.704 655.11 339.492 653.897 337.996 653.897C336.501 653.897 335.288 655.11 335.288 656.605C335.288 658.101 336.501 659.313 337.996 659.313Z" fill="#E04362"/>
<path d="M337.996 653.897H334.342V659.313H337.996V653.897Z" fill="#E04362"/>
<path d="M334.342 659.313C335.838 659.313 337.05 658.101 337.05 656.605C337.05 655.11 335.838 653.897 334.342 653.897C332.847 653.897 331.634 655.11 331.634 656.605C331.634 658.101 332.847 659.313 334.342 659.313Z" fill="#F05B71"/>
<path d="M324.525 659.313C326.021 659.313 327.233 658.101 327.233 656.605C327.233 655.11 326.021 653.897 324.525 653.897C323.03 653.897 321.817 655.11 321.817 656.605C321.817 658.101 323.03 659.313 324.525 659.313Z" fill="#E04362"/>
<path d="M324.525 653.897H320.871V659.313H324.525V653.897Z" fill="#E04362"/>
<path d="M320.871 659.313C322.367 659.313 323.579 658.101 323.579 656.605C323.579 655.11 322.367 653.897 320.871 653.897C319.376 653.897 318.163 655.11 318.163 656.605C318.163 658.101 319.376 659.313 320.871 659.313Z" fill="#F05B71"/>
<path d="M304.523 659.313C306.018 659.313 307.231 658.101 307.231 656.605C307.231 655.11 306.018 653.897 304.523 653.897C303.027 653.897 301.815 655.11 301.815 656.605C301.815 658.101 303.027 659.313 304.523 659.313Z" fill="#E04362"/>
<path d="M304.523 653.897H300.869V659.313H304.523V653.897Z" fill="#E04362"/>
<path d="M300.869 659.313C302.364 659.313 303.577 658.101 303.577 656.605C303.577 655.11 302.364 653.897 300.869 653.897C299.373 653.897 298.161 655.11 298.161 656.605C298.161 658.101 299.373 659.313 300.869 659.313Z" fill="#F05B71"/>
<path d="M289.891 659.313C291.387 659.313 292.599 658.101 292.599 656.605C292.599 655.11 291.387 653.897 289.891 653.897C288.396 653.897 287.183 655.11 287.183 656.605C287.183 658.101 288.396 659.313 289.891 659.313Z" fill="#E04362"/>
<path d="M289.891 653.897H286.237V659.313H289.891V653.897Z" fill="#E04362"/>
<path d="M286.237 659.313C287.733 659.313 288.945 658.101 288.945 656.605C288.945 655.11 287.733 653.897 286.237 653.897C284.742 653.897 283.529 655.11 283.529 656.605C283.529 658.101 284.742 659.313 286.237 659.313Z" fill="#F05B71"/>
<path d="M122.329 618.431H104.791V624.529H122.329V618.431Z" fill="#EDBF65"/>
<path d="M121.693 608.161H105.728C102.597 608.161 100.058 610.7 100.058 613.831C100.058 616.962 102.597 619.501 105.728 619.501H121.693C124.825 619.501 127.363 616.962 127.363 613.831C127.363 610.7 124.825 608.161 121.693 608.161Z" fill="#BDBDD1"/>
<path d="M104.859 616.681C105.369 616.681 105.783 616.267 105.783 615.757C105.783 615.247 105.369 614.833 104.859 614.833C104.349 614.833 103.936 615.247 103.936 615.757C103.936 616.267 104.349 616.681 104.859 616.681Z" fill="#A4A3BB"/>
<path d="M110.76 616.681C111.27 616.681 111.684 616.267 111.684 615.757C111.684 615.247 111.27 614.833 110.76 614.833C110.25 614.833 109.836 615.247 109.836 615.757C109.836 616.267 110.25 616.681 110.76 616.681Z" fill="#A4A3BB"/>
<path d="M116.661 616.681C117.171 616.681 117.585 616.267 117.585 615.757C117.585 615.247 117.171 614.833 116.661 614.833C116.151 614.833 115.737 615.247 115.737 615.757C115.737 616.267 116.151 616.681 116.661 616.681Z" fill="#A4A3BB"/>
<path d="M122.562 616.681C123.072 616.681 123.486 616.267 123.486 615.757C123.486 615.247 123.072 614.833 122.562 614.833C122.052 614.833 121.638 615.247 121.638 615.757C121.638 616.267 122.052 616.681 122.562 616.681Z" fill="#A4A3BB"/>
<path d="M107.81 612.829C108.32 612.829 108.733 612.415 108.733 611.905C108.733 611.395 108.32 610.981 107.81 610.981C107.3 610.981 106.886 611.395 106.886 611.905C106.886 612.415 107.3 612.829 107.81 612.829Z" fill="#A4A3BB"/>
<path d="M113.711 612.829C114.221 612.829 114.634 612.415 114.634 611.905C114.634 611.395 114.221 610.981 113.711 610.981C113.201 610.981 112.787 611.395 112.787 611.905C112.787 612.415 113.201 612.829 113.711 612.829Z" fill="#A4A3BB"/>
<path d="M119.612 612.829C120.122 612.829 120.535 612.415 120.535 611.905C120.535 611.395 120.122 610.981 119.612 610.981C119.101 610.981 118.688 611.395 118.688 611.905C118.688 612.415 119.101 612.829 119.612 612.829Z" fill="#A4A3BB"/>
<path d="M133.007 666.954L125.034 624.565C124.858 623.628 124.039 622.948 123.085 622.948H104.018C103.064 622.948 102.245 623.628 102.069 624.565L94.0958 666.954C93.7748 668.661 94.4848 670.397 95.9094 671.389L100.912 674.874H126.191L131.194 671.389C132.618 670.397 133.328 668.661 133.007 666.954Z" fill="#FFD67B"/>
<path d="M133.007 666.954L125.034 624.565C124.858 623.628 124.039 622.948 123.085 622.948H120.535L126.191 674.874L131.194 671.389C132.618 670.397 133.328 668.661 133.007 666.954Z" fill="#EDBF65"/>
<path d="M94.0958 666.954L102.069 624.565C102.245 623.628 103.064 622.948 104.018 622.948H106.568L100.912 674.874L95.9094 671.389C94.4848 670.397 93.7748 668.661 94.0958 666.954Z" fill="#FFE4AE"/>
<path d="M170.801 618.431H153.263V624.529H170.801V618.431Z" fill="#C74F50"/>
<path d="M170.166 608.161H154.2C151.069 608.161 148.531 610.7 148.531 613.831C148.531 616.962 151.069 619.501 154.2 619.501H170.166C173.297 619.501 175.836 616.962 175.836 613.831C175.836 610.7 173.297 608.161 170.166 608.161Z" fill="#BDBDD1"/>
<path d="M153.332 616.681C153.842 616.681 154.255 616.267 154.255 615.757C154.255 615.247 153.842 614.833 153.332 614.833C152.821 614.833 152.408 615.247 152.408 615.757C152.408 616.267 152.821 616.681 153.332 616.681Z" fill="#A4A3BB"/>
<path d="M159.233 616.681C159.743 616.681 160.156 616.267 160.156 615.757C160.156 615.247 159.743 614.833 159.233 614.833C158.722 614.833 158.309 615.247 158.309 615.757C158.309 616.267 158.722 616.681 159.233 616.681Z" fill="#A4A3BB"/>
<path d="M165.134 616.681C165.644 616.681 166.057 616.267 166.057 615.757C166.057 615.247 165.644 614.833 165.134 614.833C164.623 614.833 164.21 615.247 164.21 615.757C164.21 616.267 164.623 616.681 165.134 616.681Z" fill="#A4A3BB"/>
<path d="M171.034 616.681C171.545 616.681 171.958 616.267 171.958 615.757C171.958 615.247 171.545 614.833 171.034 614.833C170.524 614.833 170.111 615.247 170.111 615.757C170.111 616.267 170.524 616.681 171.034 616.681Z" fill="#A4A3BB"/>
<path d="M156.282 612.829C156.792 612.829 157.206 612.415 157.206 611.905C157.206 611.395 156.792 610.981 156.282 610.981C155.772 610.981 155.358 611.395 155.358 611.905C155.358 612.415 155.772 612.829 156.282 612.829Z" fill="#A4A3BB"/>
<path d="M162.183 612.829C162.693 612.829 163.107 612.415 163.107 611.905C163.107 611.395 162.693 610.981 162.183 610.981C161.673 610.981 161.259 611.395 161.259 611.905C161.259 612.415 161.673 612.829 162.183 612.829Z" fill="#A4A3BB"/>
<path d="M168.084 612.829C168.594 612.829 169.008 612.415 169.008 611.905C169.008 611.395 168.594 610.981 168.084 610.981C167.574 610.981 167.16 611.395 167.16 611.905C167.16 612.415 167.574 612.829 168.084 612.829Z" fill="#A4A3BB"/>
<path d="M181.48 666.954L173.507 624.565C173.33 623.628 172.511 622.948 171.557 622.948H152.491C151.537 622.948 150.718 623.628 150.541 624.565L142.568 666.954C142.247 668.661 142.957 670.397 144.382 671.389L149.385 674.874H174.663L179.666 671.389C181.091 670.397 181.801 668.661 181.48 666.954Z" fill="#E57373"/>
<path d="M181.48 666.954L173.507 624.565C173.33 623.628 172.511 622.948 171.557 622.948H169.008L174.663 674.874L179.666 671.389C181.091 670.397 181.801 668.661 181.48 666.954Z" fill="#C74F50"/>
<path d="M142.568 666.954L150.541 624.565C150.718 623.628 151.537 622.948 152.491 622.948H155.04L149.385 674.874L144.382 671.389C142.957 670.397 142.247 668.661 142.568 666.954Z" fill="#F19C9C"/>
</svg>
