<svg id="Capa_1" enable-background="new 0 0 512 512" height="512" viewBox="0 0 512 512" width="512" xmlns="http://www.w3.org/2000/svg"><g><path d="m274 120h-168c-8.284 0-15 6.716-15 15v60.109l-60.909 26.104c-5.515 2.363-9.091 7.787-9.091 13.787v30c0 8.284 6.716 15 15 15s15-6.716 15-15v-20.109l55-23.571 55 23.571v20.109c0 8.284 6.716 15 15 15s15-6.716 15-15v-30c0-6-3.576-11.424-9.091-13.787l-60.909-26.104v-45.109h153c8.284 0 15-6.716 15-15s-6.716-15-15-15z" fill="#f1f4f6"/><path d="m161 244.891v20.109c0 8.284 6.716 15 15 15s15-6.716 15-15v-30c0-6-3.576-11.424-9.091-13.787l-60.909-26.104v-45.109h153c8.284 0 15-6.716 15-15s-6.716-15-15-15h-168v101.319z" fill="#e2e2ea"/><path d="m106 180c-24.813 0-45-20.187-45-45s20.187-45 45-45 45 20.187 45 45-20.187 45-45 45z" fill="#0a617d"/><path d="m106 90v90c24.813 0 45-20.187 45-45s-20.187-45-45-45z" fill="#08475e"/><g><g><g><g><path d="m306 417h-100v-90c0-8.284 6.716-15 15-15h70c8.284 0 15 6.716 15 15z" fill="#f2ba23"/></g><path d="m306 417v-90c0-8.284-6.716-15-15-15h-35v105z" fill="#d89d1e"/><g><path d="m156 417h-100v-90c0-8.284 6.716-15 15-15h70c8.284 0 15 6.716 15 15z" fill="#f2ba23"/></g><path d="m156 417v-90c0-8.284-6.716-15-15-15h-35v105z" fill="#d89d1e"/><g><path d="m456 417h-100v-90c0-8.284 6.716-15 15-15h70c8.284 0 15 6.716 15 15z" fill="#f2ba23"/></g><path d="m456 417v-90c0-8.284-6.716-15-15-15h-35v105z" fill="#d89d1e"/></g><g><path d="m456 497h-400c-22.091 0-40-17.909-40-40 0-22.091 17.909-40 40-40h400c22.091 0 40 17.909 40 40 0 22.091-17.909 40-40 40z" fill="#0a617d"/><path d="m456 417h-200v80h200c22.091 0 40-17.909 40-40 0-22.091-17.909-40-40-40z" fill="#08475e"/><circle cx="456" cy="457" fill="#c6d0da" r="40"/><circle cx="256" cy="457" fill="#e2e2ea" r="40"/><path d="m296 457c0-22.091-17.909-40-40-40v80c22.091 0 40-17.909 40-40z" fill="#c6d0da"/><circle cx="56" cy="457" fill="#e2e2ea" r="40"/><path d="m456 402h-400c-30.327 0-55 24.673-55 55s24.673 55 55 55h400c30.327 0 55-24.673 55-55s-24.673-55-55-55zm-225 55c0-13.785 11.215-25 25-25s25 11.215 25 25-11.215 25-25 25-25-11.215-25-25zm-23.965 25h-102.07c3.848-7.507 6.035-16 6.035-25s-2.187-17.493-6.035-25h102.07c-3.848 7.507-6.035 16-6.035 25s2.187 17.493 6.035 25zm97.93-50h102.07c-3.848 7.507-6.035 16-6.035 25s2.187 17.493 6.035 25h-102.07c3.848-7.507 6.035-16 6.035-25s-2.187-17.493-6.035-25zm-273.965 25c0-13.785 11.215-25 25-25s25 11.215 25 25-11.215 25-25 25-25-11.215-25-25zm425 25c-13.785 0-25-11.215-25-25s11.215-25 25-25 25 11.215 25 25-11.215 25-25 25z" fill="#f1f4f6"/><path d="m456 402h-200v30c13.785 0 25 11.215 25 25s-11.215 25-25 25v30h200c30.327 0 55-24.673 55-55s-24.673-55-55-55zm-48.965 80h-102.07c3.848-7.507 6.035-16 6.035-25s-2.187-17.493-6.035-25h102.07c-3.848 7.507-6.035 16-6.035 25s2.187 17.493 6.035 25zm48.965 0c-13.785 0-25-11.215-25-25s11.215-25 25-25 25 11.215 25 25-11.215 25-25 25z" fill="#e2e2ea"/></g></g></g><circle cx="106" cy="135" fill="#f1f4f6" r="15"/><g><g><path d="m319.194 15-54.121 93.741c-9.016 15.614-11.41 33.805-6.744 51.22 4.667 17.416 15.836 31.972 31.45 40.986 10.401 6.006 21.943 9.073 33.641 9.073 5.862 0 11.765-.771 17.579-2.329 17.416-4.667 31.972-15.836 40.986-31.45l93.094-161.241z" fill="#0a617d"/></g><g><path d="m397.137 15-107.357 185.948c10.401 6.006 21.943 9.073 33.64 9.073 5.863 0 11.765-.771 17.579-2.329 17.416-4.667 31.972-15.836 40.986-31.45l93.094-161.242z" fill="#08475e"/></g><circle cx="323.529" cy="142.491" fill="#f1f4f6" r="15"/><g><path d="m336.52 149.991c4.142-7.174 1.684-16.348-5.49-20.49l-15 25.981c7.174 4.142 16.348 1.683 20.49-5.491z" fill="#e2e2ea"/></g></g><path d="m106 120v30c8.271 0 15-6.729 15-15s-6.729-15-15-15z" fill="#e2e2ea"/><g><path d="m497 30h-482c-8.284 0-15-6.716-15-15s6.716-15 15-15h482c8.284 0 15 6.716 15 15s-6.716 15-15 15z" fill="#f1f4f6"/></g><path d="m497 0h-241v30h241c8.284 0 15-6.716 15-15s-6.716-15-15-15z" fill="#e2e2ea"/></g></svg>