<svg width="512" height="512" viewBox="0 0 512 512" fill="none" xmlns="http://www.w3.org/2000/svg">
<path d="M490.366 421.859H21.6338C10.2544 421.859 1.03015 412.635 1.03015 401.256L4.00016 112.585C4.00016 102.629 7.06289 91.4502 16.4509 89.5289C17.7922 89.2549 19.1809 89.1107 20.6036 89.1107H491.396C502.776 89.1107 512 98.3349 512 109.714V402.286C512 403.697 511.858 405.075 511.588 406.406C509.679 415.811 500.334 421.859 490.366 421.859Z" fill="#6480FD"/>
<path d="M511.588 406.406C509.682 415.812 501.369 422.889 491.396 422.889H20.6036C9.22012 422.889 0 413.669 0 402.286V109.714C0 99.7421 7.07734 91.4285 16.4829 89.5227V394.044C16.4829 400.874 22.015 406.406 28.8451 406.406H511.588Z" fill="#6480FD"/>
<path d="M469.763 329.143H314.205C308.516 329.143 303.903 324.531 303.903 318.841V210.672C303.903 204.982 308.516 200.37 314.205 200.37L319.356 199.34H470.793C476.482 199.34 481.095 203.952 481.095 209.642V313.69L480.064 318.841C480.064 324.531 475.452 329.143 469.763 329.143Z" fill="#CEFEF5"/>
<path d="M481.095 313.69V319.871C481.095 325.561 476.482 330.173 470.793 330.173H313.175C307.485 330.173 302.873 325.561 302.873 319.871V209.642C302.873 203.952 307.485 199.34 313.175 199.34H319.356V308.539C319.356 311.384 321.663 313.69 324.507 313.69H481.095Z" fill="#CEFEF5"/>
<path d="M329.658 390.954H306.994C305.287 390.954 303.903 389.57 303.903 387.863V365.199C303.903 363.492 305.287 362.109 306.994 362.109L314.205 361.078H330.688C332.395 361.078 333.779 362.462 333.779 364.169V380.652L332.749 387.863C332.749 389.57 331.365 390.954 329.658 390.954Z" fill="#F1F1FE"/>
<path d="M333.779 380.652V388.893C333.779 390.6 332.395 391.984 330.688 391.984H305.964C304.257 391.984 302.873 390.6 302.873 388.893V364.169C302.873 362.462 304.257 361.078 305.964 361.078H314.205V378.592C314.205 379.73 315.127 380.652 316.266 380.652H333.779Z" fill="#F1F1FE"/>
<path d="M234.881 238.487H38.1167C35.2724 238.487 32.9658 236.18 32.9658 233.336V207.581C32.9658 204.737 35.2724 202.431 38.1167 202.431L46.3582 201.4H235.911C238.756 201.4 241.062 203.707 241.062 206.551V225.095L240.032 233.336C240.032 236.18 237.726 238.487 234.881 238.487Z" fill="#F1F1FE"/>
<path d="M241.062 225.095V234.366C241.062 237.211 238.756 239.517 235.911 239.517H37.0865C34.2422 239.517 31.9356 237.211 31.9356 234.366V206.551C31.9356 203.707 34.2422 201.4 37.0865 201.4H46.3581V222.004C46.3581 223.711 47.7417 225.095 49.4487 225.095H241.062Z" fill="#F1F1FE"/>
<path d="M446.636 261.247L435.313 265.816L427.997 266.016L391.984 283.3L355.051 266.446L349.602 266.198L337.332 261.247C332.085 259.13 332.205 251.66 337.516 249.712L388.436 231.033C390.727 230.192 393.241 230.192 395.532 231.033L446.452 249.712C451.763 251.66 451.883 259.129 446.636 261.247V261.247Z" fill="#868491"/>
<path d="M435.313 265.818L391.984 283.3L349.602 266.199C350.756 260.976 354.568 256.649 359.801 254.898C370.36 251.374 381.363 249.592 392.499 249.592C403.635 249.592 414.638 251.374 425.197 254.898C430.307 256.608 434.057 260.77 435.313 265.818Z" fill="#77777F"/>
<path d="M419.284 297.207H365.714C364.007 297.207 362.624 295.824 362.624 294.117V270.589C362.624 269.259 364.737 267.658 364.737 267.658C367.437 266.757 369.139 264.957 371.893 264.317C388.203 260.528 405.302 261.297 421.291 266.627C422.552 267.048 423.403 268.229 423.403 269.559V287.936L422.373 294.117C422.374 295.824 420.991 297.207 419.284 297.207V297.207Z" fill="#868491"/>
<path d="M423.404 287.936V295.147C423.404 296.854 422.021 298.237 420.314 298.237H364.684C362.977 298.237 361.594 296.854 361.594 295.147V269.557C361.594 268.228 362.449 267.044 363.705 266.631C366.404 265.735 369.134 264.963 371.895 264.324V284.845C371.895 286.552 373.279 287.936 374.986 287.936H423.404Z" fill="#77777F"/>
<path d="M481.095 368.805H372.926C368.659 368.805 365.199 365.345 365.199 361.078C365.199 356.811 368.659 353.352 372.926 353.352H481.095C485.362 353.352 488.821 356.811 488.821 361.078C488.821 365.345 485.362 368.805 481.095 368.805Z" fill="#233ED9"/>
<path d="M450.189 399.71H372.926C368.659 399.71 365.199 396.251 365.199 391.984C365.199 387.717 368.659 384.258 372.926 384.258H450.189C454.456 384.258 457.916 387.717 457.916 391.984C457.916 396.251 454.456 399.71 450.189 399.71Z" fill="#233ED9"/>
<path d="M481.094 170.495H410.012C405.745 170.495 402.286 167.036 402.286 162.769C402.286 158.502 405.745 155.042 410.012 155.042H481.094C485.362 155.042 488.821 158.502 488.821 162.769C488.821 167.036 485.362 170.495 481.094 170.495Z" fill="#233ED9"/>
<path d="M241.062 350.262H31.9356C27.6686 350.262 24.2092 346.802 24.2092 342.535C24.2092 338.268 27.6686 334.809 31.9356 334.809H241.062C245.329 334.809 248.789 338.268 248.789 342.535C248.789 346.802 245.329 350.262 241.062 350.262Z" fill="#233ED9"/>
<path d="M160.708 309.054H31.9356C27.6686 309.054 24.2092 305.595 24.2092 301.328C24.2092 297.061 27.6686 293.602 31.9356 293.602H160.708C164.975 293.602 168.435 297.061 168.435 301.328C168.435 305.595 164.975 309.054 160.708 309.054Z" fill="#233ED9"/>
<path d="M116.41 382.197H31.9356C27.6686 382.197 24.2092 378.738 24.2092 374.471C24.2092 370.204 27.6686 366.744 31.9356 366.744H116.41C120.677 366.744 124.137 370.204 124.137 374.471C124.137 378.738 120.677 382.197 116.41 382.197Z" fill="#233ED9"/>
<path d="M241.062 278.149H31.9356C27.6686 278.149 24.2092 274.69 24.2092 270.423C24.2092 266.156 27.6686 262.696 31.9356 262.696H241.062C245.329 262.696 248.789 266.156 248.789 270.423C248.789 274.69 245.329 278.149 241.062 278.149Z" fill="#233ED9"/>
<path d="M300.669 170.732C296.402 170.732 292.942 167.273 292.942 163.006V125.988C292.942 122.607 295.141 119.618 298.369 118.612C301.596 117.608 305.105 118.815 307.026 121.597L318.705 138.509L318.583 125.993C318.542 121.726 321.968 118.234 326.235 118.193H326.311C330.543 118.193 333.994 121.603 334.035 125.844L334.381 161.681C334.381 165.576 332.055 168.868 328.593 169.95C325.175 171.016 321.457 169.682 319.342 166.627L308.394 150.773V163.006C308.395 167.274 304.936 170.732 300.669 170.732V170.732Z" fill="#F1F1FE"/>
<path d="M269.108 170.563H253.624C249.357 170.563 245.898 167.104 245.898 162.837V126.089C245.898 121.822 249.357 118.363 253.624 118.363H269.108C273.375 118.363 276.834 121.822 276.834 126.089C276.834 130.356 273.375 133.815 269.108 133.815H261.351V155.11H269.108C273.375 155.11 276.834 158.57 276.834 162.837C276.834 167.104 273.375 170.563 269.108 170.563Z" fill="#F1F1FE"/>
<path d="M267.967 152.189H253.624C249.357 152.189 245.898 148.729 245.898 144.462C245.898 140.195 249.357 136.736 253.624 136.736H267.967C272.234 136.736 275.693 140.195 275.693 144.462C275.693 148.729 272.234 152.189 267.967 152.189Z" fill="#F1F1FE"/>
<path d="M196.719 169.6C192.452 169.6 188.993 166.14 188.993 161.873V126.505C188.993 122.238 192.452 118.779 196.719 118.779C200.986 118.779 204.446 122.238 204.446 126.505V161.873C204.446 166.14 200.986 169.6 196.719 169.6Z" fill="#F1F1FE"/>
<path d="M196.792 170.184C194.754 170.184 192.797 169.378 191.349 167.941C189.894 166.497 189.073 164.534 189.066 162.485C189.066 162.485 189.019 149.429 189.019 144.423C189.019 140.321 188.993 126.483 188.993 126.482C188.989 124.43 189.802 122.462 191.251 121.009C192.7 119.557 194.667 118.741 196.719 118.741H206.912C220.018 118.741 229.172 129.318 229.172 144.461C229.172 159.098 219.992 169.881 207.345 170.102C204.419 170.153 197.13 170.182 196.821 170.183C196.812 170.184 196.802 170.184 196.792 170.184V170.184ZM204.459 134.194C204.465 138.098 204.471 142.419 204.471 144.423C204.471 146.787 204.482 150.953 204.493 154.684C205.504 154.674 206.415 154.664 207.076 154.653C212.32 154.561 213.719 148.205 213.719 144.462C213.719 141.375 213.056 134.194 206.912 134.194H204.459Z" fill="#F1F1FE"/>
<path d="M44.2123 170.732C36.9876 170.732 30.1905 167.803 25.5629 162.696C22.698 159.535 22.938 154.648 26.0997 151.783C29.2613 148.918 34.1485 149.158 37.0134 152.319C37.6428 153.014 40.0205 155.279 44.2113 155.279C46.3582 155.279 47.4048 154.166 47.6119 153.712C47.3842 153.4 46.5838 152.678 44.7573 152.004C38.911 149.848 33.7127 147.534 33.4943 147.436C33.1224 147.271 32.7639 147.075 32.4219 146.853C27.4925 143.639 24.9531 138.008 25.7927 132.156C26.6766 125.998 31.129 120.998 37.4131 119.105C48.2465 115.841 57.1421 122.256 58.8151 123.575C62.1663 126.217 62.7411 131.075 60.0987 134.426C57.4563 137.776 52.598 138.351 49.2478 135.71C49.2107 135.681 45.5062 132.806 41.8707 133.901C41.7069 133.95 41.5761 134.003 41.47 134.054C43.3686 134.866 46.6466 136.231 50.1039 137.506C61.2639 141.623 63.9485 150.218 62.8586 156.327C61.37 164.674 53.5262 170.732 44.2123 170.732Z" fill="#F1F1FE"/>
<path d="M151.026 170.732C151.014 170.732 151.004 170.732 150.992 170.732C146.988 170.727 143.292 169.661 140.008 167.562C133.78 163.582 130.623 158.158 130.623 151.439V125.919C130.623 121.652 134.082 118.193 138.349 118.193C142.616 118.193 146.076 121.652 146.076 125.919V151.439C146.076 152.294 146.076 153.101 148.328 154.541C149.115 155.043 149.968 155.278 151.012 155.279H151.025C152.025 155.279 152.885 155.091 153.654 154.703C156.393 153.324 156.393 152.173 156.393 151.412V125.919C156.393 121.652 159.852 118.193 164.119 118.193C168.386 118.193 171.846 121.652 171.846 125.919V151.412C171.846 158.783 167.854 164.854 160.605 168.504C157.671 169.983 154.448 170.732 151.026 170.732V170.732Z" fill="#F1F1FE"/>
<path d="M106.18 133.645H85.6987C81.4317 133.645 77.9724 130.186 77.9724 125.919C77.9724 121.652 81.4317 118.193 85.6987 118.193H106.18C110.447 118.193 113.906 121.652 113.906 125.919C113.906 130.186 110.447 133.645 106.18 133.645Z" fill="#F1F1FE"/>
<path d="M95.8975 170.732C91.6305 170.732 88.1711 167.273 88.1711 163.006V127.104C88.1711 122.837 91.6305 119.377 95.8975 119.377C100.165 119.377 103.624 122.837 103.624 127.104V163.006C103.624 167.274 100.165 170.732 95.8975 170.732Z" fill="#F1F1FE"/>
<path d="M378.723 133.645H358.242C353.975 133.645 350.516 130.186 350.516 125.919C350.516 121.652 353.975 118.193 358.242 118.193H378.723C382.99 118.193 386.45 121.652 386.45 125.919C386.45 130.186 382.991 133.645 378.723 133.645V133.645Z" fill="#F1F1FE"/>
<path d="M368.442 170.732C364.175 170.732 360.716 167.273 360.716 163.006V127.104C360.716 122.837 364.175 119.377 368.442 119.377C372.709 119.377 376.169 122.837 376.169 127.104V163.006C376.169 167.274 372.709 170.732 368.442 170.732Z" fill="#F1F1FE"/>
</svg>
