<svg id="color" enable-background="new 0 0 24 24" height="512" viewBox="0 0 24 24" width="512" xmlns="http://www.w3.org/2000/svg"><path d="m15 15h-6.5c-1.654 0-3-1.346-3-3 0-1.457 1.044-2.676 2.424-2.944.52-1.779 2.178-3.056 4.076-3.056 1.498 0 2.885.797 3.643 2.062 1.633.299 2.857 1.733 2.857 3.438 0 1.93-1.57 3.5-3.5 3.5z" fill="#2196f3"/><g fill="#607d8b"><path d="m22.272 10.272c-.414 0-.75.336-.75.75 0 4.484-3.122 8.246-7.304 9.249v-.935c0-.666-.807-1.003-1.28-.53l-1.957 1.956c-.293.293-.293.768 0 1.061l1.957 1.957c.469.469 1.28.141 1.28-.53v-1.431c5.018-1.029 8.804-5.479 8.804-10.797 0-.414-.336-.75-.75-.75z"/><path d="m8.824 19.988c-3.796-1.33-6.346-4.934-6.346-8.966 0-1.143.206-2.251.593-3.294l.899.519c.575.334 1.272-.196 1.1-.844l-.76-2.834c-.108-.398-.51-.633-.919-.53l-2.836.759c-.644.173-.757 1.042-.18 1.374l1.379.796c-.508 1.276-.775 2.645-.775 4.055 0 4.669 2.954 8.841 7.35 10.382.396.137.82-.072.956-.46.136-.391-.07-.819-.461-.957z"/><path d="m23.056 4.917-1.614.432c-1.962-3.244-5.54-5.349-9.442-5.349-2.512 0-4.866.825-6.809 2.387-.323.259-.374.731-.115 1.053.261.324.732.374 1.055.115 1.674-1.344 3.703-2.055 5.869-2.055 3.223 0 6.185 1.664 7.921 4.257l-.874.234c-.644.173-.757 1.04-.181 1.374l2.541 1.468c.173.1.376.126.57.075.191-.052.355-.178.455-.35l1.468-2.541c.331-.576-.194-1.272-.844-1.1z"/></g><path d="m12 6c-1.898 0-3.556 1.277-4.076 3.056-1.38.268-2.424 1.487-2.424 2.944 0 1.654 1.346 3 3 3h3.5z" fill="#1d83d4"/><path d="m12 19.744-1.02 1.019c-.293.293-.293.768 0 1.061l1.02 1.02z" fill="#546d79"/><path d="m3.585 4.015c-.064 0-.129.008-.194.024l-2.836.759c-.644.173-.757 1.042-.18 1.374l1.379.796c-.508 1.276-.775 2.645-.775 4.055 0 4.669 2.954 8.841 7.35 10.382.083.028.166.042.248.042.312 0 .6-.195.708-.502.137-.391-.069-.818-.46-.956-3.796-1.33-6.346-4.934-6.346-8.966 0-1.143.206-2.251.593-3.294l.898.518c.122.071.25.103.374.103.458 0 .861-.437.726-.947l-.76-2.834c-.091-.335-.389-.554-.725-.554z" fill="#546d79"/><path d="m12 0c-2.512 0-4.866.825-6.809 2.387-.323.259-.374.731-.115 1.053.149.185.366.281.585.281.165 0 .331-.054.469-.165 1.675-1.345 3.704-2.056 5.87-2.056z" fill="#546d79"/></svg>